<svg version="1.1" id="Layer_1" xmlns="http://www.w3.org/2000/svg" xmlns:xlink="http://www.w3.org/1999/xlink" x="0px" y="0px"
	 width="100%" viewBox="0 0 1024 213" enable-background="new 0 0 1024 213" xml:space="preserve">
<path fill="#FAFBFC" opacity="1.000000" stroke="none" 
	d="
M1025.000000,46.000000 
	C1025.000000,102.000000 1025.000000,158.000000 1025.000000,214.000000 
	C683.666687,214.000000 342.333344,214.000000 1.468654,213.498154 
	C6.415027,212.996155 10.892768,213.005295 15.370460,212.994308 
	C41.567139,212.930084 67.763802,212.861160 94.383087,212.847168 
	C108.439003,211.477524 121.309731,207.885208 133.122162,200.584137 
	C139.934799,196.373367 147.321915,193.066330 152.434357,186.146896 
	C155.027359,184.005264 157.275513,181.928482 159.623779,179.769714 
	C159.723892,179.687744 159.852036,179.462952 160.061554,179.314331 
	C160.668716,178.617477 161.066391,178.069214 161.423431,177.478088 
	C161.382828,177.435211 161.500931,177.437454 161.720139,177.319824 
	C162.207443,176.979141 162.367676,176.695236 162.207092,176.301971 
	C161.994141,176.253464 162.414139,176.376450 162.677551,176.206512 
	C163.768463,174.839462 164.595963,173.642349 165.334290,172.360870 
	C165.245148,172.276489 165.462860,172.389954 165.701599,172.219818 
	C166.314850,171.378525 166.689331,170.707352 167.029419,170.028091 
	C166.995041,170.020004 167.044739,170.070251 167.299225,169.878128 
	C168.172836,168.586411 168.791962,167.486816 169.245697,166.312576 
	C169.080307,166.237946 169.426559,166.346527 169.655762,166.193802 
	C170.120728,165.546478 170.356506,165.051880 170.581787,164.505676 
	C170.571274,164.454086 170.661545,164.399887 170.878601,164.162491 
	C181.874786,144.637314 186.058182,123.993843 183.879150,101.687065 
	C183.839691,100.895752 183.738663,100.447372 183.676849,99.598206 
	C181.957306,86.712799 178.760315,74.683777 172.436966,63.612129 
	C172.421478,63.584061 172.481415,63.607029 172.391449,63.281559 
	C171.229507,61.263622 170.157562,59.571152 169.052399,57.917709 
	C169.019165,57.956738 169.117584,57.928055 169.084824,57.649826 
	C168.622879,56.772362 168.193695,56.173126 167.716187,55.499203 
	C167.667862,55.424515 167.576736,55.271706 167.451447,54.998409 
	C166.589600,53.762379 165.853027,52.799641 165.100327,51.878555 
	C165.084198,51.920204 165.173508,51.918728 165.109756,51.624947 
	C164.518997,50.740105 163.991974,50.149048 163.254669,49.621326 
	C163.044388,49.684658 163.466141,49.541759 163.331421,49.235565 
	C157.136765,42.941940 151.076813,36.954514 145.010147,30.985546 
	C145.003418,31.004007 145.035645,30.980892 144.879517,30.708597 
	C143.698608,29.760738 142.673813,29.085176 141.586700,28.401125 
	C141.524384,28.392637 141.446732,28.293673 141.248840,28.043694 
	C131.703903,23.264990 122.356857,18.736265 112.657486,14.042245 
	C105.803749,12.554258 99.324936,10.227203 92.797058,10.080251 
	C62.205437,9.391598 31.600306,9.302958 1.000000,9.000000 
	C1.000000,6.334546 1.000000,3.669092 1.000000,1.009428 
	C342.333344,1.015218 683.666687,1.015218 1025.000000,1.015218 
	C1025.000000,3.362703 1025.000000,5.694971 1024.531494,8.523739 
	C978.511292,9.002285 932.959778,8.974246 887.408203,8.974381 
	C877.605164,8.974411 867.802185,9.076160 857.557373,9.214614 
	C857.078308,21.210567 857.040894,33.122959 857.053772,45.358826 
	C857.726379,45.716579 858.348755,45.750858 859.429932,45.864746 
	C863.920105,45.902473 867.951416,45.860596 872.443115,45.918495 
	C886.983459,46.018772 901.063782,45.980721 915.143311,46.065994 
	C917.015747,46.077332 918.884277,46.714840 920.634949,47.511543 
	C920.539612,100.876335 920.548462,153.791992 920.647278,206.707474 
	C920.651062,208.754166 921.519043,210.799255 922.448853,212.918411 
	C935.320862,212.991730 947.728271,212.991730 960.513794,212.991730 
	C960.513794,210.834702 960.514587,209.192444 960.513733,207.550171 
	C960.486938,155.493286 960.454712,103.436394 960.455505,51.379501 
	C960.455505,49.583527 960.786682,47.787560 960.977539,46.000874 
	C960.991516,46.010159 960.998169,45.977360 961.465942,46.006008 
	C982.955811,46.023106 1003.977905,46.011555 1025.000000,46.000000 
M672.110657,40.225483 
	C671.785522,40.074406 671.460449,39.923332 671.116333,39.892868 
	C671.116333,39.892868 671.235352,39.865570 671.137695,39.158302 
	C667.094116,34.718773 663.050598,30.279243 658.400940,25.540535 
	C655.233521,23.035522 652.291260,20.154362 648.855347,18.097897 
	C639.538269,12.521441 629.170837,9.418084 618.462646,9.261069 
	C588.980957,8.828777 559.488586,9.118919 529.092896,9.243035 
	C528.917175,10.035161 528.586914,10.827443 528.587708,11.619398 
	C528.654114,77.254890 528.738831,142.890381 528.884705,208.525711 
	C528.887878,209.961716 529.611633,211.396103 530.924500,212.990768 
	C541.294006,212.932602 551.663452,212.874451 562.882019,212.952042 
	C564.584351,212.857925 566.286682,212.763809 568.484070,212.519684 
	C568.385254,211.854889 568.286499,211.190094 568.439026,209.797379 
	C568.344604,190.677673 568.250183,171.557953 568.449097,152.007385 
	C568.354248,151.517502 568.259399,151.027634 568.408142,149.939438 
	C568.335876,149.307602 568.263611,148.675766 568.531189,147.693604 
	C568.704773,147.415894 568.840027,147.120651 569.880554,146.871231 
	C588.236023,146.510956 606.591553,146.150681 625.734009,145.872040 
	C639.463623,143.269562 652.149170,138.530563 662.663696,127.920013 
	C663.608276,126.839722 664.552795,125.759430 665.566833,124.553505 
	C665.566833,124.553505 665.670593,124.454277 666.040100,124.257660 
	C666.271484,124.079994 666.421204,123.849358 666.513977,123.465240 
	C666.513977,123.465240 666.616272,123.449554 667.109253,123.084824 
	C667.837402,122.088303 668.565552,121.091774 669.718750,119.926071 
	C669.958008,119.698990 670.061279,119.421333 670.552124,118.790703 
	C670.818909,118.257774 671.085693,117.724846 671.196228,117.156464 
	C671.196228,117.156464 671.234131,117.312187 671.729126,117.061821 
	C671.854919,116.723625 671.980774,116.385429 672.020630,116.039413 
	C672.020630,116.039413 672.073975,116.107346 672.595886,115.711563 
	C673.196289,114.558479 673.796753,113.405396 674.250244,112.157646 
	C674.250244,112.157646 674.336365,112.309708 674.854858,111.908081 
	C675.409607,110.731682 675.964294,109.555290 676.511414,108.351227 
	C676.511414,108.351227 676.483032,108.353081 676.917908,107.942635 
	C677.090210,107.372589 677.262512,106.802544 677.305725,106.170639 
	C677.305725,106.170639 677.338745,106.309921 677.851624,105.819168 
	C679.128845,101.743286 681.121521,97.736694 681.524353,93.576157 
	C682.220215,86.389442 681.928833,79.107140 682.039795,71.232460 
	C681.987366,70.815674 681.934937,70.398880 682.075989,69.316093 
	C681.074463,64.818069 680.072876,60.320042 678.831116,55.123959 
	C678.168640,53.082298 677.506165,51.040638 676.801208,48.311348 
	C675.554077,46.176872 674.306946,44.042397 673.011597,41.969501 
	C673.011597,41.969501 673.089844,41.967529 673.045471,41.417175 
	C672.790710,41.169838 672.535889,40.922504 672.145752,40.853882 
	C672.145752,40.853882 672.328064,40.723484 672.110657,40.225483 
M806.429504,33.766685 
	C806.429504,33.766685 806.450439,33.724152 806.461243,33.061394 
	C806.004395,32.335175 805.547485,31.608955 805.051208,30.982613 
	C805.051208,30.982613 805.137756,30.919065 805.098206,30.164003 
	C803.764709,27.067715 802.431213,23.971426 801.078857,20.958265 
	C801.078857,20.958265 801.163452,20.947515 801.146606,20.261513 
	C800.551819,19.093819 799.957031,17.926125 799.418457,16.824533 
	C799.418457,16.824533 799.422607,16.737915 799.398682,15.973410 
	C797.901367,13.186673 798.584839,8.780093 793.447205,8.787688 
	C782.999695,8.803133 772.551086,8.490116 762.104980,8.571467 
	C760.677490,8.582584 758.531250,9.739497 757.970886,10.947243 
	C755.898682,15.414300 754.351807,20.125076 752.609680,24.832432 
	C752.609680,24.832432 752.665955,24.764471 752.121277,25.091473 
	C751.756348,26.061647 751.391357,27.031824 750.595459,28.558117 
	C745.670288,40.682320 740.745117,52.806522 735.907654,64.956711 
	C735.907654,64.956711 735.885437,64.867950 735.340515,65.317879 
	C734.444702,67.818810 733.548950,70.319740 732.790894,72.925072 
	C732.790894,72.925072 732.709778,72.772430 732.138428,73.165169 
	C730.635498,77.032440 729.132568,80.899704 727.642456,84.873993 
	C727.642456,84.873993 727.693604,84.779083 727.147522,85.162483 
	C726.721741,86.428604 726.295959,87.694725 725.953186,88.970207 
	C725.953186,88.970207 725.921509,88.892990 725.388000,89.308289 
	C724.675476,91.195763 723.963013,93.083237 722.906494,95.633606 
	C722.233582,97.412125 721.560669,99.190636 720.363037,101.418571 
	C717.787842,107.865219 715.212646,114.311859 712.663330,120.830605 
	C712.663330,120.830605 712.731628,120.796021 712.150330,121.170929 
	C708.129761,130.777634 704.109192,140.384338 699.895264,150.717712 
	C699.246826,152.769409 698.598389,154.821091 697.321899,157.200851 
	C692.817200,168.104980 688.312500,179.009125 683.900330,189.942657 
	C683.900330,189.942657 683.871338,189.850067 683.279541,190.258209 
	C680.347839,197.604645 677.416199,204.951065 674.206360,212.994522 
	C688.280151,212.994522 701.540283,213.041458 714.798096,212.890198 
	C715.693604,212.879990 716.971069,211.544388 717.395325,210.539871 
	C720.691956,202.733902 723.822571,194.857819 727.435181,186.457550 
	C728.057129,184.683945 728.679016,182.910355 729.195740,181.102020 
	C729.195740,181.102020 729.233093,181.206360 729.790100,180.786362 
	C730.988464,177.607285 732.186890,174.428223 733.370972,171.098572 
	C733.370972,171.098572 733.331055,171.244446 733.874084,170.857361 
	C735.233215,169.514328 736.592346,168.171310 738.829773,166.980103 
	C740.910461,166.919052 742.991211,166.858002 745.986816,166.962540 
	C770.324036,166.935867 794.661316,166.909195 819.462769,167.049316 
	C819.462769,167.049316 819.955688,167.028824 820.246704,167.409424 
	C820.467163,167.643143 820.712769,167.846542 821.000000,168.000000 
	C821.000000,168.000000 820.981750,168.019363 821.034485,168.751785 
	C825.813904,180.435364 830.575928,192.126083 835.378052,203.800293 
	C839.334595,213.418549 839.355713,213.409851 850.929626,212.982727 
	C860.044250,212.995987 869.159607,213.061066 878.272644,212.947906 
	C879.258728,212.935669 882.142578,214.395584 880.929810,210.411774 
	C880.648865,209.931992 880.367920,209.452225 880.051575,208.221222 
	C878.379822,204.092453 876.763611,199.940109 875.025940,195.839264 
	C869.502258,182.804245 863.933228,169.788391 858.405823,156.718018 
	C858.405823,156.718018 858.426941,156.669510 858.356018,155.964737 
	C857.353088,153.897491 856.350159,151.830246 855.411499,149.772110 
	C855.411499,149.772110 855.429443,149.709778 855.400146,149.103348 
	C855.227661,148.735458 855.055176,148.367569 854.847168,147.374832 
	C854.327332,146.504761 853.807495,145.634689 853.191101,144.907104 
	C853.191101,144.907104 853.339478,144.819931 853.284851,144.059219 
	C849.636780,135.626541 845.988708,127.193878 842.386963,118.885490 
	C842.386963,118.885490 842.396240,118.753189 842.327820,117.998154 
	C838.928955,110.282089 835.530090,102.566025 832.092407,94.941063 
	C832.092407,94.941063 832.188232,94.915955 832.146484,94.152649 
	C826.844299,81.697662 821.542053,69.242668 816.294312,56.878418 
	C816.294312,56.878418 816.295227,56.772598 816.225647,56.039608 
	C813.184021,49.314384 810.142334,42.589165 807.070862,35.948929 
	C807.070862,35.948929 807.160828,35.953693 807.127563,35.332394 
	C806.879333,34.813194 806.631042,34.293999 806.429504,33.766685 
M339.087646,175.881165 
	C322.069763,175.949646 305.051910,176.018127 287.114960,175.905411 
	C282.731903,175.970917 278.348846,176.036423 273.045624,175.943710 
	C264.036652,175.978882 255.027695,176.014053 245.261383,175.594910 
	C245.098877,174.793488 244.794174,173.991943 244.794937,173.190674 
	C244.808853,158.564682 244.844528,143.938629 244.937744,129.312973 
	C244.943588,128.398590 245.460754,127.487457 246.589706,126.789398 
	C274.155548,126.700287 301.721375,126.611176 329.809784,126.770149 
	C330.179932,126.702583 330.550079,126.635017 331.876862,126.265999 
	C331.876862,114.447281 331.876862,102.628563 331.876862,90.503738 
	C302.567230,90.503738 273.826508,90.503738 245.086533,90.125824 
	C245.086533,90.125824 244.743393,89.967445 244.815567,89.037437 
	C244.769257,76.700768 244.722946,64.364098 244.877945,51.355141 
	C244.815948,50.896130 244.753952,50.437122 244.852814,49.248798 
	C244.804184,48.507034 244.755554,47.765266 245.062439,46.552174 
	C245.375412,46.319641 245.688370,46.087109 246.920303,46.052830 
	C277.674805,46.063568 308.429321,46.087330 339.183716,46.039284 
	C340.466156,46.037281 341.747589,45.364704 343.220734,44.083267 
	C343.179199,32.709873 343.137665,21.336479 342.706726,9.166073 
	C308.794464,9.160246 274.882202,9.154418 240.051422,8.970768 
	C228.469971,8.970768 216.888504,8.970768 205.473312,8.970768 
	C205.171646,9.674835 204.939606,9.963196 204.940186,10.251083 
	C204.996674,38.155148 205.070831,66.059174 204.970978,94.891113 
	C204.970978,134.111954 204.970978,173.332794 204.970978,213.000122 
	C215.647141,213.000122 225.916718,213.012512 236.186279,212.997910 
	C272.455139,212.946304 308.724030,212.885437 345.857239,212.644135 
	C345.857239,200.531601 345.857239,188.419067 345.857239,176.080261 
	C343.904541,176.080261 341.955994,176.080261 339.087646,175.881165 
M503.851105,212.979141 
	C505.081757,212.878021 506.312439,212.776901 507.524170,212.677338 
	C507.524170,200.191589 507.524170,188.139175 507.524170,175.706726 
	C476.291077,175.706726 445.415161,175.706726 414.358368,175.706726 
	C414.181641,173.892807 414.040375,172.442886 414.060425,170.068741 
	C414.065643,123.004921 414.070282,75.941101 414.076813,28.877285 
	C414.077576,23.389284 414.203857,17.896982 413.998901,12.416886 
	C413.957581,11.311258 412.679688,10.251878 411.052887,8.995577 
	C399.699097,9.053106 388.345306,9.110636 376.329041,9.002477 
	C375.884827,9.069907 375.440613,9.137338 374.323944,9.309741 
	C374.297668,10.191978 374.271393,11.074214 374.062195,12.883029 
	C374.120941,19.932278 374.179688,26.981527 374.043762,34.945190 
	C374.112946,41.614799 374.182129,48.284409 374.088928,55.884380 
	C374.095612,97.855499 374.099487,139.826630 374.111298,181.797745 
	C374.113892,190.958099 374.078094,200.119675 374.244537,209.277328 
	C374.266388,210.478653 375.391754,211.659897 376.672363,212.985596 
	C377.120605,212.937805 377.568848,212.890015 378.943512,212.983063 
	C386.915558,212.987335 394.887604,213.005341 402.859619,212.993484 
	C436.238953,212.943817 469.618256,212.885223 503.851105,212.979141 
z"/>
<path fill="#28306E" opacity="1.000000" stroke="none" 
	d="
M1.000000,9.468657 
	C31.600306,9.302958 62.205437,9.391598 92.797058,10.080251 
	C99.324936,10.227203 105.803749,12.554258 112.731369,14.377327 
	C119.155487,17.889118 125.119118,20.971716 131.164825,23.883904 
	C134.521378,25.500732 138.014923,26.833096 141.446732,28.293671 
	C141.446732,28.293673 141.524384,28.392637 141.488770,28.765621 
	C142.647308,29.752703 143.841476,30.366798 145.035645,30.980894 
	C145.035645,30.980892 145.003418,31.004007 145.037979,31.338009 
	C149.472473,36.493176 153.786942,41.397026 158.323196,46.086319 
	C159.727509,47.538013 161.734879,48.406338 163.466141,49.541759 
	C163.466141,49.541759 163.044388,49.684658 163.204163,49.950752 
	C163.967133,50.784145 164.570312,51.351437 165.173508,51.918732 
	C165.173508,51.918728 165.084198,51.920204 165.094528,52.245178 
	C165.928818,53.470669 166.752777,54.371185 167.576736,55.271706 
	C167.576736,55.271706 167.667862,55.424515 167.530533,55.820335 
	C167.968002,56.786793 168.542786,57.357422 169.117584,57.928055 
	C169.117584,57.928055 169.019165,57.956738 169.030762,58.297367 
	C170.188721,60.294338 171.335068,61.950684 172.481415,63.607029 
	C172.481415,63.607029 172.421478,63.584061 172.297516,64.067108 
	C172.582016,67.216888 172.656296,69.997162 173.510910,72.512291 
	C174.128830,74.330772 176.356644,75.635139 176.869278,77.450394 
	C178.505447,83.244148 179.571259,89.196663 181.090576,95.027092 
	C181.548965,96.786186 182.767365,98.347221 183.637619,99.998985 
	C183.738663,100.447372 183.839691,100.895752 183.570236,101.889679 
	C182.806671,103.480545 182.091766,104.520203 182.073227,105.572121 
	C181.960342,111.977257 182.408188,118.417061 181.903625,124.784660 
	C181.158188,134.192368 179.196472,143.340469 174.837448,151.927200 
	C172.874100,155.794708 172.019318,160.224960 170.661545,164.399887 
	C170.661545,164.399887 170.571274,164.454086 170.226074,164.472946 
	C169.729446,165.110046 169.578003,165.728287 169.426559,166.346527 
	C169.426559,166.346527 169.080307,166.237946 168.859558,166.243896 
	C168.107437,167.523331 167.576096,168.796783 167.044739,170.070251 
	C167.044739,170.070251 166.995041,170.020004 166.675751,170.073761 
	C166.058578,170.881668 165.760712,171.635818 165.462860,172.389954 
	C165.462860,172.389954 165.245148,172.276489 164.941711,172.259918 
	C163.896896,173.621048 163.155518,174.998749 162.414139,176.376450 
	C162.414139,176.376450 161.994141,176.253464 161.907501,176.322571 
	C161.714218,176.740280 161.607574,177.088867 161.500931,177.437454 
	C161.500931,177.437454 161.382828,177.435211 161.040619,177.369507 
	C160.416275,178.023514 160.134155,178.743225 159.852036,179.462952 
	C159.852036,179.462952 159.723892,179.687744 159.302124,179.566528 
	C156.616745,181.700775 154.353134,183.956253 152.089523,186.211731 
	C147.321915,193.066330 139.934799,196.373367 133.122162,200.584137 
	C121.309731,207.885208 108.439003,211.477524 94.057358,212.597870 
	C91.491501,212.196777 89.674049,212.013748 87.856476,212.012619 
	C58.904327,211.994675 29.952162,211.999985 1.000000,212.000000 
	C1.000000,144.645767 1.000000,77.291542 1.000000,9.468657 
M124.885452,63.116325 
	C124.885452,63.116325 124.848129,63.304859 124.688652,62.730137 
	C124.354462,62.542229 124.020279,62.354324 123.832359,62.152977 
	C123.832359,62.152977 123.779953,62.290199 123.864098,61.515789 
	C122.751984,60.853966 121.639870,60.192139 120.536278,59.424347 
	C120.536278,59.424347 120.445404,59.479523 120.637665,59.099686 
	C120.421394,59.100258 120.205124,59.100830 119.311371,58.942841 
	C109.481430,51.381111 97.993721,48.358658 85.741577,46.024593 
	C85.036797,45.689499 84.333466,45.065655 83.627022,45.062099 
	C70.487091,44.995983 57.346455,44.963589 44.207214,45.073071 
	C43.170788,45.081711 42.143478,46.184689 41.195229,46.849026 
	C41.195229,46.849026 41.152542,46.949070 40.498177,47.498207 
	C40.333164,49.128674 40.025040,50.759060 40.024071,52.389622 
	C39.999985,92.924950 40.008347,133.460281 40.263409,174.465714 
	C40.563206,174.649109 40.862999,174.832504 41.248047,175.224426 
	C41.248047,175.224426 41.061333,175.350494 41.417801,176.167572 
	C41.835625,176.406647 42.252529,176.853012 42.671406,176.854858 
	C58.192162,176.923828 73.713219,176.979248 89.233711,176.912933 
	C90.115257,176.909164 90.992340,175.862106 92.551071,175.028152 
	C94.505043,174.660568 96.491379,174.414658 98.407593,173.905106 
	C108.765846,171.150772 118.664688,167.063660 125.992073,159.131424 
	C130.957550,153.756073 134.456741,147.026230 139.339005,140.724350 
	C139.722900,140.414474 140.290939,140.184036 140.463821,139.783157 
	C145.015335,129.229462 146.693329,118.099785 145.760849,106.768074 
	C145.345444,101.719963 143.087952,96.823448 141.678574,91.682854 
	C141.678574,91.682854 141.853226,91.663986 141.922302,90.792641 
	C141.096893,88.963135 140.271484,87.133621 139.553635,85.190689 
	C139.553635,85.190689 139.591217,85.342407 139.831879,84.548645 
	C138.677109,82.571480 137.522339,80.594307 136.398361,78.531464 
	C136.398361,78.531464 136.395065,78.440475 136.581757,77.862343 
	C136.286987,77.623749 135.992218,77.385155 135.837311,77.127434 
	C135.837311,77.127434 135.795883,77.262367 135.850037,76.557045 
	C135.392258,76.151512 134.934494,75.745979 134.636719,75.235420 
	C134.636719,75.235420 134.634125,75.426804 134.651550,74.826729 
	C134.359238,74.580933 134.066910,74.335136 133.900482,74.085060 
	C133.900482,74.085060 133.866577,74.206367 133.852509,73.467216 
	C133.357178,73.013092 132.861847,72.558975 132.058212,72.043861 
	C131.860397,71.899490 131.802521,71.711960 131.942490,70.674660 
	C130.171097,68.820068 128.399689,66.965477 126.240906,65.054405 
	C125.979225,64.913643 125.861992,64.695312 125.706825,63.799812 
	C125.369064,63.575459 125.031303,63.351105 124.885452,63.116325 
z"/>
<path fill="#29316E" opacity="1.000000" stroke="none" 
	d="
M920.754639,47.062370 
	C918.884277,46.714840 917.015747,46.077332 915.143311,46.065994 
	C901.063782,45.980721 886.983459,46.018772 872.331604,45.541183 
	C868.755737,44.714359 865.736328,43.989304 862.751404,44.110619 
	C859.085815,44.259598 857.844055,43.109539 857.929871,39.351986 
	C858.159912,29.283068 858.002625,19.205303 857.999146,9.131053 
	C867.802185,9.076160 877.605164,8.974411 887.408203,8.974381 
	C932.959778,8.974246 978.511292,9.002285 1024.531494,9.010120 
	C1025.000000,20.354227 1025.000000,31.708456 1024.531372,43.532074 
	C1004.664978,44.001381 985.266968,43.954121 965.870117,44.086864 
	C964.241882,44.098011 962.621948,45.318653 960.998169,45.977364 
	C960.998169,45.977360 960.991516,46.010159 960.636780,46.007805 
	C959.640381,46.542912 958.465027,47.061466 958.445251,47.620937 
	C958.332214,50.811985 957.242493,53.694073 957.674744,57.228203 
	C958.919800,67.407845 958.791077,77.768776 958.963867,88.062477 
	C959.130432,97.983131 959.000000,107.908775 959.000000,117.832222 
	C959.000000,147.164856 958.894287,176.498245 959.100952,205.829422 
	C959.136658,210.904739 957.061096,212.127853 952.568481,212.052567 
	C942.404785,211.882156 932.236511,211.992737 922.050232,211.521790 
	C922.020264,158.202835 922.022522,105.351128 921.947693,52.499519 
	C921.945068,50.686577 921.169739,48.874729 920.754639,47.062370 
M956.516357,48.418133 
	C956.516357,48.418133 956.577271,48.522606 956.516357,48.418133 
z"/>
<path fill="#303466" opacity="1.000000" stroke="none" 
	d="
M961.465942,46.006012 
	C962.621948,45.318653 964.241882,44.098011 965.870117,44.086864 
	C985.266968,43.954121 1004.664978,44.001381 1024.531372,44.000732 
	C1025.000000,44.444447 1025.000000,44.888889 1025.000000,45.666668 
	C1003.977905,46.011555 982.955811,46.023106 961.465942,46.006012 
z"/>
<path fill="#2E3060" opacity="1.000000" stroke="none" 
	d="
M1.000000,212.250000 
	C29.952162,211.999985 58.904327,211.994675 87.856476,212.012619 
	C89.674049,212.013748 91.491501,212.196777 93.634743,212.544495 
	C67.763802,212.861160 41.567139,212.930084 15.370460,212.994308 
	C10.892768,213.005295 6.415027,212.996155 1.468654,212.998154 
	C1.000000,213.000000 1.000000,212.500000 1.000000,212.250000 
z"/>
<path fill="#29306E" opacity="1.000000" stroke="none" 
	d="
M246.001343,45.854576 
	C245.688370,46.087109 245.375412,46.319641 244.585587,46.854141 
	C244.303131,48.096779 244.497543,49.037445 244.691956,49.978111 
	C244.753952,50.437122 244.815948,50.896130 244.413147,51.820976 
	C243.645462,52.838852 243.081284,53.389427 243.078201,53.943142 
	C243.015869,65.091133 242.979584,76.239853 243.082367,87.387093 
	C243.090332,88.252243 244.164688,89.107559 244.743393,89.967445 
	C244.743393,89.967445 245.086533,90.125824 245.277771,90.702789 
	C247.402237,91.521942 249.335068,91.971405 251.268707,91.974892 
	C276.227722,92.019897 301.187225,92.063004 326.145630,91.929817 
	C329.724457,91.910721 331.180847,92.729195 331.074860,96.619621 
	C330.803101,106.596237 330.944183,116.584099 330.920227,126.567459 
	C330.550079,126.635017 330.179932,126.702583 329.274048,126.271149 
	C327.802856,125.517944 326.867798,125.043304 325.931946,125.041695 
	C300.492615,124.997955 275.053131,124.979515 249.614044,125.066154 
	C248.321014,125.070549 247.031296,126.049576 245.740036,126.574814 
	C245.460754,127.487457 244.943588,128.398590 244.937744,129.312973 
	C244.844528,143.938629 244.808853,158.564682 244.794937,173.190674 
	C244.794174,173.991943 245.098877,174.793488 245.937271,176.112274 
	C251.040939,176.752747 255.472107,177.043289 259.895538,176.953247 
	C264.589447,176.857727 269.276031,176.400940 273.965790,176.101929 
	C278.348846,176.036423 282.731903,175.970917 287.878845,176.274872 
	C305.763458,176.762054 322.884155,176.879807 340.435913,176.999466 
	C344.181702,176.517715 345.090088,178.074478 345.045715,181.229111 
	C344.897614,191.760254 344.991638,202.294830 344.992889,212.828094 
	C308.724030,212.885437 272.455139,212.946304 236.186279,212.997910 
	C225.916718,213.012512 215.647141,213.000122 204.970978,213.000122 
	C204.970978,173.332794 204.970978,134.111954 205.321014,94.111389 
	C205.780029,91.517815 205.982132,89.704056 205.983932,87.890091 
	C206.007797,63.946548 206.076157,40.002537 205.931625,16.059862 
	C205.908661,12.254711 206.810654,10.872565 210.901535,10.884631 
	C220.169632,10.911965 229.440262,10.345250 238.707306,9.958771 
	C239.471451,9.926903 240.216202,9.429626 240.969955,9.148593 
	C274.882202,9.154418 308.794464,9.160246 342.562622,9.625089 
	C342.164337,10.455448 341.686371,10.828075 341.688507,11.197956 
	C341.753082,22.460495 341.864929,33.722767 341.582458,44.980431 
	C334.317932,44.651497 327.437866,44.014359 320.563293,44.068886 
	C306.803772,44.178032 293.048035,44.873867 279.289215,44.925983 
	C269.689636,44.962349 260.088928,44.245449 250.485077,44.087749 
	C249.000580,44.063374 247.496414,45.235683 246.001343,45.854576 
z"/>
<path fill="#3F7CBE" opacity="1.000000" stroke="none" 
	d="
M880.087036,208.972443 
	C880.367920,209.452225 880.648865,209.931992 880.562622,210.872498 
	C870.132751,211.559586 860.070007,211.785934 849.561768,212.010468 
	C840.919067,211.993774 839.600769,211.104080 837.034668,203.548004 
	C836.352539,201.539291 836.139465,199.354324 835.330383,197.408600 
	C831.742981,188.782013 828.086426,180.182037 824.272888,171.653809 
	C823.638611,170.235367 822.101624,169.220642 820.981750,168.019363 
	C820.981750,168.019363 821.000000,168.000000 820.886475,167.783936 
	C820.567749,167.286331 820.295349,167.106659 819.955688,167.028824 
	C819.955688,167.028824 819.462769,167.049316 819.239746,166.748627 
	C819.016785,166.447922 819.016479,166.012863 819.177917,165.919189 
	C819.222351,165.558044 819.105347,165.290573 818.573486,165.070938 
	C816.049561,165.412323 813.942871,165.936859 811.830872,165.959244 
	C802.888062,166.054047 793.943787,165.999603 784.702332,165.707153 
	C768.269531,165.289856 752.134338,165.165070 735.684204,165.194061 
	C734.689758,167.313385 734.010437,169.278915 733.331055,171.244446 
	C733.331055,171.244446 733.370972,171.098572 733.000549,171.217773 
	C731.497742,174.626770 730.365417,177.916565 729.233093,181.206360 
	C729.233093,181.206360 729.195740,181.102020 728.917053,181.235504 
	C727.755066,183.237061 726.871704,185.105118 725.713623,187.191223 
	C722.040466,194.812454 718.754333,202.271393 715.131470,209.563065 
	C714.539612,210.754166 712.492432,211.821594 711.065796,211.892166 
	C705.609924,212.162094 700.132812,212.001709 694.663635,212.001816 
	C688.933899,212.001923 683.204163,212.001831 676.798645,212.001831 
	C677.456726,209.926666 677.832703,208.732895 678.213745,207.540710 
	C680.098877,201.643585 681.985352,195.746902 683.871338,189.850067 
	C683.871338,189.850067 683.900330,189.942657 684.197632,189.818817 
	C686.721985,185.212982 689.245605,180.850006 691.104248,176.220108 
	C693.650574,169.877167 695.692078,163.331528 697.949951,156.872772 
	C698.598389,154.821091 699.246826,152.769409 700.333252,150.301727 
	C703.815125,144.129959 707.185791,138.516693 709.782349,132.565720 
	C711.377625,128.909592 711.788757,124.736794 712.731567,120.796021 
	C712.731628,120.796021 712.663330,120.830605 713.026917,120.749115 
	C715.573608,115.818497 717.848328,111.007423 719.886719,106.098221 
	C720.541260,104.521751 720.571777,102.686180 720.887756,100.969147 
	C721.560669,99.190636 722.233582,97.412125 723.417114,95.231392 
	C724.592346,92.850449 725.256897,90.871719 725.921509,88.892990 
	C725.921509,88.892990 725.953186,88.970207 726.250977,88.830856 
	C726.930298,87.387367 727.311951,86.083221 727.693604,84.779083 
	C727.693604,84.779083 727.642456,84.873993 728.010864,84.774963 
	C729.822754,80.708099 731.266296,76.740265 732.709778,72.772430 
	C732.709778,72.772430 732.790894,72.925072 733.076904,72.766846 
	C734.203735,70.028397 735.044617,67.448174 735.885437,64.867950 
	C735.885437,64.867950 735.907654,64.956711 736.203369,64.833450 
	C738.557800,60.373390 740.797119,56.111557 742.635681,51.683346 
	C745.890320,43.844360 748.901245,35.904202 752.151733,27.692993 
	C752.414856,26.507889 752.540405,25.636177 752.665894,24.764469 
	C752.665955,24.764471 752.609680,24.832432 752.984985,24.755344 
	C754.579041,22.275700 756.352600,19.993296 756.904114,17.446245 
	C758.163940,11.628887 759.739014,10.027552 765.792236,10.015573 
	C770.945435,10.005374 776.104431,10.159018 781.250427,9.964601 
	C788.299255,9.698297 795.460754,8.840959 799.422607,16.737915 
	C799.422607,16.737915 799.418457,16.824533 799.273315,17.156925 
	C799.806641,18.642054 800.485046,19.794788 801.163452,20.947519 
	C801.163452,20.947515 801.078857,20.958265 801.050537,21.325525 
	C802.394104,24.768209 803.765930,27.843632 805.137756,30.919060 
	C805.137756,30.919065 805.051208,30.982613 805.040527,31.300344 
	C805.503357,32.320095 805.976929,33.022114 806.450439,33.724144 
	C806.450439,33.724152 806.429504,33.766685 806.298340,34.091705 
	C806.498413,34.929050 806.829590,35.441376 807.160828,35.953697 
	C807.160828,35.953693 807.070862,35.948929 807.055176,36.309486 
	C808.912781,42.521790 810.651855,48.422974 812.773499,54.183258 
	C813.193665,55.323997 815.083252,55.923496 816.295227,56.772598 
	C816.295227,56.772598 816.294312,56.878418 816.192139,57.240120 
	C816.169739,58.255047 816.111084,58.964554 816.350098,59.553150 
	C820.885010,70.719780 825.430725,81.882271 830.069153,93.006012 
	C830.399902,93.799271 831.464722,94.286461 832.188232,94.915955 
	C832.188232,94.915955 832.092407,94.941063 832.070251,95.292755 
	C834.459167,101.949539 836.785217,108.289406 839.341003,114.535278 
	C839.979858,116.096558 841.357971,117.355347 842.396240,118.753174 
	C842.396240,118.753189 842.386963,118.885490 842.258545,119.220764 
	C844.033630,124.591873 845.760803,129.704208 847.900391,134.637680 
	C849.426270,138.156265 851.506592,141.434464 853.339478,144.819931 
	C853.339478,144.819931 853.191101,144.907104 853.148682,145.190582 
	C853.398987,146.318527 853.691711,147.162994 854.024353,148.326614 
	C854.519348,149.000427 854.974426,149.355087 855.429443,149.709778 
	C855.429443,149.709778 855.411499,149.772110 855.270020,150.155884 
	C856.227966,152.582932 857.327454,154.626205 858.426941,156.669495 
	C858.426941,156.669510 858.405823,156.718018 858.272461,157.145966 
	C859.174072,161.225342 859.920105,164.989899 861.297241,168.507339 
	C865.717285,179.796906 870.247925,191.047791 875.027710,202.188385 
	C876.109253,204.709244 878.369385,206.724442 880.087036,208.972443 
M807.099121,129.299500 
	C807.189026,129.344040 807.278992,129.388565 807.368896,129.433090 
	C807.257874,129.279480 807.146912,129.125854 807.012939,128.253082 
	C806.216431,127.251396 805.419922,126.249702 804.640564,125.134399 
	C804.640564,125.134399 804.692810,125.236725 804.898010,124.370605 
	C804.693359,122.150764 806.379211,118.868462 801.467407,118.659752 
	C801.311890,118.106003 801.156433,117.552254 801.540039,116.531181 
	C800.898132,115.468063 800.256165,114.404945 799.626282,113.264961 
	C799.626282,113.264961 799.693237,113.225403 799.880310,112.431976 
	C799.072876,109.926132 798.398438,107.367706 797.432678,104.924446 
	C794.696899,98.003082 791.865479,91.119102 789.027283,84.238731 
	C786.011780,76.928490 782.982544,69.623077 779.829224,62.372131 
	C779.582214,61.804272 778.314270,61.680382 777.520813,61.350140 
	C777.368103,62.239143 777.215393,63.128147 776.874146,64.586121 
	C776.534912,65.070694 776.195740,65.555260 775.463623,66.297859 
	C775.228638,66.528839 775.098328,66.808601 775.062256,67.046684 
	C775.062256,67.046684 775.143433,67.087868 774.407349,67.140152 
	C769.942261,78.098999 765.477234,89.057838 761.077148,100.756737 
	C761.120056,101.000618 761.163025,101.244499 761.238342,101.774765 
	C761.238342,101.774765 761.062622,102.003181 760.352661,102.116058 
	C756.303772,110.361443 752.047791,118.514313 748.303162,126.895645 
	C746.701355,130.480957 748.541626,133.049606 751.658569,132.888855 
	C757.447144,132.590302 763.237000,132.316391 769.618103,132.609940 
	C781.001099,132.738480 792.383911,132.884537 803.767273,132.954605 
	C804.496338,132.959106 805.229126,132.375305 806.006836,131.630096 
	C806.006836,131.630096 806.008545,131.192520 806.080078,130.464859 
	C806.059875,129.977966 806.039673,129.491089 806.496399,129.025467 
	C806.496399,129.025467 806.973755,129.033890 807.099121,129.299500 
z"/>
<path fill="#29316E" opacity="1.000000" stroke="none" 
	d="
M676.843628,48.998989 
	C677.506165,51.040638 678.168640,53.082298 678.929565,55.911045 
	C679.979492,61.126118 680.930969,65.554108 681.882568,69.982086 
	C681.934937,70.398880 681.987366,70.815674 682.030151,72.010864 
	C681.410950,78.497665 680.942566,84.225708 680.151367,89.908806 
	C679.386902,95.399940 678.289734,100.844757 677.338745,106.309921 
	C677.338745,106.309921 677.305725,106.170639 677.023438,106.290543 
	C676.655090,107.057991 676.569031,107.705536 676.483032,108.353081 
	C676.483032,108.353081 676.511414,108.351227 676.123169,108.361778 
	C675.268799,109.684792 674.802612,110.997253 674.336365,112.309708 
	C674.336365,112.309708 674.250244,112.157646 673.954834,112.247704 
	C673.130920,113.594284 672.602417,114.850807 672.073975,116.107338 
	C672.073975,116.107346 672.020630,116.039413 671.815125,116.169022 
	C671.484497,116.636490 671.359314,116.974350 671.234131,117.312195 
	C671.234131,117.312187 671.196228,117.156464 670.958374,117.256912 
	C670.489868,117.935936 670.259216,118.514511 670.028625,119.093094 
	C670.061279,119.421333 669.958008,119.698990 669.117554,120.012604 
	C667.883057,121.215935 667.249634,122.332733 666.616211,123.449547 
	C666.616272,123.449554 666.513977,123.465240 666.204468,123.455612 
	C665.820129,123.782074 665.745361,124.118172 665.670532,124.454269 
	C665.670593,124.454277 665.566833,124.553505 665.218628,124.457169 
	C663.934448,125.613472 662.998474,126.866104 662.062500,128.118744 
	C652.149170,138.530563 639.463623,143.269562 625.015381,145.582642 
	C606.429443,145.194809 588.562256,145.079102 570.695007,145.074524 
	C570.109131,145.074371 569.523010,146.204590 568.937012,146.807892 
	C568.840027,147.120651 568.704773,147.415894 568.018616,148.115265 
	C567.336609,150.331940 567.023743,152.126633 567.019958,153.921997 
	C566.983337,171.382019 566.998413,188.842133 566.998779,206.302231 
	C566.998840,208.053986 566.998840,209.805740 566.998840,211.296753 
	C564.820190,211.963409 563.426575,212.389847 562.032959,212.816284 
	C551.663452,212.874451 541.294006,212.932602 530.459717,212.453262 
	C529.996765,144.318253 529.998596,76.720764 530.000488,9.123264 
	C559.488586,9.118919 588.980957,8.828777 618.462646,9.261069 
	C629.170837,9.418084 639.538269,12.521441 648.855347,18.097897 
	C652.291260,20.154362 655.233521,23.035522 658.731567,26.046041 
	C663.119934,30.989555 667.177673,35.427563 671.235352,39.865570 
	C671.235352,39.865570 671.116333,39.892868 671.219360,40.100723 
	C671.657593,40.446877 671.992859,40.585182 672.328064,40.723488 
	C672.328064,40.723484 672.145752,40.853882 672.224731,41.042931 
	C672.565796,41.477165 672.827820,41.722347 673.089844,41.967529 
	C673.089844,41.967529 673.011597,41.969501 673.016724,42.316463 
	C674.295776,44.775284 675.569702,46.887142 676.843628,48.998989 
M568.437561,108.415146 
	C568.663818,108.633339 568.855042,108.878868 569.228638,109.916229 
	C569.913391,110.273903 570.596680,110.940132 571.283203,110.943558 
	C584.162537,111.007835 597.042664,111.033379 609.921326,110.924171 
	C611.017456,110.914879 612.104980,109.897461 613.883728,109.113647 
	C630.166199,107.660370 641.721924,96.641846 643.040344,81.654327 
	C644.478699,65.302742 635.152832,50.683788 618.572815,45.856659 
	C617.662720,45.570133 616.753479,45.037392 615.842346,45.033894 
	C601.396973,44.978466 586.951172,44.962708 572.506042,45.039917 
	C571.316467,45.046272 570.130859,45.789509 568.857971,46.517052 
	C568.736755,46.734245 568.552063,46.850468 567.601013,47.398460 
	C567.402527,48.183662 567.032288,48.968529 567.030762,49.754128 
	C566.994751,67.994232 566.977112,86.234505 567.044800,104.474403 
	C567.049194,105.666809 567.763855,106.856567 568.437561,108.415146 
z"/>
<path fill="#29316F" opacity="1.000000" stroke="none" 
	d="
M376.991516,9.168164 
	C388.345306,9.110636 399.699097,9.053106 411.390442,9.380474 
	C412.152252,13.289997 412.940521,16.814054 412.946045,20.339336 
	C413.024475,70.561493 412.997009,120.783821 412.954590,171.374161 
	C412.914093,173.667099 412.914093,175.591980 412.914093,177.734207 
	C415.095581,177.402527 416.384247,177.037140 417.673340,177.035553 
	C445.407349,177.001389 473.141388,177.013702 500.875427,176.999359 
	C504.397827,176.997543 506.021057,178.714355 506.008179,182.206451 
	C505.975739,191.008148 506.106903,199.813095 505.864166,208.608215 
	C505.832184,209.766708 503.999786,210.875519 502.532440,212.004959 
	C462.635132,212.001694 423.206573,211.988983 383.778076,212.035706 
	C381.857452,212.037979 379.937408,212.561447 378.017090,212.842224 
	C377.568848,212.890015 377.120605,212.937805 376.342896,212.459076 
	C376.009521,146.794861 375.994873,81.657173 376.043518,16.519527 
	C376.045349,14.068839 376.661560,11.618608 376.991516,9.168164 
z"/>
<path fill="#303466" opacity="1.000000" stroke="none" 
	d="
M922.070068,211.989029 
	C932.236511,211.992737 942.404785,211.882156 952.568481,212.052567 
	C957.061096,212.127853 959.136658,210.904739 959.100952,205.829422 
	C958.894287,176.498245 959.000000,147.164856 959.000000,117.832222 
	C959.000000,107.908775 959.130432,97.983131 958.963867,88.062477 
	C958.791077,77.768776 958.919800,67.407845 957.674744,57.228203 
	C957.242493,53.694073 958.332214,50.811985 958.445251,47.620937 
	C958.465027,47.061466 959.640381,46.542912 960.622803,45.998520 
	C960.786682,47.787560 960.455505,49.583527 960.455505,51.379501 
	C960.454712,103.436394 960.486938,155.493286 960.513733,207.550171 
	C960.514587,209.192444 960.513794,210.834702 960.513794,212.991730 
	C947.728271,212.991730 935.320862,212.991730 922.467041,212.704071 
	C922.020630,212.416397 922.070068,211.989029 922.070068,211.989029 
z"/>
<path fill="#22265D" opacity="1.000000" stroke="none" 
	d="
M376.660278,9.085320 
	C376.661560,11.618608 376.045349,14.068839 376.043518,16.519527 
	C375.994873,81.657173 376.009521,146.794861 376.009705,212.391495 
	C375.391754,211.659897 374.266388,210.478653 374.244537,209.277328 
	C374.078094,200.119675 374.113892,190.958099 374.111298,181.797745 
	C374.099487,139.826630 374.095612,97.855499 374.414795,55.091591 
	C374.573273,47.542797 374.405853,40.786785 374.238434,34.030777 
	C374.179688,26.981527 374.120941,19.932278 374.367371,12.213116 
	C374.780487,10.763725 374.888458,9.984248 374.996399,9.204769 
	C375.440613,9.137338 375.884827,9.069907 376.660278,9.085320 
z"/>
<path fill="#1B204F" opacity="1.000000" stroke="none" 
	d="
M922.050232,211.521790 
	C922.070068,211.989029 922.020630,212.416397 922.002441,212.630737 
	C921.519043,210.799255 920.651062,208.754166 920.647278,206.707474 
	C920.548462,153.791992 920.539612,100.876335 920.634949,47.511543 
	C921.169739,48.874729 921.945068,50.686577 921.947693,52.499519 
	C922.022522,105.351128 922.020264,158.202835 922.050232,211.521790 
z"/>
<path fill="#1C2350" opacity="1.000000" stroke="none" 
	d="
M529.546692,9.183149 
	C529.998596,76.720764 529.996765,144.318253 529.997070,212.373505 
	C529.611633,211.396103 528.887878,209.961716 528.884705,208.525711 
	C528.738831,142.890381 528.654114,77.254890 528.587708,11.619398 
	C528.586914,10.827443 528.917175,10.035161 529.546692,9.183149 
z"/>
<path fill="#313560" opacity="1.000000" stroke="none" 
	d="
M503.001221,212.007324 
	C503.999786,210.875519 505.832184,209.766708 505.864166,208.608215 
	C506.106903,199.813095 505.975739,191.008148 506.008179,182.206451 
	C506.021057,178.714355 504.397827,176.997543 500.875427,176.999359 
	C473.141388,177.013702 445.407349,177.001389 417.673340,177.035553 
	C416.384247,177.037140 415.095581,177.402527 412.914093,177.734207 
	C412.914093,175.591980 412.914093,173.667099 413.180664,171.371399 
	C413.447205,171.000580 413.899109,170.992950 413.899109,170.992950 
	C414.040375,172.442886 414.181641,173.892807 414.358368,175.706726 
	C445.415161,175.706726 476.291077,175.706726 507.524170,175.706726 
	C507.524170,188.139175 507.524170,200.191589 507.524170,212.677338 
	C506.312439,212.776901 505.081757,212.878021 503.425323,212.698883 
	C502.999542,212.418610 503.001221,212.007324 503.001221,212.007324 
z"/>
<path fill="#2E3160" opacity="1.000000" stroke="none" 
	d="
M246.460815,45.953705 
	C247.496414,45.235683 249.000580,44.063374 250.485077,44.087749 
	C260.088928,44.245449 269.689636,44.962349 279.289215,44.925983 
	C293.048035,44.873867 306.803772,44.178032 320.563293,44.068886 
	C327.437866,44.014359 334.317932,44.651497 341.847656,44.985489 
	C342.676361,44.998306 342.852936,45.001419 343.029480,45.004532 
	C341.747589,45.364704 340.466156,46.037281 339.183716,46.039284 
	C308.429321,46.087330 277.674805,46.063568 246.460815,45.953705 
z"/>
<path fill="#282B57" opacity="1.000000" stroke="none" 
	d="
M413.979767,170.530853 
	C413.899109,170.992950 413.447205,171.000580 413.221161,171.003342 
	C412.997009,120.783821 413.024475,70.561493 412.946045,20.339336 
	C412.940521,16.814054 412.152252,13.289997 411.849915,9.468273 
	C412.679688,10.251878 413.957581,11.311258 413.998901,12.416886 
	C414.203857,17.896982 414.077576,23.389284 414.076813,28.877285 
	C414.070282,75.941101 414.065643,123.004921 413.979767,170.530853 
z"/>
<path fill="#1D2157" opacity="1.000000" stroke="none" 
	d="
M246.164871,126.682106 
	C247.031296,126.049576 248.321014,125.070549 249.614044,125.066154 
	C275.053131,124.979515 300.492615,124.997955 325.931946,125.041695 
	C326.867798,125.043304 327.802856,125.517944 329.012756,126.147102 
	C301.721375,126.611176 274.155548,126.700287 246.164871,126.682106 
z"/>
<path fill="#517BA8" opacity="1.000000" stroke="none" 
	d="
M683.575439,190.054138 
	C681.985352,195.746902 680.098877,201.643585 678.213745,207.540710 
	C677.832703,208.732895 677.456726,209.926666 676.798645,212.001831 
	C683.204163,212.001831 688.933899,212.001923 694.663635,212.001816 
	C700.132812,212.001709 705.609924,212.162094 711.065796,211.892166 
	C712.492432,211.821594 714.539612,210.754166 715.131470,209.563065 
	C718.754333,202.271393 722.040466,194.812454 725.967651,187.200836 
	C726.665833,186.996094 726.835144,186.999756 727.004517,187.003418 
	C723.822571,194.857819 720.691956,202.733902 717.395325,210.539871 
	C716.971069,211.544388 715.693604,212.879990 714.798096,212.890198 
	C701.540283,213.041458 688.280151,212.994522 674.206360,212.994522 
	C677.416199,204.951065 680.347839,197.604645 683.575439,190.054138 
z"/>
<path fill="#282D5E" opacity="1.000000" stroke="none" 
	d="
M240.510681,9.059681 
	C240.216202,9.429626 239.471451,9.926903 238.707306,9.958771 
	C229.440262,10.345250 220.169632,10.911965 210.901535,10.884631 
	C206.810654,10.872565 205.908661,12.254711 205.931625,16.059862 
	C206.076157,40.002537 206.007797,63.946548 205.983932,87.890091 
	C205.982132,89.704056 205.780029,91.517815 205.407455,93.647438 
	C205.070831,66.059174 204.996674,38.155148 204.940186,10.251083 
	C204.939606,9.963196 205.171646,9.674835 205.473312,8.970768 
	C216.888504,8.970768 228.469971,8.970768 240.510681,9.059681 
z"/>
<path fill="#2E3060" opacity="1.000000" stroke="none" 
	d="
M502.532440,212.004959 
	C503.001221,212.007324 502.999542,212.418610 502.998566,212.624268 
	C469.618256,212.885223 436.238953,212.943817 402.859619,212.993484 
	C394.887604,213.005341 386.915558,212.987335 378.480286,212.912643 
	C379.937408,212.561447 381.857452,212.037979 383.778076,212.035706 
	C423.206573,211.988983 462.635132,212.001694 502.532440,212.004959 
z"/>
<path fill="#1D2157" opacity="1.000000" stroke="none" 
	d="
M331.398560,126.416733 
	C330.944183,116.584099 330.803101,106.596237 331.074860,96.619621 
	C331.180847,92.729195 329.724457,91.910721 326.145630,91.929817 
	C301.187225,92.063004 276.227722,92.019897 251.268707,91.974892 
	C249.335068,91.971405 247.402237,91.521942 245.277390,90.891754 
	C273.826508,90.503738 302.567230,90.503738 331.876862,90.503738 
	C331.876862,102.628563 331.876862,114.447281 331.398560,126.416733 
z"/>
<path fill="#2E3160" opacity="1.000000" stroke="none" 
	d="
M170.878601,164.162491 
	C172.019318,160.224960 172.874100,155.794708 174.837448,151.927200 
	C179.196472,143.340469 181.158188,134.192368 181.903625,124.784660 
	C182.408188,118.417061 181.960342,111.977257 182.073227,105.572121 
	C182.091766,104.520203 182.806671,103.480545 183.508667,102.232605 
	C186.058182,123.993843 181.874786,144.637314 170.878601,164.162491 
z"/>
<path fill="#1D2157" opacity="1.000000" stroke="none" 
	d="
M562.457520,212.884155 
	C563.426575,212.389847 564.820190,211.963409 566.998840,211.296753 
	C566.998840,209.805740 566.998840,208.053986 566.998779,206.302231 
	C566.998413,188.842133 566.983337,171.382019 567.019958,153.921997 
	C567.023743,152.126633 567.336609,150.331940 567.848694,148.290436 
	C568.263611,148.675766 568.335876,149.307602 568.233826,150.714523 
	C568.091614,151.805817 568.123718,152.122040 568.155762,152.438248 
	C568.250183,171.557953 568.344604,190.677673 568.231445,210.514771 
	C568.012329,211.711334 568.000671,212.190506 567.989014,212.669693 
	C566.286682,212.763809 564.584351,212.857925 562.457520,212.884155 
z"/>
<path fill="#537BAB" opacity="1.000000" stroke="none" 
	d="
M880.069336,208.596817 
	C878.369385,206.724442 876.109253,204.709244 875.027710,202.188385 
	C870.247925,191.047791 865.717285,179.796906 861.297241,168.507339 
	C859.920105,164.989899 859.174072,161.225342 858.260376,157.169525 
	C863.933228,169.788391 869.502258,182.804245 875.025940,195.839264 
	C876.763611,199.940109 878.379822,204.092453 880.069336,208.596817 
z"/>
<path fill="#202459" opacity="1.000000" stroke="none" 
	d="
M569.408813,146.839569 
	C569.523010,146.204590 570.109131,145.074371 570.695007,145.074524 
	C588.562256,145.079102 606.429443,145.194809 624.621826,145.541809 
	C606.591553,146.150681 588.236023,146.510956 569.408813,146.839569 
z"/>
<path fill="#4B7DB1" opacity="1.000000" stroke="none" 
	d="
M821.008118,168.385574 
	C822.101624,169.220642 823.638611,170.235367 824.272888,171.653809 
	C828.086426,180.182037 831.742981,188.782013 835.330383,197.408600 
	C836.139465,199.354324 836.352539,201.539291 837.034668,203.548004 
	C839.600769,211.104080 840.919067,211.993774 849.559448,212.218842 
	C850.002625,212.429016 850.001526,212.846069 850.001526,212.846069 
	C839.355713,213.409851 839.334595,213.418549 835.378052,203.800293 
	C830.575928,192.126083 825.813904,180.435364 821.008118,168.385574 
z"/>
<path fill="#4F78A6" opacity="1.000000" stroke="none" 
	d="
M799.410645,16.355663 
	C795.460754,8.840959 788.299255,9.698297 781.250427,9.964601 
	C776.104431,10.159018 770.945435,10.005374 765.792236,10.015573 
	C759.739014,10.027552 758.163940,11.628887 756.904114,17.446245 
	C756.352600,19.993296 754.579041,22.275700 752.983948,24.711262 
	C754.351807,20.125076 755.898682,15.414300 757.970886,10.947243 
	C758.531250,9.739497 760.677490,8.582584 762.104980,8.571467 
	C772.551086,8.490116 782.999695,8.803133 793.447205,8.787688 
	C798.584839,8.780093 797.901367,13.186673 799.410645,16.355663 
z"/>
<path fill="#2E3160" opacity="1.000000" stroke="none" 
	d="
M183.676849,99.598206 
	C182.767365,98.347221 181.548965,96.786186 181.090576,95.027092 
	C179.571259,89.196663 178.505447,83.244148 176.869278,77.450394 
	C176.356644,75.635139 174.128830,74.330772 173.510910,72.512291 
	C172.656296,69.997162 172.582016,67.216888 172.313004,64.095177 
	C178.760315,74.683777 181.957306,86.712799 183.676849,99.598206 
z"/>
<path fill="#527CA8" opacity="1.000000" stroke="none" 
	d="
M752.014099,28.006382 
	C748.901245,35.904202 745.890320,43.844360 742.635681,51.683346 
	C740.797119,56.111557 738.557800,60.373390 736.159546,64.820457 
	C740.745117,52.806522 745.670288,40.682320 751.057861,28.280945 
	C751.520264,28.003775 752.014099,28.006376 752.014099,28.006382 
z"/>
<path fill="#537DAA" opacity="1.000000" stroke="none" 
	d="
M819.016479,166.012863 
	C819.016479,166.012863 819.016785,166.447922 819.007690,166.665222 
	C794.661316,166.909195 770.324036,166.935867 745.848572,166.628891 
	C758.806885,166.196732 771.903442,166.098221 785.000000,165.999695 
	C793.943787,165.999603 802.888062,166.054047 811.830872,165.959244 
	C813.942871,165.936859 816.049561,165.412323 818.578857,165.318298 
	C818.999084,165.517807 819.016479,166.012863 819.016479,166.012863 
z"/>
<path fill="#1D2157" opacity="1.000000" stroke="none" 
	d="
M244.779480,89.502441 
	C244.164688,89.107559 243.090332,88.252243 243.082367,87.387093 
	C242.979584,76.239853 243.015869,65.091133 243.078201,53.943142 
	C243.081284,53.389427 243.645462,52.838852 244.312500,52.157124 
	C244.722946,64.364098 244.769257,76.700768 244.779480,89.502441 
z"/>
<path fill="#537DAA" opacity="1.000000" stroke="none" 
	d="
M832.167358,94.534302 
	C831.464722,94.286461 830.399902,93.799271 830.069153,93.006012 
	C825.430725,81.882271 820.885010,70.719780 816.350098,59.553150 
	C816.111084,58.964554 816.169739,58.255047 816.164856,57.194748 
	C821.542053,69.242668 826.844299,81.697662 832.167358,94.534302 
z"/>
<path fill="#2E3160" opacity="1.000000" stroke="none" 
	d="
M141.248840,28.043694 
	C138.014923,26.833096 134.521378,25.500732 131.164825,23.883904 
	C125.119118,20.971716 119.155487,17.889118 113.083694,14.542624 
	C122.356857,18.736265 131.703903,23.264990 141.248840,28.043694 
z"/>
<path fill="#527CA8" opacity="1.000000" stroke="none" 
	d="
M697.635925,157.036804 
	C695.692078,163.331528 693.650574,169.877167 691.104248,176.220108 
	C689.245605,180.850006 686.721985,185.212982 684.151367,189.804108 
	C688.312500,179.009125 692.817200,168.104980 697.635925,157.036804 
z"/>
<path fill="#1C2350" opacity="1.000000" stroke="none" 
	d="
M857.557373,9.214614 
	C858.002625,19.205303 858.159912,29.283068 857.929871,39.351986 
	C857.844055,43.109539 859.085815,44.259598 862.751404,44.110619 
	C865.736328,43.989304 868.755737,44.714359 871.871338,45.441414 
	C867.951416,45.860596 863.920105,45.902473 859.248657,45.655258 
	C858.073547,45.255894 857.538513,45.145622 857.003540,45.035351 
	C857.040894,33.122959 857.078308,21.210567 857.557373,9.214614 
z"/>
<path fill="#4F78A6" opacity="1.000000" stroke="none" 
	d="
M712.440918,120.983475 
	C711.788757,124.736794 711.377625,128.909592 709.782349,132.565720 
	C707.185791,138.516693 703.815125,144.129959 700.429932,149.938400 
	C704.109192,140.384338 708.129761,130.777634 712.440918,120.983475 
z"/>
<path fill="#2D315B" opacity="1.000000" stroke="none" 
	d="
M677.595215,106.064545 
	C678.289734,100.844757 679.386902,95.399940 680.151367,89.908806 
	C680.942566,84.225708 681.410950,78.497665 682.036133,72.327103 
	C681.928833,79.107140 682.220215,86.389442 681.524353,93.576157 
	C681.121521,97.736694 679.128845,101.743286 677.595215,106.064545 
z"/>
<path fill="#4B7DB1" opacity="1.000000" stroke="none" 
	d="
M784.702332,165.707153 
	C771.903442,166.098221 758.806885,166.196732 745.391113,166.546097 
	C742.991211,166.858002 740.910461,166.919052 738.225586,166.690765 
	C737.080688,165.947708 736.539978,165.494003 735.999207,165.040283 
	C752.134338,165.165070 768.269531,165.289856 784.702332,165.707153 
z"/>
<path fill="#2E3160" opacity="1.000000" stroke="none" 
	d="
M163.331421,49.235565 
	C161.734879,48.406338 159.727509,47.538013 158.323196,46.086319 
	C153.786942,41.397026 149.472473,36.493176 145.044708,31.319550 
	C151.076813,36.954514 157.136765,42.941940 163.331421,49.235565 
z"/>
<path fill="#282C59" opacity="1.000000" stroke="none" 
	d="
M340.004883,176.997559 
	C322.884155,176.879807 305.763458,176.762054 288.338379,176.365463 
	C305.051910,176.018127 322.069763,175.949646 339.546021,176.210037 
	C340.004425,176.538910 340.004883,176.997559 340.004883,176.997559 
z"/>
<path fill="#537DAA" opacity="1.000000" stroke="none" 
	d="
M853.312134,144.439575 
	C851.506592,141.434464 849.426270,138.156265 847.900391,134.637680 
	C845.760803,129.704208 844.033630,124.591873 842.235352,119.158630 
	C845.988708,127.193878 849.636780,135.626541 853.312134,144.439575 
z"/>
<path fill="#4F78A6" opacity="1.000000" stroke="none" 
	d="
M816.260437,56.406105 
	C815.083252,55.923496 813.193665,55.323997 812.773499,54.183258 
	C810.651855,48.422974 808.912781,42.521790 807.070068,36.266991 
	C810.142334,42.589165 813.184021,49.314384 816.260437,56.406105 
z"/>
<path fill="#537DAA" opacity="1.000000" stroke="none" 
	d="
M842.362061,118.375656 
	C841.357971,117.355347 839.979858,116.096558 839.341003,114.535278 
	C836.785217,108.289406 834.459167,101.949539 832.089722,95.247200 
	C835.530090,102.566025 838.928955,110.282089 842.362061,118.375656 
z"/>
<path fill="#20244C" opacity="1.000000" stroke="none" 
	d="
M340.435913,176.999466 
	C340.004883,176.997559 340.004425,176.538910 340.005951,176.309586 
	C341.955994,176.080261 343.904541,176.080261 345.857239,176.080261 
	C345.857239,188.419067 345.857239,200.531601 345.425049,212.736115 
	C344.991638,202.294830 344.897614,191.760254 345.045715,181.229111 
	C345.090088,178.074478 344.181702,176.517715 340.435913,176.999466 
z"/>
<path fill="#373A60" opacity="1.000000" stroke="none" 
	d="
M671.186523,39.511936 
	C667.177673,35.427563 663.119934,30.989555 659.034668,26.195633 
	C663.050598,30.279243 667.094116,34.718773 671.186523,39.511936 
z"/>
<path fill="#537DAA" opacity="1.000000" stroke="none" 
	d="
M720.625366,101.193863 
	C720.571777,102.686180 720.541260,104.521751 719.886719,106.098221 
	C717.848328,111.007423 715.573608,115.818497 713.014038,120.713066 
	C715.212646,114.311859 717.787842,107.865219 720.625366,101.193863 
z"/>
<path fill="#212553" opacity="1.000000" stroke="none" 
	d="
M343.125122,44.543900 
	C342.852936,45.001419 342.676361,44.998306 342.234619,44.990135 
	C341.864929,33.722767 341.753082,22.460495 341.688507,11.197956 
	C341.686371,10.828075 342.164337,10.455448 342.757324,10.023594 
	C343.137665,21.336479 343.179199,32.709873 343.125122,44.543900 
z"/>
<path fill="#537BAB" opacity="1.000000" stroke="none" 
	d="
M850.465576,212.914398 
	C850.001526,212.846069 850.002625,212.429016 850.005005,212.220642 
	C860.070007,211.785934 870.132751,211.559586 880.572021,211.157410 
	C882.142578,214.395584 879.258728,212.935669 878.272644,212.947906 
	C869.159607,213.061066 860.044250,212.995987 850.465576,212.914398 
z"/>
<path fill="#282C59" opacity="1.000000" stroke="none" 
	d="
M273.505707,176.022827 
	C269.276031,176.400940 264.589447,176.857727 259.895538,176.953247 
	C255.472107,177.043289 251.040939,176.752747 246.315948,176.339417 
	C255.027695,176.014053 264.036652,175.978882 273.505707,176.022827 
z"/>
<path fill="#2D315B" opacity="1.000000" stroke="none" 
	d="
M681.979248,69.649094 
	C680.930969,65.554108 679.979492,61.126118 679.049683,56.260071 
	C680.072876,60.320042 681.074463,64.818069 681.979248,69.649094 
z"/>
<path fill="#527CA8" opacity="1.000000" stroke="none" 
	d="
M732.424072,72.968796 
	C731.266296,76.740265 729.822754,80.708099 728.004456,84.721451 
	C729.132568,80.899704 730.635498,77.032440 732.424072,72.968796 
z"/>
<path fill="#2E3160" opacity="1.000000" stroke="none" 
	d="
M152.434357,186.146896 
	C154.353134,183.956253 156.616745,181.700775 159.202011,179.648499 
	C157.275513,181.928482 155.027359,184.005264 152.434357,186.146896 
z"/>
<path fill="#29316F" opacity="1.000000" stroke="none" 
	d="
M374.141113,34.487984 
	C374.405853,40.786785 374.573273,47.542797 374.496002,54.626411 
	C374.182129,48.284409 374.112946,41.614799 374.141113,34.487984 
z"/>
<path fill="#537DAA" opacity="1.000000" stroke="none" 
	d="
M729.511597,180.996353 
	C730.365417,177.916565 731.497742,174.626770 733.007690,171.293060 
	C732.186890,174.428223 730.988464,177.607285 729.511597,180.996353 
z"/>
<path fill="#4F78A6" opacity="1.000000" stroke="none" 
	d="
M805.117981,30.541529 
	C803.765930,27.843632 802.394104,24.768209 801.060059,21.283962 
	C802.431213,23.971426 803.764709,27.067715 805.117981,30.541529 
z"/>
<path fill="#373A60" opacity="1.000000" stroke="none" 
	d="
M676.822388,48.655174 
	C675.569702,46.887142 674.295776,44.775284 673.040894,42.285675 
	C674.306946,44.042397 675.554077,46.176872 676.822388,48.655174 
z"/>
<path fill="#537DAA" opacity="1.000000" stroke="none" 
	d="
M735.684204,165.194061 
	C736.539978,165.494003 737.080688,165.947708 737.786499,166.614868 
	C736.592346,168.171310 735.233215,169.514328 733.602600,171.050903 
	C734.010437,169.278915 734.689758,167.313385 735.684204,165.194061 
z"/>
<path fill="#537BAB" opacity="1.000000" stroke="none" 
	d="
M858.391479,156.317108 
	C857.327454,154.626205 856.227966,152.582932 855.237854,150.151337 
	C856.350159,151.830246 857.353088,153.897491 858.391479,156.317108 
z"/>
<path fill="#527CA8" opacity="1.000000" stroke="none" 
	d="
M735.612976,65.092911 
	C735.044617,67.448174 734.203735,70.028397 733.008057,72.714645 
	C733.548950,70.319740 734.444702,67.818810 735.612976,65.092911 
z"/>
<path fill="#2E3160" opacity="1.000000" stroke="none" 
	d="
M172.391449,63.281559 
	C171.335068,61.950684 170.188721,60.294338 169.063995,58.258339 
	C170.157562,59.571152 171.229507,61.263622 172.391449,63.281559 
z"/>
<path fill="#527CA8" opacity="1.000000" stroke="none" 
	d="
M725.654785,89.100639 
	C725.256897,90.871719 724.592346,92.850449 723.589111,94.899948 
	C723.963013,93.083237 724.675476,91.195763 725.654785,89.100639 
z"/>
<path fill="#537DAA" opacity="1.000000" stroke="none" 
	d="
M727.219849,186.730469 
	C726.835144,186.999756 726.665833,186.996094 726.242432,186.982819 
	C726.871704,185.105118 727.755066,183.237061 728.969666,181.252869 
	C728.679016,182.910355 728.057129,184.683945 727.219849,186.730469 
z"/>
<path fill="#2E3160" opacity="1.000000" stroke="none" 
	d="
M162.677551,176.206512 
	C163.155518,174.998749 163.896896,173.621048 165.030853,172.344299 
	C164.595963,173.642349 163.768463,174.839462 162.677551,176.206512 
z"/>
<path fill="#2D315B" opacity="1.000000" stroke="none" 
	d="
M662.363098,128.019379 
	C662.998474,126.866104 663.934448,125.613472 665.183899,124.519989 
	C664.552795,125.759430 663.608276,126.839722 662.363098,128.019379 
z"/>
<path fill="#2D315B" opacity="1.000000" stroke="none" 
	d="
M666.862732,123.267181 
	C667.249634,122.332733 667.883057,121.215935 668.905029,120.097198 
	C668.565552,121.091774 667.837402,122.088303 666.862732,123.267181 
z"/>
<path fill="#2D315B" opacity="1.000000" stroke="none" 
	d="
M674.595581,112.108902 
	C674.802612,110.997253 675.268799,109.684792 676.126953,108.375610 
	C675.964294,109.555290 675.409607,110.731682 674.595581,112.108902 
z"/>
<path fill="#2E3160" opacity="1.000000" stroke="none" 
	d="
M144.879517,30.708599 
	C143.841476,30.366798 142.647308,29.752703 141.551086,28.774109 
	C142.673813,29.085176 143.698608,29.760738 144.879517,30.708599 
z"/>
<path fill="#1D2157" opacity="1.000000" stroke="none" 
	d="
M244.772385,49.613457 
	C244.497543,49.037445 244.303131,48.096779 244.407837,47.089806 
	C244.755554,47.765266 244.804184,48.507034 244.772385,49.613457 
z"/>
<path fill="#527CA8" opacity="1.000000" stroke="none" 
	d="
M727.420532,84.970779 
	C727.311951,86.083221 726.930298,87.387367 726.209473,88.826187 
	C726.295959,87.694725 726.721741,86.428604 727.420532,84.970779 
z"/>
<path fill="#2E3160" opacity="1.000000" stroke="none" 
	d="
M167.299225,169.878128 
	C167.576096,168.796783 168.107437,167.523331 169.024933,166.318542 
	C168.791962,167.486816 168.172836,168.586411 167.299225,169.878128 
z"/>
<path fill="#2D315B" opacity="1.000000" stroke="none" 
	d="
M672.334900,115.909447 
	C672.602417,114.850807 673.130920,113.594284 674.028320,112.295029 
	C673.796753,113.405396 673.196289,114.558479 672.334900,115.909447 
z"/>
<path fill="#4F78A6" opacity="1.000000" stroke="none" 
	d="
M801.155029,20.604519 
	C800.485046,19.794788 799.806641,18.642054 799.245239,17.123875 
	C799.957031,17.926125 800.551819,19.093819 801.155029,20.604519 
z"/>
<path fill="#2E3160" opacity="1.000000" stroke="none" 
	d="
M167.451447,54.998409 
	C166.752777,54.371185 165.928818,53.470669 165.110657,52.203529 
	C165.853027,52.799641 166.589600,53.762379 167.451447,54.998409 
z"/>
<path fill="#537DAA" opacity="1.000000" stroke="none" 
	d="
M853.984436,148.007462 
	C853.691711,147.162994 853.398987,146.318527 853.196960,145.119339 
	C853.807495,145.634689 854.327332,146.504761 854.640381,147.688446 
	C854.433594,148.002045 853.984436,148.007462 853.984436,148.007462 
z"/>
<path fill="#2E3160" opacity="1.000000" stroke="none" 
	d="
M169.084824,57.649826 
	C168.542786,57.357422 167.968002,56.786793 167.578857,55.895027 
	C168.193695,56.173126 168.622879,56.772362 169.084824,57.649826 
z"/>
<path fill="#2E3160" opacity="1.000000" stroke="none" 
	d="
M165.701599,172.219818 
	C165.760712,171.635818 166.058578,170.881668 166.710129,170.081848 
	C166.689331,170.707352 166.314850,171.378525 165.701599,172.219818 
z"/>
<path fill="#4F78A6" opacity="1.000000" stroke="none" 
	d="
M752.151733,27.692989 
	C752.014099,28.006376 751.520264,28.003775 751.273315,28.002888 
	C751.391357,27.031824 751.756348,26.061647 752.393555,24.927969 
	C752.540405,25.636177 752.414856,26.507889 752.151733,27.692989 
z"/>
<path fill="#2E3160" opacity="1.000000" stroke="none" 
	d="
M160.061554,179.314331 
	C160.134155,178.743225 160.416275,178.023514 161.081223,177.412384 
	C161.066391,178.069214 160.668716,178.617477 160.061554,179.314331 
z"/>
<path fill="#29316F" opacity="1.000000" stroke="none" 
	d="
M374.660156,9.257256 
	C374.888458,9.984248 374.780487,10.763725 374.458801,11.749826 
	C374.271393,11.074214 374.297668,10.191978 374.660156,9.257256 
z"/>
<path fill="#2E3160" opacity="1.000000" stroke="none" 
	d="
M165.109756,51.624947 
	C164.570312,51.351437 163.967133,50.784145 163.414459,49.887421 
	C163.991974,50.149048 164.518997,50.740105 165.109756,51.624947 
z"/>
<path fill="#4F78A6" opacity="1.000000" stroke="none" 
	d="
M806.455811,33.392761 
	C805.976929,33.022114 805.503357,32.320095 805.060181,31.250406 
	C805.547485,31.608955 806.004395,32.335175 806.455811,33.392761 
z"/>
<path fill="#29316E" opacity="1.000000" stroke="none" 
	d="
M857.053833,45.358826 
	C857.538513,45.145622 858.073547,45.255894 858.789795,45.575653 
	C858.348755,45.750858 857.726379,45.716579 857.053833,45.358826 
z"/>
<path fill="#29316E" opacity="1.000000" stroke="none" 
	d="
M568.236572,212.594696 
	C568.000671,212.190506 568.012329,211.711334 568.105835,210.878723 
	C568.286499,211.190094 568.385254,211.854889 568.236572,212.594696 
z"/>
<path fill="#4F78A6" opacity="1.000000" stroke="none" 
	d="
M807.144165,35.643044 
	C806.829590,35.441376 806.498413,34.929050 806.275024,34.095764 
	C806.631042,34.293999 806.879333,34.813194 807.144165,35.643044 
z"/>
<path fill="#2D315B" opacity="1.000000" stroke="none" 
	d="
M676.700439,108.147858 
	C676.569031,107.705536 676.655090,107.057991 677.088013,106.321472 
	C677.262512,106.802544 677.090210,107.372589 676.700439,108.147858 
z"/>
<path fill="#537BAB" opacity="1.000000" stroke="none" 
	d="
M854.024353,148.326614 
	C853.984436,148.007462 854.433594,148.002045 854.658142,148.000854 
	C855.055176,148.367569 855.227661,148.735458 855.414795,149.406555 
	C854.974426,149.355087 854.519348,149.000427 854.024353,148.326614 
z"/>
<path fill="#2D315B" opacity="1.000000" stroke="none" 
	d="
M670.290405,118.941895 
	C670.259216,118.514511 670.489868,117.935936 671.036499,117.274643 
	C671.085693,117.724846 670.818909,118.257774 670.290405,118.941895 
z"/>
<path fill="#2E3160" opacity="1.000000" stroke="none" 
	d="
M169.655762,166.193802 
	C169.578003,165.728287 169.729446,165.110046 170.236603,164.524536 
	C170.356506,165.051880 170.120728,165.546478 169.655762,166.193802 
z"/>
<path fill="#373A60" opacity="1.000000" stroke="none" 
	d="
M673.067627,41.692352 
	C672.827820,41.722347 672.565796,41.477165 672.292419,40.953575 
	C672.535889,40.922504 672.790710,41.169838 673.067627,41.692352 
z"/>
<path fill="#373A60" opacity="1.000000" stroke="none" 
	d="
M672.219360,40.474487 
	C671.992859,40.585182 671.657593,40.446877 671.228882,40.040413 
	C671.460449,39.923332 671.785522,40.074406 672.219360,40.474487 
z"/>
<path fill="#4B7DB1" opacity="1.000000" stroke="none" 
	d="
M820.101196,167.219116 
	C820.295349,167.106659 820.567749,167.286331 820.878235,167.793732 
	C820.712769,167.846542 820.467163,167.643143 820.101196,167.219116 
z"/>
<path fill="#2D315B" opacity="1.000000" stroke="none" 
	d="
M665.855347,124.355957 
	C665.745361,124.118172 665.820129,123.782074 666.192139,123.505859 
	C666.421204,123.849358 666.271484,124.079994 665.855347,124.355957 
z"/>
<path fill="#2E3160" opacity="1.000000" stroke="none" 
	d="
M161.720139,177.319824 
	C161.607574,177.088867 161.714218,176.740280 162.120438,176.371078 
	C162.367676,176.695236 162.207443,176.979141 161.720139,177.319824 
z"/>
<path fill="#29316E" opacity="1.000000" stroke="none" 
	d="
M568.302429,152.222809 
	C568.123718,152.122040 568.091614,151.805817 568.112061,151.013687 
	C568.259399,151.027634 568.354248,151.517502 568.302429,152.222809 
z"/>
<path fill="#2D315B" opacity="1.000000" stroke="none" 
	d="
M671.481689,117.187012 
	C671.359314,116.974350 671.484497,116.636490 671.858154,116.172928 
	C671.980774,116.385429 671.854919,116.723625 671.481689,117.187012 
z"/>
<path fill="#FAFAFB" opacity="1.000000" stroke="none" 
	d="
M138.611710,140.902176 
	C134.456741,147.026230 130.957550,153.756073 125.992073,159.131424 
	C118.664688,167.063660 108.765846,171.150772 98.407593,173.905106 
	C96.491379,174.414658 94.505043,174.660568 91.748199,175.145920 
	C82.125008,175.461441 73.305069,175.792480 64.484261,175.817017 
	C56.677113,175.838730 48.869015,175.519318 41.061333,175.350494 
	C41.061333,175.350494 41.248047,175.224426 41.277153,174.863693 
	C41.241642,174.337402 41.177029,174.171844 41.249672,173.554169 
	C41.308800,131.051041 41.230671,89.000061 41.152542,46.949070 
	C41.152542,46.949070 41.195229,46.849026 41.587570,46.729527 
	C56.647301,46.663628 71.314690,46.717224 85.982079,46.770824 
	C97.993721,48.358658 109.481430,51.381111 119.723038,59.166313 
	C120.134697,59.389782 120.445404,59.479523 120.445404,59.479523 
	C120.445404,59.479523 120.536278,59.424347 120.698166,59.732376 
	C121.833344,60.790333 122.806648,61.540268 123.779953,62.290199 
	C123.779953,62.290199 123.832359,62.152977 123.864777,62.427620 
	C124.214172,62.903133 124.531151,63.103996 124.848129,63.304859 
	C124.848129,63.304859 124.885452,63.116325 124.899948,63.406937 
	C125.239365,63.931507 125.564278,64.165466 125.889191,64.399429 
	C125.861992,64.695312 125.979225,64.913643 126.575699,65.400482 
	C128.568527,67.658127 130.226562,69.569695 131.884583,71.481270 
	C131.802521,71.711960 131.860397,71.899490 132.328629,72.386215 
	C133.021561,73.221176 133.444061,73.713768 133.866577,74.206367 
	C133.866577,74.206367 133.900482,74.085060 133.894638,74.361954 
	C134.137238,74.901497 134.385681,75.164146 134.634125,75.426804 
	C134.634125,75.426804 134.636719,75.235420 134.656403,75.572571 
	C135.049362,76.360603 135.422623,76.811485 135.795883,77.262367 
	C135.795883,77.262367 135.837311,77.127434 135.810394,77.391327 
	C135.987350,77.916969 136.191208,78.178719 136.395065,78.440475 
	C136.395065,78.440475 136.398361,78.531464 136.489441,78.892792 
	C137.584091,81.283554 138.587662,83.312981 139.591217,85.342407 
	C139.591217,85.342407 139.553635,85.190689 139.565765,85.621422 
	C140.336334,87.922768 141.094772,89.793381 141.853210,91.663986 
	C141.853226,91.663986 141.678574,91.682854 141.713928,92.202881 
	C145.857117,109.118286 145.025223,125.191978 138.611710,140.902176 
z"/>
<path fill="#1C1E50" opacity="1.000000" stroke="none" 
	d="
M40.825359,47.223640 
	C41.230671,89.000061 41.308800,131.051041 40.974312,173.550446 
	C40.378113,173.997803 40.194534,173.996719 40.010952,173.995621 
	C40.008347,133.460281 39.999985,92.924950 40.024071,52.389622 
	C40.025040,50.759060 40.333164,49.128674 40.825359,47.223640 
z"/>
<path fill="#212553" opacity="1.000000" stroke="none" 
	d="
M138.975357,140.813263 
	C145.025223,125.191978 145.857117,109.118286 141.707901,92.290512 
	C143.087952,96.823448 145.345444,101.719963 145.760849,106.768074 
	C146.693329,118.099785 145.015335,129.229462 140.463821,139.783157 
	C140.290939,140.184036 139.722900,140.414474 138.975357,140.813263 
z"/>
<path fill="#1C2350" opacity="1.000000" stroke="none" 
	d="
M85.861832,46.397709 
	C71.314690,46.717224 56.647301,46.663628 41.545921,46.694553 
	C42.143478,46.184689 43.170788,45.081711 44.207214,45.073071 
	C57.346455,44.963589 70.487091,44.995983 83.627022,45.062099 
	C84.333466,45.065655 85.036797,45.689499 85.861832,46.397709 
z"/>
<path fill="#212553" opacity="1.000000" stroke="none" 
	d="
M41.239567,175.759033 
	C48.869015,175.519318 56.677113,175.838730 64.484261,175.817017 
	C73.305069,175.792480 82.125008,175.461441 91.408417,175.282150 
	C90.992340,175.862106 90.115257,176.909164 89.233711,176.912933 
	C73.713219,176.979248 58.192162,176.923828 42.671406,176.854858 
	C42.252529,176.853012 41.835625,176.406647 41.239567,175.759033 
z"/>
<path fill="#212553" opacity="1.000000" stroke="none" 
	d="
M131.913544,71.077965 
	C130.226562,69.569695 128.568527,67.658127 126.769394,65.428726 
	C128.399689,66.965477 130.171097,68.820068 131.913544,71.077965 
z"/>
<path fill="#212553" opacity="1.000000" stroke="none" 
	d="
M139.711548,84.945526 
	C138.587662,83.312981 137.584091,81.283554 136.474060,78.935638 
	C137.522339,80.594307 138.677109,82.571480 139.711548,84.945526 
z"/>
<path fill="#212553" opacity="1.000000" stroke="none" 
	d="
M141.887756,91.228317 
	C141.094772,89.793381 140.336334,87.922768 139.511978,85.678131 
	C140.271484,87.133621 141.096893,88.963135 141.887756,91.228317 
z"/>
<path fill="#212553" opacity="1.000000" stroke="none" 
	d="
M123.822021,61.902996 
	C122.806648,61.540268 121.833344,60.790333 120.693901,59.785358 
	C121.639870,60.192139 122.751984,60.853966 123.822021,61.902996 
z"/>
<path fill="#212553" opacity="1.000000" stroke="none" 
	d="
M135.822968,76.909706 
	C135.422623,76.811485 135.049362,76.360603 134.576416,75.625084 
	C134.934494,75.745979 135.392258,76.151512 135.822968,76.909706 
z"/>
<path fill="#212553" opacity="1.000000" stroke="none" 
	d="
M133.859543,73.836792 
	C133.444061,73.713768 133.021561,73.221176 132.482788,72.416718 
	C132.861847,72.558975 133.357178,73.013092 133.859543,73.836792 
z"/>
<path fill="#212553" opacity="1.000000" stroke="none" 
	d="
M120.541534,59.289604 
	C120.445404,59.479523 120.134697,59.389782 120.061775,59.245590 
	C120.205124,59.100830 120.421394,59.100258 120.541534,59.289604 
z"/>
<path fill="#212553" opacity="1.000000" stroke="none" 
	d="
M124.768387,63.017498 
	C124.531151,63.103996 124.214172,62.903133 123.791641,62.434341 
	C124.020279,62.354324 124.354462,62.542229 124.768387,63.017498 
z"/>
<path fill="#212553" opacity="1.000000" stroke="none" 
	d="
M125.798004,64.099625 
	C125.564278,64.165466 125.239365,63.931507 124.804001,63.412148 
	C125.031303,63.351105 125.369064,63.575459 125.798004,64.099625 
z"/>
<path fill="#212553" opacity="1.000000" stroke="none" 
	d="
M134.642838,75.126770 
	C134.385681,75.164146 134.137238,74.901497 133.831696,74.364090 
	C134.066910,74.335136 134.359238,74.580933 134.642838,75.126770 
z"/>
<path fill="#212553" opacity="1.000000" stroke="none" 
	d="
M40.137180,174.230667 
	C40.194534,173.996719 40.378113,173.997803 40.837051,174.002579 
	C41.177029,174.171844 41.241642,174.337402 41.234528,174.759430 
	C40.862999,174.832504 40.563206,174.649109 40.137180,174.230667 
z"/>
<path fill="#212553" opacity="1.000000" stroke="none" 
	d="
M136.488403,78.151413 
	C136.191208,78.178719 135.987350,77.916969 135.740479,77.400894 
	C135.992218,77.385155 136.286987,77.623749 136.488403,78.151413 
z"/>
<path fill="#303466" opacity="1.000000" stroke="none" 
	d="
M956.546814,48.470367 
	C956.577271,48.522606 956.516357,48.418133 956.546814,48.470367 
z"/>
<path fill="#F8FBFC" opacity="1.000000" stroke="none" 
	d="
M761.062622,102.003189 
	C761.062622,102.003181 761.238342,101.774765 761.446533,101.439514 
	C761.761414,100.733887 761.868042,100.363518 762.185303,99.715355 
	C766.645142,88.654335 770.894287,77.871109 775.143433,67.087875 
	C775.143433,67.087868 775.062256,67.046684 775.305054,66.992310 
	C775.650696,66.638557 775.753601,66.339172 775.856506,66.039810 
	C776.195740,65.555260 776.534912,65.070694 777.305481,64.385529 
	C779.817932,68.218605 782.124451,72.153824 783.937744,76.304482 
	C789.294189,88.565773 794.455566,100.912247 799.693237,113.225403 
	C799.693237,113.225403 799.626282,113.264961 799.636719,113.632202 
	C800.098511,114.999123 800.549744,115.998810 801.000977,116.998505 
	C801.156433,117.552254 801.311890,118.106003 801.702759,119.207840 
	C802.856323,121.582855 803.774597,123.409790 804.692810,125.236725 
	C804.692810,125.236725 804.640564,125.134399 804.661011,125.529907 
	C805.127441,126.951675 805.573486,127.977936 806.019470,129.004196 
	C806.039673,129.491089 806.059875,129.977966 805.797974,130.842865 
	C805.515930,131.220886 805.090698,131.473267 804.629944,131.357681 
	C792.455444,131.239792 780.741699,131.237503 768.567078,131.136795 
	C762.108032,131.038376 756.109863,131.038376 749.630737,131.038376 
	C753.700073,120.703011 757.381348,111.353104 761.062622,102.003189 
z"/>
<path fill="#527CAA" opacity="1.000000" stroke="none" 
	d="
M799.786743,112.828690 
	C794.455566,100.912247 789.294189,88.565773 783.937744,76.304482 
	C782.124451,72.153824 779.817932,68.218605 777.399719,64.101044 
	C777.215393,63.128147 777.368103,62.239143 777.520874,61.350143 
	C778.314270,61.680382 779.582214,61.804272 779.829224,62.372131 
	C782.982544,69.623077 786.011780,76.928490 789.027283,84.238731 
	C791.865479,91.119102 794.696899,98.003082 797.432678,104.924446 
	C798.398438,107.367706 799.072876,109.926132 799.786743,112.828690 
z"/>
<path fill="#5984B0" opacity="1.000000" stroke="none" 
	d="
M760.707642,102.059624 
	C757.381348,111.353104 753.700073,120.703011 749.630737,131.038376 
	C756.109863,131.038376 762.108032,131.038376 768.570190,131.336029 
	C769.034180,131.633682 769.026306,132.032227 769.026306,132.032227 
	C763.237000,132.316391 757.447144,132.590302 751.658569,132.888855 
	C748.541626,133.049606 746.701355,130.480957 748.303162,126.895645 
	C752.047791,118.514313 756.303772,110.361443 760.707642,102.059624 
z"/>
<path fill="#3D74B1" opacity="1.000000" stroke="none" 
	d="
M769.322205,132.321075 
	C769.026306,132.032227 769.034180,131.633682 769.031067,131.434448 
	C780.741699,131.237503 792.455444,131.239792 804.740845,131.498138 
	C805.510132,131.895920 805.726013,131.999573 805.960144,132.065186 
	C805.229126,132.375305 804.496338,132.959106 803.767273,132.954605 
	C792.383911,132.884537 781.001099,132.738480 769.322205,132.321075 
z"/>
<path fill="#527CA8" opacity="1.000000" stroke="none" 
	d="
M774.775391,67.114014 
	C770.894287,77.871109 766.645142,88.654335 761.944702,99.721077 
	C761.493469,100.004593 761.012207,100.016685 761.012207,100.016678 
	C765.477234,89.057838 769.942261,78.098999 774.775391,67.114014 
z"/>
<path fill="#527CAA" opacity="1.000000" stroke="none" 
	d="
M804.795410,124.803665 
	C803.774597,123.409790 802.856323,121.582855 801.922241,119.401596 
	C806.379211,118.868462 804.693359,122.150764 804.795410,124.803665 
z"/>
<path fill="#527CAA" opacity="1.000000" stroke="none" 
	d="
M801.270508,116.764839 
	C800.549744,115.998810 800.098511,114.999123 799.630737,113.670639 
	C800.256165,114.404945 800.898132,115.468063 801.270508,116.764839 
z"/>
<path fill="#527CAA" opacity="1.000000" stroke="none" 
	d="
M806.257935,129.014832 
	C805.573486,127.977936 805.127441,126.951675 804.652405,125.586716 
	C805.419922,126.249702 806.216431,127.251396 807.007507,128.626678 
	C807.002075,129.000290 806.973755,129.033890 806.973755,129.033890 
	C806.973755,129.033890 806.496399,129.025467 806.257935,129.014832 
z"/>
<path fill="#527CA8" opacity="1.000000" stroke="none" 
	d="
M775.660034,66.168823 
	C775.753601,66.339172 775.650696,66.638557 775.310181,67.037544 
	C775.098328,66.808601 775.228638,66.528839 775.660034,66.168823 
z"/>
<path fill="#5984B0" opacity="1.000000" stroke="none" 
	d="
M805.983521,131.847641 
	C805.726013,131.999573 805.510132,131.895920 805.201599,131.613739 
	C805.090698,131.473267 805.515930,131.220886 805.762207,131.206696 
	C806.008545,131.192520 806.006836,131.630096 805.983521,131.847641 
z"/>
<path fill="#527CAA" opacity="1.000000" stroke="none" 
	d="
M807.018982,128.986267 
	C807.146912,129.125854 807.257874,129.279480 807.368896,129.433090 
	C807.278992,129.388565 807.189026,129.344040 807.036438,129.166687 
	C806.973755,129.033890 807.002075,129.000290 807.018982,128.986267 
z"/>
<path fill="#5984B0" opacity="1.000000" stroke="none" 
	d="
M761.044678,100.386711 
	C761.012207,100.016685 761.493469,100.004593 761.734070,99.998871 
	C761.868042,100.363518 761.761414,100.733887 761.430359,101.296326 
	C761.163025,101.244499 761.120056,101.000618 761.044678,100.386711 
z"/>
<path fill="#4B7DB1" opacity="1.000000" stroke="none" 
	d="
M819.177917,165.919189 
	C819.016479,166.012863 818.999084,165.517807 818.993713,165.270447 
	C819.105347,165.290573 819.222351,165.558044 819.177917,165.919189 
z"/>
<path fill="#F9F9FB" opacity="1.000000" stroke="none" 
	d="
M568.303894,46.865719 
	C568.552063,46.850468 568.736755,46.734245 569.373169,46.369614 
	C571.704712,46.222500 573.521240,46.207237 575.337402,46.225616 
	C589.856628,46.372547 604.375793,46.525845 618.895020,46.677185 
	C635.152832,50.683788 644.478699,65.302742 643.040344,81.654327 
	C641.721924,96.641846 630.166199,107.660370 613.114990,109.154655 
	C597.901184,109.181023 583.456177,109.166374 569.011169,109.151733 
	C568.855042,108.878868 568.663818,108.633339 568.400024,107.769745 
	C568.343018,87.038132 568.323486,66.951927 568.303894,46.865719 
z"/>
<path fill="#222761" opacity="1.000000" stroke="none" 
	d="
M569.119873,109.533981 
	C583.456177,109.166374 597.901184,109.181023 612.771362,109.272018 
	C612.104980,109.897461 611.017456,110.914879 609.921326,110.924171 
	C597.042664,111.033379 584.162537,111.007835 571.283203,110.943558 
	C570.596680,110.940132 569.913391,110.273903 569.119873,109.533981 
z"/>
<path fill="#1D2157" opacity="1.000000" stroke="none" 
	d="
M567.952454,47.132088 
	C568.323486,66.951927 568.343018,87.038132 568.255371,107.585953 
	C567.763855,106.856567 567.049194,105.666809 567.044800,104.474403 
	C566.977112,86.234505 566.994751,67.994232 567.030762,49.754128 
	C567.032288,48.968529 567.402527,48.183662 567.952454,47.132088 
z"/>
<path fill="#222651" opacity="1.000000" stroke="none" 
	d="
M618.733887,46.266922 
	C604.375793,46.525845 589.856628,46.372547 575.337402,46.225616 
	C573.521240,46.207237 571.704712,46.222500 569.415894,46.206268 
	C570.130859,45.789509 571.316467,45.046272 572.506042,45.039917 
	C586.951172,44.962708 601.396973,44.978466 615.842346,45.033894 
	C616.753479,45.037392 617.662720,45.570133 618.733887,46.266922 
z"/>
</svg>