<svg version="1.1" id="Layer_1" xmlns="http://www.w3.org/2000/svg" xmlns:xlink="http://www.w3.org/1999/xlink" x="0px" y="0px"
	 width="100%" viewBox="0 0 1024 718" enable-background="new 0 0 1024 718" xml:space="preserve">
<path fill="#FBFCFC" opacity="1.000000" stroke="none" 
	d="
M136.000000,719.000000 
	C91.014885,719.000000 46.029766,719.000000 1.022325,719.000000 
	C1.022325,479.760712 1.022325,240.521423 1.022325,1.000000 
	C145.024780,1.000000 289.049744,1.000000 433.397766,1.223557 
	C433.456268,1.678235 433.191650,1.909356 432.625153,2.197179 
	C431.509186,3.145427 430.695099,4.036973 429.917847,4.959667 
	C429.954712,4.990816 429.929352,4.897691 429.613586,5.132954 
	C428.847412,7.285330 428.005554,9.201955 428.003143,11.119632 
	C427.919983,77.615234 427.883514,144.111023 428.025238,210.606369 
	C428.030609,213.131104 429.868103,215.651962 430.858765,218.100266 
	C430.865723,218.025909 430.800476,218.160263 430.895081,218.461670 
	C431.995911,219.469681 433.002167,220.176270 434.349457,221.133118 
	C437.639709,221.738129 440.587830,222.392227 443.538239,222.402740 
	C487.019684,222.557739 530.501404,222.627151 574.431458,222.840637 
	C578.605957,222.947464 582.332153,222.930542 586.331909,223.087799 
	C587.362732,223.571350 588.120056,223.880737 588.901306,224.172607 
	C588.925293,224.155106 588.886108,224.172272 589.170776,224.422089 
	C601.583557,228.348785 614.023560,231.248871 625.739624,235.952362 
	C634.843201,239.607056 643.043701,245.510986 651.761597,250.420502 
	C651.877563,250.425797 651.648682,250.464783 651.799072,250.744171 
	C664.106689,260.220581 674.193726,271.445312 683.596069,283.350830 
	C683.592468,283.364532 683.565186,283.371948 683.587830,283.557800 
	C683.610474,283.743622 683.882080,284.006500 683.967407,284.348816 
	C686.907898,289.216614 689.762939,293.742096 692.625854,298.294006 
	C692.633606,298.320496 692.578796,298.326843 692.633972,298.681580 
	C694.569763,303.282257 696.585510,307.474152 698.308411,311.783112 
	C707.351868,334.400360 710.462341,357.870148 708.120056,382.506653 
	C706.810242,397.436584 702.820374,411.260406 697.706909,424.813477 
	C697.768250,424.836823 697.709473,424.719421 697.466919,424.913971 
	C697.061096,425.703278 696.897827,426.298004 696.796387,426.895508 
	C696.858154,426.898254 696.812439,426.783264 696.547119,427.012878 
	C694.042603,431.778748 691.803406,436.315033 689.368408,440.950867 
	C688.954895,441.285889 688.883545,441.559601 688.709045,442.049316 
	C688.223694,442.783142 687.987793,443.339172 687.810730,443.896667 
	C687.869568,443.898163 687.824280,443.789520 687.544922,443.981964 
	C685.316650,447.176941 683.367798,450.179504 681.354858,453.264343 
	C681.290710,453.346649 681.173279,453.519196 680.934998,453.697998 
	C680.009949,454.876038 679.323120,455.875305 678.392700,456.995544 
	C677.754761,457.709442 677.360596,458.302368 676.669556,459.050049 
	C674.772400,461.094269 673.172058,462.983765 671.382568,464.913147 
	C670.947876,465.101562 670.830994,465.319214 670.541321,465.755646 
	C669.047668,467.227264 667.855530,468.549225 666.466675,469.903076 
	C666.001160,470.063416 665.862732,470.276520 665.584351,470.698700 
	C665.092957,471.145081 664.871948,471.467072 664.727417,471.804077 
	C664.803833,471.819061 664.754639,471.671204 664.492859,471.744598 
	C664.027832,472.105011 663.824585,472.392029 663.718567,472.743683 
	C663.815796,472.808350 663.670166,472.625763 663.428589,472.702423 
	C662.979370,473.035645 662.771667,473.292175 662.687927,473.752716 
	C662.811890,473.956696 662.533081,473.569153 662.315247,473.657104 
	C661.821350,473.923096 661.636658,474.169525 661.532654,474.529236 
	C661.522095,474.574066 661.431458,474.557739 661.156433,474.691284 
	C659.829834,475.800842 658.778259,476.776855 657.831665,477.823792 
	C657.936646,477.894714 657.759644,477.713470 657.459351,477.822815 
	C656.040771,478.903290 654.922485,479.874420 653.864990,480.887939 
	C653.925659,480.930359 653.852295,480.801697 653.530396,480.903564 
	C651.062256,482.604889 648.916077,484.204346 646.818115,485.826355 
	C646.866455,485.848938 646.852417,485.743256 646.591187,485.787811 
	C646.076416,486.064667 645.822815,486.296967 645.556763,486.602142 
	C645.544250,486.675049 645.491150,486.536957 645.174316,486.655334 
	C641.115784,488.975403 637.374084,491.177063 633.585510,493.411072 
	C633.538574,493.443420 633.424683,493.446564 633.104248,493.573181 
	C629.080750,495.461945 625.377625,497.224121 621.472168,498.981873 
	C621.269714,498.977448 620.951294,499.227722 620.545959,499.289185 
	C611.765442,501.911835 603.390320,504.472992 594.673340,506.999054 
	C593.891357,507.074890 593.451172,507.185822 592.608032,507.278564 
	C582.440002,508.169464 572.687927,509.637909 562.906982,509.866272 
	C544.926941,510.286133 526.929871,509.954407 508.939911,509.975769 
	C485.958344,510.003052 462.976868,510.069702 439.661560,510.048828 
	C438.881165,510.045624 438.434570,510.112976 437.740967,510.124542 
	C437.339233,510.136230 437.184509,510.203735 436.691650,510.235413 
	C435.166901,510.745819 433.980286,511.292145 432.848267,511.850769 
	C432.902893,511.863068 432.878265,511.753845 432.610779,511.845764 
	C432.124115,512.230713 431.904968,512.523682 431.749420,512.825745 
	C431.813019,512.834839 431.758301,512.718567 431.428619,512.867188 
	C429.991730,516.883179 427.933044,520.747437 427.920258,524.618530 
	C427.733948,580.917664 427.815277,637.217712 427.856323,693.517578 
	C427.859344,697.668274 428.043457,701.818848 428.111633,706.327454 
	C429.725037,711.392822 432.658966,714.327698 438.483887,714.012146 
	C449.238281,714.146851 459.534546,714.238770 469.830505,714.215576 
	C499.551605,714.148438 529.272644,714.034912 559.453857,714.037476 
	C590.427002,714.112183 620.458069,710.218079 650.077759,702.965759 
	C675.754944,696.678772 700.713196,688.396362 724.244873,676.399902 
	C724.147583,676.407776 724.335266,676.461487 724.681519,676.362671 
	C730.490662,673.357544 735.953552,670.451294 741.418091,667.413574 
	C741.419861,667.281982 741.480408,667.538086 741.810303,667.424622 
	C746.562805,664.707825 750.985291,662.104492 755.396240,659.312744 
	C755.384705,659.124390 755.426025,659.505737 755.736938,659.397888 
	C757.504700,658.367310 758.961609,657.444519 760.433472,656.482971 
	C760.448547,656.444153 760.516663,656.492065 760.826660,656.363892 
	C769.907166,650.066223 778.677612,643.896729 787.513550,637.673767 
	C787.578918,637.620300 787.720154,637.527466 787.995483,637.393799 
	C789.545593,636.182495 790.820312,635.104980 792.415527,633.932800 
	C796.887146,630.294434 801.038208,626.750671 805.488342,623.080383 
	C806.979980,621.785828 808.172546,620.617798 809.361938,619.411255 
	C809.358826,619.372864 809.435852,619.374329 809.711792,619.285645 
	C810.450439,618.603455 810.913208,618.009888 811.368225,617.399170 
	C811.360535,617.381958 811.332458,617.356995 811.588501,617.294250 
	C812.018311,616.943359 812.192017,616.655151 812.399292,616.374207 
	C812.432861,616.381470 812.501160,616.388550 812.801758,616.278809 
	C815.451172,613.815918 817.799988,611.462830 820.098389,609.073975 
	C820.047913,609.038208 820.103210,609.148804 820.411377,609.039795 
	C821.959229,607.500671 823.198914,606.070557 824.481140,604.585083 
	C824.523682,604.529663 824.634766,604.445068 824.923950,604.348938 
	C826.276001,602.992371 827.338867,601.731934 828.401367,600.429932 
	C828.401123,600.388306 828.484192,600.383667 828.784546,600.273376 
	C832.188416,596.610840 835.291931,593.058594 838.390381,589.470032 
	C838.385315,589.433777 838.403687,589.362732 838.645996,589.279358 
	C839.043274,588.900024 839.198181,588.604004 839.362793,588.318420 
	C839.372559,588.328857 839.397644,588.342346 839.693298,588.209717 
	C842.784180,584.527771 845.579468,580.978516 848.370972,577.401123 
	C848.367249,577.372986 848.329834,577.330322 848.580200,577.230469 
	C848.979980,576.812561 849.129395,576.494568 849.216187,576.184448 
	C849.153564,576.192261 849.258606,576.262146 849.554932,576.118652 
	C851.062988,574.151184 852.274658,572.327209 853.467773,570.469360 
	C853.449158,570.435425 853.506592,570.383606 853.737610,570.305908 
	C854.244202,570.009399 854.382507,569.723877 854.356018,569.379761 
	C854.328369,569.387756 854.360229,569.340332 854.646118,569.209045 
	C855.443787,568.194580 855.955505,567.311401 856.484131,566.391174 
	C856.501038,566.354126 856.580872,566.370178 856.857544,566.225830 
	C861.770691,559.060791 866.407227,552.040100 871.020325,545.011353 
	C870.996887,545.003296 871.023743,545.045166 871.312195,544.868652 
	C875.437073,537.797119 879.273438,530.901978 883.241699,523.845703 
	C883.373657,523.684509 883.380920,523.267944 883.369385,523.229370 
	C883.357788,523.190735 883.290833,523.235657 883.554077,523.082764 
	C884.010193,522.366638 884.202942,521.803467 884.374390,521.137512 
	C884.353149,521.034668 884.350342,521.244690 884.625854,521.068481 
	C885.403320,519.690125 885.905151,518.488037 886.377563,517.297424 
	C886.348145,517.308899 886.376038,517.252319 886.632080,517.077271 
	C887.000122,516.295471 887.112122,515.688599 887.170410,515.081665 
	C887.116699,515.081604 887.158203,515.180664 887.436646,515.041992 
	C887.940918,514.347412 888.166687,513.791443 888.355103,513.143799 
	C888.317688,513.052063 888.334290,513.249512 888.617676,513.062866 
	C890.745361,508.687469 892.589600,504.498749 894.343689,500.306641 
	C894.253540,500.303253 894.425537,500.248962 894.701172,500.061096 
	C895.305969,498.583771 895.635010,497.294312 896.025513,495.818481 
	C896.086975,495.632111 896.104309,495.240051 896.430298,495.097900 
	C897.235291,493.661896 897.714294,492.368073 898.147156,491.069855 
	C898.101013,491.065430 898.127686,491.154236 898.424622,490.961578 
	C900.207275,486.915833 901.976440,483.145447 903.128906,479.195099 
	C907.806824,463.160400 912.295410,447.070465 917.009338,430.668701 
	C917.449829,427.885712 917.734863,425.434967 918.046082,422.783569 
	C918.072266,422.582916 918.067078,422.178314 918.379150,421.966431 
	C919.159973,418.174652 919.628723,414.594696 920.060181,411.014709 
	C920.022827,411.014679 920.053040,411.083038 920.363770,410.843994 
	C921.107178,408.149750 921.629272,405.706512 921.959351,403.237579 
	C926.820496,366.883423 926.522339,330.539703 920.857056,294.329681 
	C918.996155,282.435822 915.656128,270.773407 913.033447,258.666016 
	C912.943970,257.895294 912.813660,257.463715 912.672546,256.652008 
	C908.666260,244.292709 905.042847,232.171921 900.555176,220.380035 
	C897.086731,211.266083 892.535339,202.564285 888.449341,193.641754 
	C888.433350,193.604263 888.445984,193.523697 888.387085,193.202744 
	C887.358093,191.170395 886.387939,189.459000 885.382935,187.717377 
	C885.348022,187.687119 885.439270,187.672897 885.406616,187.383942 
	C885.038269,186.643951 884.702637,186.192902 884.352661,185.713577 
	C884.338379,185.685303 884.399353,185.702591 884.346802,185.347122 
	C878.657959,175.555161 873.021667,166.118652 867.249268,156.688477 
	C867.113220,156.694794 867.379028,156.634995 867.318604,156.325668 
	C866.498291,155.018478 865.738403,154.020615 864.989258,153.011383 
	C865.000000,153.000000 864.976501,153.020615 864.890747,152.688354 
	C862.237915,148.859009 859.670837,145.361908 857.079102,141.917480 
	C857.054382,141.970169 857.150757,141.904938 857.079834,141.614075 
	C856.473328,140.766098 855.937744,140.208984 855.283569,139.673035 
	C855.165039,139.694214 855.405090,139.714005 855.351013,139.420334 
	C854.909668,138.697495 854.522339,138.268341 854.088379,137.899658 
	C854.041687,137.960159 854.169800,137.876907 854.080933,137.551605 
	C852.425781,135.384232 850.859436,133.542160 849.263672,131.848038 
	C849.234253,131.995987 849.327942,131.709091 849.258545,131.424545 
	C848.658691,130.621841 848.128235,130.103683 847.554932,129.544006 
	C847.512207,129.502487 847.480408,129.387604 847.403076,129.089203 
	C845.903015,127.136337 844.480286,125.481895 843.004822,123.614090 
	C842.812073,123.111771 842.582947,122.945541 842.136108,122.596893 
	C840.679688,120.844231 839.351990,119.396744 838.011353,117.973373 
	C837.998413,117.997490 838.049377,117.977386 837.944092,117.701935 
	C837.367859,117.131767 836.896912,116.837059 836.435181,116.505188 
	C836.444458,116.468018 836.453674,116.391983 836.368408,116.101425 
	C835.229492,114.747696 834.175842,113.684525 832.999268,112.322266 
	C821.974121,101.661858 811.072083,91.300545 799.993164,80.654724 
	C797.889221,78.893227 795.962036,77.416229 794.019531,75.969299 
	C794.004211,75.999367 794.060303,75.961769 793.895996,75.672264 
	C792.302063,74.436050 790.872314,73.489342 789.401123,72.530258 
	C789.359619,72.517891 789.360474,72.431305 789.226074,72.151962 
	C776.097412,63.230766 763.424561,54.044636 750.006165,46.121197 
	C739.479370,39.905205 728.030457,35.250900 716.901489,29.818897 
	C716.811829,29.734987 716.585754,29.830851 716.340088,29.546509 
	C685.459412,16.131922 653.520691,7.951068 620.455444,4.016603 
	C612.628113,3.085230 604.817993,2.009383 597.000000,0.999999 
	C739.632751,1.000000 882.265564,1.000000 1024.949219,1.000000 
	C1024.949219,240.242599 1024.949219,479.485229 1024.949219,719.000000 
	C810.641846,719.000000 596.283569,719.000000 381.426086,718.652588 
	C378.362366,716.077026 372.334900,716.460327 370.000000,719.000000 
	C367.299835,719.000000 364.599640,719.000000 361.356934,718.604431 
	C359.322174,717.805969 357.837341,717.090698 356.336487,717.055481 
	C350.542969,716.919189 344.740356,717.114502 338.950562,716.914124 
	C337.614929,716.867859 336.316650,715.743225 335.356750,715.075012 
	C336.827057,714.774048 337.941833,714.512939 339.462402,714.208557 
	C341.227142,714.193542 342.586029,714.221680 344.284424,714.490845 
	C349.726074,714.812622 354.830383,715.023010 359.929932,714.939758 
	C365.639862,714.846558 371.345428,714.487488 377.366577,714.193176 
	C378.102844,714.156982 378.525482,714.171814 379.062256,714.326782 
	C379.470978,714.354309 379.765594,714.241699 380.077942,714.041260 
	C380.095642,713.953491 379.931335,713.882019 380.293365,713.932739 
	C384.377838,713.002014 387.175476,711.063171 388.035767,706.529663 
	C388.247681,696.256714 388.397491,686.435974 388.396790,676.615234 
	C388.385895,529.065552 388.356812,381.515869 388.314209,233.966171 
	C388.313538,231.647110 388.089203,229.328094 388.035583,226.616302 
	C387.458191,217.587402 380.907562,212.977737 375.233673,208.015137 
	C344.674347,181.286758 313.966797,154.727814 283.311035,128.109680 
	C252.917450,101.719193 222.524643,75.327843 191.981689,48.637352 
	C189.586426,46.517952 187.340942,44.698082 185.054077,42.935139 
	C185.012695,42.992069 185.117355,42.897888 184.971924,42.596817 
	C177.122345,35.705235 169.418228,29.114725 161.643875,22.445936 
	C161.573654,22.367657 161.396194,22.254786 161.221954,21.996630 
	C156.931778,18.097046 152.987961,14.230425 148.632858,10.901958 
	C146.174438,9.023065 143.039185,8.029797 140.208801,6.637597 
	C139.556732,9.603784 138.347443,12.567953 138.336700,15.536460 
	C138.190170,56.030418 138.193588,96.524979 138.190811,137.019394 
	C138.182312,261.168610 138.184998,385.317810 138.187561,509.467010 
	C138.188889,573.791626 138.197418,638.116211 138.207886,702.440796 
	C138.209030,709.446228 139.817200,711.850952 146.293945,714.383057 
	C159.088699,714.789917 171.543396,714.957642 183.892853,715.510620 
	C182.271042,716.263916 180.758713,716.928162 179.237198,716.949890 
	C171.610367,717.059082 163.978485,716.896362 156.355057,717.090454 
	C154.888123,717.127869 153.450928,718.333374 152.000000,719.000000 
	C151.555557,719.000000 151.111115,719.000000 150.263794,718.638306 
	C145.141937,716.498108 140.422974,714.719604 135.006454,712.678162 
	C135.457855,715.550354 135.728928,717.275208 136.000000,719.000000 
M644.452209,436.457245 
	C644.452209,436.457245 644.547546,436.419220 645.059265,436.098541 
	C645.803040,435.148346 646.546814,434.198120 647.089478,433.032684 
	C647.089478,433.032684 647.258728,433.273773 647.838074,432.936218 
	C652.248840,425.623016 656.659546,418.309814 661.233337,410.859619 
	C661.233337,410.859619 661.185730,410.652039 661.765442,410.139496 
	C664.411926,400.331421 667.952759,390.664398 669.526489,380.687103 
	C673.294373,356.799774 669.239624,334.065674 656.843567,312.421356 
	C656.694885,312.287384 656.546265,312.153412 656.237793,311.424683 
	C654.949402,309.511749 653.661072,307.598816 652.006104,305.779083 
	C652.006104,305.779083 652.365173,305.658264 652.151794,305.012939 
	C629.574463,274.164612 598.895142,260.152222 560.071045,260.979706 
	C524.046814,261.033203 488.022552,261.086670 451.077423,260.967529 
	C446.942200,260.961517 442.797638,260.776093 438.673889,260.990540 
	C432.101654,261.332367 428.147034,265.045593 427.975311,271.649231 
	C427.722015,281.390686 427.987396,291.145660 427.867737,301.833130 
	C427.865295,335.099243 427.831879,368.365387 427.872040,401.631470 
	C427.895935,421.416534 428.035553,441.201477 428.023041,461.664276 
	C428.575562,462.870361 429.128113,464.076416 429.883423,464.993988 
	C429.883423,464.993988 429.653687,465.261627 429.811981,465.940033 
	C433.044861,467.613007 436.264404,470.710266 439.512665,470.740662 
	C475.636322,471.079102 511.764557,470.998322 547.891174,470.900177 
	C558.204773,470.872162 568.593079,471.127380 578.815247,470.027222 
	C604.588684,467.253326 626.493591,456.325775 644.311829,436.864166 
	C644.311829,436.864166 644.416809,436.553558 644.452209,436.457245 
z"/>
<path fill="#3F7CBD" opacity="1.000000" stroke="none" 
	d="
M800.169983,80.939232 
	C811.072083,91.300545 821.974121,101.661858 832.966431,112.730789 
	C834.189026,114.422928 835.321350,115.407448 836.453674,116.391975 
	C836.453674,116.391983 836.444458,116.468018 836.409546,116.837463 
	C836.932861,117.463737 837.491150,117.720566 838.049377,117.977386 
	C838.049377,117.977386 837.998413,117.997490 838.002441,118.349983 
	C839.425842,120.102333 840.845337,121.502197 842.264771,122.902061 
	C842.582947,122.945541 842.812073,123.111771 842.984253,124.007370 
	C843.188416,127.435783 843.841736,129.807617 847.480408,129.387604 
	C847.480408,129.387604 847.512207,129.502487 847.393799,129.902191 
	C847.959534,130.770966 848.643738,131.240036 849.327942,131.709091 
	C849.327942,131.709091 849.234253,131.995987 849.190430,132.224243 
	C850.820984,134.260651 852.495422,136.068787 854.169800,137.876923 
	C854.169800,137.876907 854.041687,137.960159 854.071472,138.235291 
	C854.535889,138.911621 854.970459,139.312820 855.405090,139.714005 
	C855.405090,139.714005 855.165039,139.694214 855.189575,140.028625 
	C855.859680,140.876999 856.505188,141.390976 857.150757,141.904938 
	C857.150757,141.904938 857.054382,141.970169 857.043213,142.303177 
	C858.757080,146.803909 859.441589,151.767609 864.976501,153.020615 
	C864.976501,153.020615 865.000000,153.000000 864.988770,153.402725 
	C865.778076,154.748642 866.578552,155.691818 867.379028,156.634995 
	C867.379028,156.634995 867.113220,156.694794 867.148438,157.068604 
	C872.452942,166.733444 877.713806,176.029266 883.029175,185.293854 
	C883.201111,185.593491 883.930054,185.573563 884.399353,185.702606 
	C884.399353,185.702591 884.338379,185.685303 884.256958,186.052139 
	C884.596741,186.836960 885.018005,187.254929 885.439270,187.672913 
	C885.439270,187.672897 885.348022,187.687119 885.249512,188.110641 
	C885.829773,190.474380 884.531921,193.719986 888.445984,193.523697 
	C888.445984,193.523697 888.433350,193.604263 888.303528,194.028198 
	C892.168945,204.857697 896.160339,215.264709 900.160645,225.668320 
	C902.767151,232.447220 905.345215,239.237518 908.016602,245.990829 
	C909.485962,249.705368 911.122253,253.353851 912.683350,257.032104 
	C912.813660,257.463715 912.943970,257.895294 912.755493,258.911591 
	C912.375366,260.463440 912.031616,261.515930 912.294189,262.385254 
	C918.256592,282.126740 920.713318,302.424774 922.051758,322.908875 
	C922.354004,327.534088 923.089172,332.151337 923.088745,336.772217 
	C923.087402,351.342438 923.113159,365.923065 922.577637,380.479370 
	C922.201721,390.697723 920.926636,400.882996 920.053040,411.083038 
	C920.053040,411.083038 920.022827,411.014679 919.751892,411.243103 
	C919.009705,415.040436 918.538391,418.609375 918.067078,422.178314 
	C918.067078,422.178314 918.072266,422.582916 917.761841,423.020325 
	C916.975769,425.971802 916.500122,428.485901 915.870850,431.339050 
	C913.796143,438.220276 911.960754,444.789154 909.931519,451.297607 
	C907.539978,458.968323 904.851501,466.547913 902.537415,474.240906 
	C900.860352,479.816376 899.583191,485.512115 898.127686,491.154236 
	C898.127686,491.154236 898.101013,491.065430 897.794495,491.188110 
	C897.026733,492.620544 896.565491,493.930298 896.104248,495.240051 
	C896.104309,495.240051 896.086975,495.632111 895.657593,495.892365 
	C894.960693,497.518066 894.693115,498.883514 894.425537,500.248962 
	C894.425537,500.248962 894.253540,500.303253 893.980286,500.348999 
	C891.916077,504.679657 890.125183,508.964569 888.334290,513.249512 
	C888.334290,513.249512 888.317688,513.052063 888.019470,513.207031 
	C887.533569,513.968262 887.345886,514.574463 887.158203,515.180664 
	C887.158203,515.180664 887.116699,515.081604 886.863647,515.225098 
	C886.532410,515.996460 886.454224,516.624390 886.375977,517.252319 
	C886.376038,517.252319 886.348145,517.308899 885.993408,517.326111 
	C885.209229,518.643799 884.779785,519.944214 884.350342,521.244690 
	C884.350342,521.244690 884.353149,521.034668 884.033936,521.203735 
	C883.573425,521.993835 883.432129,522.614746 883.290894,523.235657 
	C883.290833,523.235657 883.357788,523.190735 883.081909,523.219604 
	C882.532471,523.494446 882.258789,523.740356 881.710022,524.200317 
	C880.295776,526.162903 878.954590,527.814087 878.056274,529.678711 
	C875.611938,534.752563 873.354980,539.916748 871.023682,545.045166 
	C871.023743,545.045166 870.996887,545.003296 870.666443,545.036133 
	C867.020325,549.448425 863.530823,553.710449 860.458740,558.254578 
	C858.798157,560.710999 857.850281,563.649292 856.580933,566.370178 
	C856.580872,566.370178 856.501038,566.354126 856.137207,566.375854 
	C855.302307,567.378479 854.831299,568.359436 854.360229,569.340332 
	C854.360229,569.340332 854.328369,569.387756 854.056396,569.373291 
	C853.691772,569.700378 853.599182,570.041992 853.506592,570.383606 
	C853.506592,570.383606 853.449158,570.435425 853.092773,570.406494 
	C851.577087,572.339050 850.417847,574.300598 849.258606,576.262146 
	C849.258606,576.262146 849.153564,576.192261 848.931885,576.249756 
	C848.583435,576.648254 848.456665,576.989319 848.329834,577.330322 
	C848.329834,577.330322 848.367249,577.372986 847.988525,577.272949 
	C842.903442,579.448425 840.704712,583.567566 839.397644,588.342346 
	C839.397644,588.342346 839.372559,588.328857 839.066345,588.334961 
	C838.641357,588.681641 838.522522,589.022217 838.403687,589.362732 
	C838.403687,589.362732 838.385315,589.433777 838.028870,589.335205 
	C834.157776,592.579773 829.099365,594.650513 828.484192,600.383667 
	C828.484192,600.383667 828.401123,600.388306 828.035767,600.313660 
	C826.658508,601.641052 825.646606,603.043030 824.634766,604.445068 
	C824.634766,604.445068 824.523682,604.529663 824.123535,604.404480 
	C822.516663,605.902466 821.309937,607.525635 820.103210,609.148804 
	C820.103210,609.148804 820.047913,609.038208 819.721558,609.036499 
	C815.673035,610.150940 812.699890,611.969238 812.501160,616.388550 
	C812.501160,616.388550 812.432861,616.381470 812.098694,616.363281 
	C811.620544,616.682373 811.476501,617.019653 811.332458,617.356995 
	C811.332458,617.356995 811.360535,617.381958 810.994385,617.302551 
	C810.230774,617.940186 809.833313,618.657227 809.435852,619.374329 
	C809.435852,619.374329 809.358826,619.372864 808.966919,619.269653 
	C807.010986,618.807678 805.447021,618.448853 803.883850,618.068359 
	C803.884705,618.046631 803.916504,618.075623 803.842224,617.849854 
	C803.602600,617.334351 803.360229,617.141418 802.876282,616.722412 
	C786.449890,575.669495 770.200073,534.934814 753.921875,494.211395 
	C742.820312,466.438507 731.638062,438.697845 720.578918,410.908112 
	C716.902405,401.669769 713.496521,392.323730 709.979980,382.556183 
	C709.583801,363.474548 712.041931,344.618439 705.026611,326.583252 
	C701.631897,317.855988 698.468689,309.038605 695.063477,300.315582 
	C694.729370,299.459778 693.430054,298.980743 692.578796,298.326843 
	C692.578796,298.326843 692.633606,298.320496 692.749390,297.862915 
	C692.604553,295.711548 692.711914,293.839874 691.998901,292.364685 
	C690.862793,290.013885 689.275635,287.854370 687.680847,285.765472 
	C687.067566,284.962189 685.910828,284.573792 684.833130,283.762939 
	C684.298035,283.476990 683.931641,283.424469 683.565186,283.371948 
	C683.565186,283.371948 683.592468,283.364532 683.722290,282.943237 
	C682.305176,279.248169 680.954346,275.860443 679.142273,272.740631 
	C677.937378,270.666168 676.246338,268.786560 674.468201,267.150970 
	C670.889404,263.859009 666.228027,261.377228 663.627258,257.483246 
	C660.521240,252.832504 656.481506,251.354126 651.648682,250.464783 
	C651.648682,250.464783 651.877563,250.425797 651.772339,250.054474 
	C646.154602,245.807404 640.953125,241.354675 635.062988,238.179550 
	C623.825806,232.122070 612.000305,227.260254 599.397339,224.752625 
	C595.989990,224.074631 592.394958,224.339935 588.886108,224.172272 
	C588.886108,224.172272 588.925293,224.155106 588.902588,223.837830 
	C587.939331,223.318237 586.998779,223.115936 586.058289,222.913635 
	C582.332153,222.930542 578.605957,222.947464 574.308105,222.472198 
	C571.858826,221.652191 569.981689,221.040924 568.103699,221.038254 
	C528.356567,220.981857 488.609344,221.027756 448.862335,220.949799 
	C443.917328,220.940109 438.973419,220.344482 433.960724,219.662201 
	C432.861786,218.922775 431.831116,218.541519 430.800476,218.160263 
	C430.800476,218.160263 430.865723,218.025909 430.914917,217.659897 
	C430.311035,210.749878 429.129059,204.208771 429.093384,197.661392 
	C428.905518,163.181900 428.888641,128.700272 429.043945,94.220428 
	C429.178101,64.445457 429.622253,34.671883 429.929352,4.897691 
	C429.929352,4.897691 429.954712,4.990816 430.262726,4.966090 
	C431.356171,4.007738 432.141632,3.074113 432.927063,2.140482 
	C433.191650,1.909356 433.456268,1.678235 433.860413,1.223557 
	C483.354218,1.000000 532.708435,1.000000 582.622437,1.384448 
	C587.468628,2.508026 591.728760,3.546323 596.046814,3.926338 
	C606.212219,4.820940 616.534302,4.625004 626.556946,6.290574 
	C641.677734,8.803359 656.635193,12.363758 671.581543,15.826281 
	C676.676453,17.006577 681.493103,19.345198 686.501038,20.954988 
	C692.075745,22.747000 698.165955,23.494150 703.206116,26.221821 
	C707.599670,28.599546 712.148682,28.620226 716.585754,29.830851 
	C716.585754,29.830851 716.811829,29.734987 716.949280,30.172077 
	C719.682861,32.442646 722.100037,34.638550 724.915039,36.028938 
	C729.738953,38.411610 734.923035,40.066002 739.741638,42.457901 
	C743.109680,44.129784 746.106384,46.543285 749.293701,48.587048 
	C759.737122,55.283646 770.139587,62.046894 780.678711,68.589752 
	C783.341370,70.242775 786.454407,71.170357 789.360474,72.431305 
	C789.360474,72.431305 789.359619,72.517891 789.356995,72.906960 
	C790.923035,74.184608 792.491638,75.073189 794.060303,75.961761 
	C794.060303,75.961769 794.004211,75.999367 794.011108,76.343399 
	C796.068665,78.104698 798.119324,79.521965 800.169983,80.939232 
z"/>
<path fill="#507CAC" opacity="1.000000" stroke="none" 
	d="
M716.340088,29.546509 
	C712.148682,28.620226 707.599670,28.599546 703.206116,26.221821 
	C698.165955,23.494150 692.075745,22.747000 686.501038,20.954988 
	C681.493103,19.345198 676.676453,17.006577 671.581543,15.826281 
	C656.635193,12.363758 641.677734,8.803359 626.556946,6.290574 
	C616.534302,4.625004 606.212219,4.820940 596.046814,3.926338 
	C591.728760,3.546323 587.468628,2.508026 583.091064,1.384448 
	C587.356873,1.000000 591.713806,1.000000 596.535339,0.999999 
	C604.817993,2.009383 612.628113,3.085230 620.455444,4.016603 
	C653.520691,7.951068 685.459412,16.131922 716.340088,29.546509 
z"/>
<path fill="#FBFDF6" opacity="1.000000" stroke="none" 
	d="
M335.001190,715.114868 
	C336.316650,715.743225 337.614929,716.867859 338.950562,716.914124 
	C344.740356,717.114502 350.542969,716.919189 356.336487,717.055481 
	C357.837341,717.090698 359.322174,717.805969 360.907166,718.604431 
	C333.979095,719.000000 306.958221,719.000000 279.528809,718.657043 
	C280.413269,717.243958 281.706268,716.173828 283.466675,715.063599 
	C291.641510,714.783630 299.348907,714.543701 307.443481,714.257935 
	C308.868347,714.242676 309.906067,714.273193 311.286133,714.541138 
	C319.419373,714.890625 327.210297,715.002747 335.001190,715.114868 
z"/>
<path fill="#FBFDF6" opacity="1.000000" stroke="none" 
	d="
M152.468658,719.000000 
	C153.450928,718.333374 154.888123,717.127869 156.355057,717.090454 
	C163.978485,716.896362 171.610367,717.059082 179.237198,716.949890 
	C180.758713,716.928162 182.271042,716.263916 184.218262,715.468140 
	C185.452560,714.795288 186.256210,714.550171 187.418488,714.258911 
	C188.498199,714.243713 189.219284,714.274597 190.182861,714.523376 
	C191.284149,714.869507 192.142975,714.997681 193.107101,715.511108 
	C194.896912,716.264221 196.578705,716.935547 198.266388,716.950623 
	C209.057022,717.047546 219.850098,716.924866 230.639099,717.089050 
	C232.102081,717.111328 233.546799,718.333435 235.000000,719.000000 
	C207.645767,719.000000 180.291550,719.000000 152.468658,719.000000 
z"/>
<path fill="#FBFCFC" opacity="1.000000" stroke="none" 
	d="
M235.463165,719.000000 
	C233.546799,718.333435 232.102081,717.111328 230.639099,717.089050 
	C219.850098,716.924866 209.057022,717.047546 198.266388,716.950623 
	C196.578705,716.935547 194.896912,716.264221 193.574219,715.469238 
	C212.623489,715.069946 231.310959,715.097778 249.943146,715.444214 
	C249.258591,716.841858 248.629303,717.920959 248.000000,719.000000 
	C243.975449,719.000000 239.950912,719.000000 235.463165,719.000000 
z"/>
<path fill="#FBFDF6" opacity="1.000000" stroke="none" 
	d="
M248.468643,719.000000 
	C248.629303,717.920959 249.258591,716.841858 250.318054,715.401917 
	C251.501038,715.067017 252.253860,715.093018 253.049088,715.401245 
	C253.409851,715.980835 253.728195,716.278076 254.046539,716.575378 
	C254.362274,716.087585 254.678009,715.599792 255.460587,715.073120 
	C261.618195,715.055176 267.308960,715.076111 272.999542,715.487305 
	C272.999573,716.918396 272.999786,717.959167 273.000000,719.000000 
	C264.979095,719.000000 256.958191,719.000000 248.468643,719.000000 
z"/>
<path fill="#FBFDF6" opacity="1.000000" stroke="none" 
	d="
M136.464645,719.000000 
	C135.728928,717.275208 135.457855,715.550354 135.006454,712.678162 
	C140.422974,714.719604 145.141937,716.498108 149.930450,718.638306 
	C145.643097,719.000000 141.286194,719.000000 136.464645,719.000000 
z"/>
<path fill="#FBFCFC" opacity="1.000000" stroke="none" 
	d="
M273.428467,719.000000 
	C272.999786,717.959167 272.999573,716.918396 273.452301,715.445496 
	C276.936584,715.043518 279.967926,715.073608 282.999268,715.103699 
	C281.706268,716.173828 280.413269,717.243958 279.060120,718.657043 
	C277.285645,719.000000 275.571289,719.000000 273.428467,719.000000 
z"/>
<path fill="#FBFDF6" opacity="1.000000" stroke="none" 
	d="
M370.458069,719.000000 
	C372.334900,716.460327 378.362366,716.077026 380.963440,718.652588 
	C377.638702,719.000000 374.277435,719.000000 370.458069,719.000000 
z"/>
<path fill="#28306E" opacity="1.000000" stroke="none" 
	d="
M387.903625,706.981934 
	C387.175476,711.063171 384.377838,713.002014 379.992584,713.653198 
	C378.012085,713.215820 376.694366,713.015198 375.376678,713.015015 
	C299.220459,713.004272 223.064255,713.010010 146.594330,712.877686 
	C140.696686,710.097168 139.915298,705.072571 139.915085,699.726562 
	C139.906021,471.730927 139.908081,243.735260 139.909149,15.739617 
	C139.909149,14.739663 139.712173,13.683912 139.968399,12.753707 
	C140.297440,11.559059 140.779266,9.739752 141.581772,9.503724 
	C142.692902,9.176923 144.491516,9.698788 145.423279,10.512642 
	C149.147949,13.766006 152.523438,17.425142 156.307907,20.600698 
	C157.574707,21.663675 159.676224,21.731871 161.396194,22.254784 
	C161.396194,22.254786 161.573654,22.367657 161.560974,22.788841 
	C167.570587,31.271366 175.142181,37.595497 183.652206,42.852524 
	C184.012451,43.075058 184.623276,42.891998 185.117355,42.897888 
	C185.117355,42.897888 185.012695,42.992069 185.076096,43.288528 
	C187.470154,45.368950 189.800827,47.152912 192.131485,48.936874 
	C222.524643,75.327843 252.917450,101.719193 283.311035,128.109680 
	C313.966797,154.727814 344.674347,181.286758 375.233673,208.015137 
	C380.907562,212.977737 387.458191,217.587402 387.738403,226.909302 
	C387.246521,229.074234 387.005890,230.553391 387.005737,232.032578 
	C386.990570,388.607330 386.990570,545.182068 387.032959,701.756836 
	C387.033447,703.498596 387.600861,705.240234 387.903625,706.981934 
z"/>
<path fill="#28306E" opacity="1.000000" stroke="none" 
	d="
M709.966919,383.026947 
	C713.496521,392.323730 716.902405,401.669769 720.578918,410.908112 
	C731.638062,438.697845 742.820312,466.438507 753.921875,494.211395 
	C770.200073,534.934814 786.449890,575.669495 802.937195,616.957336 
	C803.309631,617.842224 803.560974,618.028992 803.916504,618.075623 
	C803.916504,618.075623 803.884705,618.046631 803.895874,618.447266 
	C804.334473,620.300842 804.761902,621.753845 805.189331,623.206909 
	C801.038208,626.750671 796.887146,630.294434 792.023132,633.931030 
	C789.436340,634.497864 786.704773,634.092957 787.720154,637.527466 
	C787.720154,637.527466 787.578918,637.620300 787.171997,637.482422 
	C786.439026,637.334961 786.026306,637.190002 785.799316,637.335266 
	C777.487610,642.655579 769.166138,647.962402 760.954407,653.433777 
	C760.382935,653.814453 760.643188,655.443542 760.516663,656.492065 
	C760.516663,656.492065 760.448547,656.444153 760.066345,656.347534 
	C758.264771,657.335876 756.845398,658.420837 755.426025,659.505737 
	C755.426025,659.505737 755.384705,659.124390 755.041992,659.185181 
	C749.177979,660.232422 744.170227,662.037720 741.480408,667.538086 
	C741.480408,667.538086 741.419861,667.281982 741.037109,667.272583 
	C737.696899,668.190613 734.483154,668.668335 731.852112,670.168091 
	C729.058472,671.760620 726.817566,674.322815 724.335327,676.461548 
	C724.335266,676.461487 724.147583,676.407776 723.809875,676.277222 
	C721.125061,676.664429 718.630493,676.836304 716.457642,677.762817 
	C708.979126,680.951538 701.833557,685.068481 694.157410,687.615173 
	C679.028259,692.634644 663.712952,697.150452 648.322327,701.311279 
	C621.835571,708.471924 594.824158,712.059937 567.352112,712.046997 
	C564.568176,712.045654 561.784058,712.667419 558.531372,712.998901 
	C519.956970,712.998596 481.851196,712.986023 443.745544,713.038879 
	C441.838470,713.041565 439.932190,713.611145 438.025574,713.916748 
	C432.658966,714.327698 429.725037,711.392822 428.375549,706.024536 
	C429.113373,698.266541 429.840912,691.173401 429.937805,684.071655 
	C430.136444,669.513611 429.996674,654.951050 429.996521,640.390320 
	C429.996307,621.253540 430.016479,602.116760 429.968170,582.980103 
	C429.962769,580.845215 429.382019,578.710938 429.384857,576.576843 
	C429.406067,560.639465 429.334473,544.698547 429.679352,528.767090 
	C429.795410,523.405090 431.033203,518.067383 431.758301,512.718567 
	C431.758301,512.718567 431.813019,512.834839 432.037537,512.767334 
	C432.467468,512.384460 432.672852,512.069153 432.878235,511.753845 
	C432.878265,511.753845 432.902893,511.863068 433.300812,511.907715 
	C435.797729,511.962189 437.896729,511.972015 440.464661,511.985931 
	C480.568237,511.993347 520.203674,512.124695 559.837036,511.904755 
	C569.080688,511.853485 578.329590,510.729218 587.547913,509.814728 
	C589.433655,509.627655 591.193237,508.169128 593.010986,507.296753 
	C593.451172,507.185822 593.891357,507.074890 594.930786,507.274200 
	C600.629456,506.580048 605.850403,505.968231 610.787720,504.440033 
	C614.370178,503.331177 617.577026,501.008972 620.951294,499.227722 
	C620.951294,499.227722 621.269714,498.977448 621.592529,499.346405 
	C624.991028,500.299561 631.853882,496.561554 633.424683,493.446564 
	C633.424683,493.446564 633.538574,493.443420 633.974731,493.598328 
	C639.544250,493.636536 644.384155,490.484467 645.491150,486.536957 
	C645.491150,486.536957 645.544250,486.675049 645.851318,486.645935 
	C646.389771,486.325653 646.621094,486.034454 646.852417,485.743256 
	C646.852417,485.743256 646.866455,485.848938 647.228149,485.885864 
	C650.908203,485.720917 654.963562,486.420380 653.852295,480.801697 
	C653.852295,480.801697 653.925659,480.930359 654.254761,480.933289 
	C655.642456,479.861938 656.701050,478.787689 657.759644,477.713440 
	C657.759644,477.713470 657.936646,477.894714 658.229248,477.897888 
	C659.765503,477.845093 661.009216,477.789124 662.539917,477.720215 
	C662.074280,476.391754 661.752869,475.474762 661.431458,474.557739 
	C661.431458,474.557739 661.522095,474.574066 661.829102,474.570770 
	C662.268433,474.234680 662.400757,473.901917 662.533081,473.569153 
	C662.533081,473.569153 662.811890,473.956696 662.984741,473.776245 
	C663.328430,473.272461 663.499268,472.949127 663.670166,472.625763 
	C663.670166,472.625763 663.815796,472.808350 664.012207,472.723114 
	C664.390625,472.315674 664.572632,471.993439 664.754639,471.671204 
	C664.754639,471.671204 664.803833,471.819061 665.033691,471.727112 
	C665.460571,471.281525 665.657593,470.927917 665.854675,470.574310 
	C665.862732,470.276520 666.001160,470.063416 666.840210,469.941040 
	C671.707581,470.993195 673.026184,469.684082 670.842834,465.605988 
	C670.830994,465.319214 670.947876,465.101562 671.792603,464.921875 
	C676.105591,464.562500 677.688538,462.608337 676.966431,458.895325 
	C677.360596,458.302368 677.754761,457.709442 678.820923,457.024689 
	C682.128540,456.816620 682.283691,455.479401 681.173279,453.519196 
	C681.173279,453.519196 681.290710,453.346649 681.691040,453.421875 
	C686.287964,451.611084 687.914551,448.207245 687.824280,443.789520 
	C687.824280,443.789520 687.869568,443.898163 688.111938,443.773926 
	C688.555664,443.056976 688.757080,442.464233 688.958496,441.871490 
	C688.883545,441.559601 688.954895,441.285889 689.787109,440.991028 
	C691.531372,440.532776 693.459351,440.371826 693.660889,439.696045 
	C694.925354,435.455566 695.805298,431.100464 696.812439,426.783264 
	C696.812439,426.783264 696.858154,426.898254 697.107544,426.758057 
	C697.474487,425.985077 697.591980,425.352234 697.709473,424.719421 
	C697.709473,424.719421 697.768250,424.836823 698.076050,424.757568 
	C699.173828,423.865967 700.347473,423.191162 700.695618,422.220398 
	C705.248108,409.525940 709.092102,396.665070 709.255188,382.972107 
	C709.493774,382.960663 709.966919,383.026947 709.966919,383.026947 
z"/>
<path fill="#28306E" opacity="1.000000" stroke="none" 
	d="
M661.185730,410.652039 
	C661.185730,410.652039 661.233337,410.859619 660.766541,410.937927 
	C659.562988,411.527649 658.568665,411.877533 658.130371,412.576172 
	C654.691589,418.057495 651.287354,423.564087 648.054199,429.167755 
	C647.395508,430.309387 647.503906,431.893585 647.258667,433.273773 
	C647.258728,433.273773 647.089478,433.032684 646.805481,433.098633 
	C645.863525,434.249481 645.205566,435.334351 644.547546,436.419220 
	C644.547546,436.419220 644.452209,436.457245 644.164978,436.421875 
	C643.579346,436.590027 643.280884,436.793610 642.599304,437.003845 
	C640.856628,437.479004 638.813110,437.537323 638.247009,438.481506 
	C634.118408,445.367371 627.944031,449.635956 620.929626,453.045654 
	C613.244385,456.781525 605.962708,461.715210 597.912842,464.234283 
	C589.180847,466.966766 579.778442,468.707184 570.647217,468.800018 
	C542.045532,469.090912 513.434509,468.266541 484.825928,468.153809 
	C471.877533,468.102783 458.927582,468.793823 445.975952,468.963776 
	C442.660370,469.007263 439.335571,468.349670 435.842682,467.767059 
	C435.106659,467.349060 434.542938,467.178192 433.639221,466.976440 
	C432.084015,466.384216 430.868866,465.822937 429.653687,465.261627 
	C429.653687,465.261627 429.883423,464.993988 429.874023,464.718628 
	C429.903839,463.307098 429.943054,462.170929 429.935242,460.620972 
	C429.925507,454.638062 430.040924,449.068207 429.987030,443.499969 
	C429.681519,411.939178 429.271790,380.379181 429.057251,348.817841 
	C429.014557,342.541565 429.835205,336.263824 429.956360,329.980957 
	C430.121490,321.418701 430.076996,312.849701 429.951355,304.286102 
	C429.910706,301.515106 429.331604,298.751984 428.999146,295.518127 
	C429.001312,288.758484 428.830200,282.460052 429.044464,276.174744 
	C429.389221,266.062042 432.652252,262.998962 442.562622,262.995819 
	C444.715332,262.995117 446.894135,263.188232 449.009735,262.907043 
	C450.065552,262.766693 451.005768,261.756744 451.998291,261.140167 
	C488.022552,261.086670 524.046814,261.033203 560.641235,261.445282 
	C561.905701,262.267700 562.598389,262.932434 563.294556,262.936005 
	C577.235535,263.007172 591.113892,263.404388 603.909668,269.999695 
	C611.307739,273.812866 619.320496,276.833893 625.876282,281.776825 
	C633.586975,287.590515 639.978210,295.143036 647.037598,301.840302 
	C648.607666,303.329865 650.578735,304.396759 652.365173,305.658264 
	C652.365173,305.658264 652.006104,305.779083 652.059509,306.091095 
	C650.168274,310.848480 652.652771,311.914795 656.397705,312.019470 
	C656.546265,312.153412 656.694885,312.287384 656.657471,312.935974 
	C659.183838,320.073761 662.572083,326.509003 664.476440,333.356934 
	C669.314941,350.756195 670.963562,368.506683 667.281799,386.382812 
	C665.600708,394.544830 663.238831,402.566620 661.185730,410.652039 
z"/>
<path fill="#4A5173" opacity="1.000000" stroke="none" 
	d="
M161.221954,21.996628 
	C159.676224,21.731871 157.574707,21.663675 156.307907,20.600698 
	C152.523438,17.425142 149.147949,13.766006 145.423279,10.512642 
	C144.491516,9.698788 142.692902,9.176923 141.581772,9.503724 
	C140.779266,9.739752 140.297440,11.559059 139.968399,12.753707 
	C139.712173,13.683912 139.909149,14.739663 139.909149,15.739617 
	C139.908081,243.735260 139.906021,471.730927 139.915085,699.726562 
	C139.915298,705.072571 140.696686,710.097168 146.629700,713.079712 
	C146.978775,713.418274 147.057266,713.820923 146.779694,713.895752 
	C146.319366,714.028381 146.136627,714.086121 145.953888,714.143921 
	C139.817200,711.850952 138.209030,709.446228 138.207886,702.440796 
	C138.197418,638.116211 138.188889,573.791626 138.187561,509.467010 
	C138.184998,385.317810 138.182312,261.168610 138.190811,137.019394 
	C138.193588,96.524979 138.190170,56.030418 138.336700,15.536460 
	C138.347443,12.567953 139.556732,9.603784 140.208801,6.637597 
	C143.039185,8.029797 146.174438,9.023065 148.632858,10.901958 
	C152.987961,14.230425 156.931778,18.097046 161.221954,21.996628 
z"/>
<path fill="#3B3D6A" opacity="1.000000" stroke="none" 
	d="
M436.015015,468.014221 
	C439.335571,468.349670 442.660370,469.007263 445.975952,468.963776 
	C458.927582,468.793823 471.877533,468.102783 484.825928,468.153809 
	C513.434509,468.266541 542.045532,469.090912 570.647217,468.800018 
	C579.778442,468.707184 589.180847,466.966766 597.912842,464.234283 
	C605.962708,461.715210 613.244385,456.781525 620.929626,453.045654 
	C627.944031,449.635956 634.118408,445.367371 638.247009,438.481506 
	C638.813110,437.537323 640.856628,437.479004 642.857239,437.004822 
	C643.670105,436.999725 643.841919,437.000275 644.013794,437.000854 
	C626.493591,456.325775 604.588684,467.253326 578.815247,470.027222 
	C568.593079,471.127380 558.204773,470.872162 547.891174,470.900177 
	C511.764557,470.998322 475.636322,471.079102 439.512665,470.740662 
	C436.264404,470.710266 433.044861,467.613007 429.732849,465.600830 
	C430.868866,465.822937 432.084015,466.384216 433.671356,467.270386 
	C434.700684,467.734863 435.357849,467.874542 436.015015,468.014221 
z"/>
<path fill="#191D4C" opacity="1.000000" stroke="none" 
	d="
M388.035767,706.529663 
	C387.600861,705.240234 387.033447,703.498596 387.032959,701.756836 
	C386.990570,545.182068 386.990570,388.607330 387.005737,232.032578 
	C387.005890,230.553391 387.246521,229.074234 387.672058,227.302063 
	C388.089203,229.328094 388.313538,231.647110 388.314209,233.966171 
	C388.356812,381.515869 388.385895,529.065552 388.396790,676.615234 
	C388.397491,686.435974 388.247681,696.256714 388.035767,706.529663 
z"/>
<path fill="#292F59" opacity="1.000000" stroke="none" 
	d="
M559.000000,713.000000 
	C561.784058,712.667419 564.568176,712.045654 567.352112,712.046997 
	C594.824158,712.059937 621.835571,708.471924 648.322327,701.311279 
	C663.712952,697.150452 679.028259,692.634644 694.157410,687.615173 
	C701.833557,685.068481 708.979126,680.951538 716.457642,677.762817 
	C718.630493,676.836304 721.125061,676.664429 723.907166,676.269409 
	C700.713196,688.396362 675.754944,696.678772 650.077759,702.965759 
	C620.458069,710.218079 590.427002,714.112183 559.456421,713.802551 
	C558.998718,713.469788 559.000000,713.000000 559.000000,713.000000 
z"/>
<path fill="#272C59" opacity="1.000000" stroke="none" 
	d="
M431.428589,512.867188 
	C431.033203,518.067383 429.795410,523.405090 429.679352,528.767090 
	C429.334473,544.698547 429.406067,560.639465 429.384857,576.576843 
	C429.382019,578.710938 429.962769,580.845215 429.968170,582.980103 
	C430.016479,602.116760 429.996307,621.253540 429.996521,640.390320 
	C429.996674,654.951050 430.136444,669.513611 429.937805,684.071655 
	C429.840912,691.173401 429.113373,698.266541 428.407349,705.666504 
	C428.043457,701.818848 427.859344,697.668274 427.856323,693.517578 
	C427.815277,637.217712 427.733948,580.917664 427.920258,524.618530 
	C427.933044,520.747437 429.991730,516.883179 431.428589,512.867188 
z"/>
<path fill="#2C335F" opacity="1.000000" stroke="none" 
	d="
M592.608032,507.278534 
	C591.193237,508.169128 589.433655,509.627655 587.547913,509.814728 
	C578.329590,510.729218 569.080688,511.853485 559.837036,511.904755 
	C520.203674,512.124695 480.568237,511.993347 440.465637,511.675812 
	C439.996887,510.947540 439.996094,510.533478 439.995300,510.119415 
	C462.976868,510.069702 485.958344,510.003052 508.939911,509.975769 
	C526.929871,509.954407 544.926941,510.286133 562.906982,509.866272 
	C572.687927,509.637909 582.440002,508.169464 592.608032,507.278534 
z"/>
<path fill="#292D5C" opacity="1.000000" stroke="none" 
	d="
M428.998779,295.985260 
	C429.331604,298.751984 429.910706,301.515106 429.951355,304.286102 
	C430.076996,312.849701 430.121490,321.418701 429.956360,329.980957 
	C429.835205,336.263824 429.014557,342.541565 429.057251,348.817841 
	C429.271790,380.379181 429.681519,411.939178 429.987030,443.499969 
	C430.040924,449.068207 429.925507,454.638062 429.625580,460.614838 
	C428.949615,461.010498 428.536377,460.998505 428.123108,460.986511 
	C428.035553,441.201477 427.895935,421.416534 427.872040,401.631470 
	C427.831879,368.365387 427.865295,335.099243 427.968536,300.988129 
	C428.379150,298.757172 428.688965,297.371216 428.998779,295.985260 
z"/>
<path fill="#4F7AA8" opacity="1.000000" stroke="none" 
	d="
M920.363770,410.843994 
	C920.926636,400.882996 922.201721,390.697723 922.577637,380.479370 
	C923.113159,365.923065 923.087402,351.342438 923.088745,336.772217 
	C923.089172,332.151337 922.354004,327.534088 922.051758,322.908875 
	C920.713318,302.424774 918.256592,282.126740 912.294189,262.385254 
	C912.031616,261.515930 912.375366,260.463440 912.714600,259.250702 
	C915.656128,270.773407 918.996155,282.435822 920.857056,294.329681 
	C926.522339,330.539703 926.820496,366.883423 921.959351,403.237579 
	C921.629272,405.706512 921.107178,408.149750 920.363770,410.843994 
z"/>
<path fill="#22264F" opacity="1.000000" stroke="none" 
	d="
M147.057266,713.820923 
	C147.057266,713.820923 146.978775,713.418274 146.943420,713.216187 
	C223.064255,713.010010 299.220459,713.004272 375.376678,713.015015 
	C376.694366,713.015198 378.012085,713.215820 379.630554,713.602417 
	C379.931335,713.882019 380.095642,713.953491 379.795654,713.973389 
	C379.313141,714.057739 379.130646,714.122192 378.948120,714.186584 
	C378.525482,714.171814 378.102844,714.156982 376.905609,714.081299 
	C365.402313,714.096924 354.673645,714.173401 343.944946,714.249878 
	C342.586029,714.221680 341.227142,714.193542 339.001831,714.093201 
	C329.071564,714.115295 320.007690,714.209473 310.943817,714.303711 
	C309.906067,714.273193 308.868347,714.242676 306.984222,714.136475 
	C270.554077,714.047058 234.970306,714.026184 199.386536,714.032288 
	C196.237808,714.032837 193.089096,714.210144 189.940384,714.305420 
	C189.219284,714.274597 188.498199,714.243713 186.958832,714.138062 
	C173.112793,713.982422 160.085037,713.901672 147.057266,713.820923 
z"/>
<path fill="#4D78A0" opacity="1.000000" stroke="none" 
	d="
M429.613586,5.132954 
	C429.622253,34.671883 429.178101,64.445457 429.043945,94.220428 
	C428.888641,128.700272 428.905518,163.181900 429.093384,197.661392 
	C429.129059,204.208771 430.311035,210.749878 430.907959,217.734253 
	C429.868103,215.651962 428.030609,213.131104 428.025238,210.606369 
	C427.883514,144.111023 427.919983,77.615234 428.003143,11.119632 
	C428.005554,9.201955 428.847412,7.285330 429.613586,5.132954 
z"/>
<path fill="#333660" opacity="1.000000" stroke="none" 
	d="
M652.258484,305.335602 
	C650.578735,304.396759 648.607666,303.329865 647.037598,301.840302 
	C639.978210,295.143036 633.586975,287.590515 625.876282,281.776825 
	C619.320496,276.833893 611.307739,273.812866 603.909668,269.999695 
	C591.113892,263.404388 577.235535,263.007172 563.294556,262.936005 
	C562.598389,262.932434 561.905701,262.267700 561.103027,261.527954 
	C598.895142,260.152222 629.574463,274.164612 652.258484,305.335602 
z"/>
<path fill="#333660" opacity="1.000000" stroke="none" 
	d="
M661.475586,410.395752 
	C663.238831,402.566620 665.600708,394.544830 667.281799,386.382812 
	C670.963562,368.506683 669.314941,350.756195 664.476440,333.356934 
	C662.572083,326.509003 659.183838,320.073761 656.711487,313.231201 
	C669.239624,334.065674 673.294373,356.799774 669.526489,380.687103 
	C667.952759,390.664398 664.411926,400.331421 661.475586,410.395752 
z"/>
<path fill="#3D6B9C" opacity="1.000000" stroke="none" 
	d="
M434.029022,220.020355 
	C438.973419,220.344482 443.917328,220.940109 448.862335,220.949799 
	C488.609344,221.027756 528.356567,220.981857 568.103699,221.038254 
	C569.981689,221.040924 571.858826,221.652191 573.859741,222.348450 
	C530.501404,222.627151 487.019684,222.557739 443.538239,222.402740 
	C440.587830,222.392227 437.639709,221.738129 434.356567,220.917572 
	C434.022583,220.451797 434.029022,220.020355 434.029022,220.020355 
z"/>
<path fill="#507CAC" opacity="1.000000" stroke="none" 
	d="
M789.226074,72.151962 
	C786.454407,71.170357 783.341370,70.242775 780.678711,68.589752 
	C770.139587,62.046894 759.737122,55.283646 749.293701,48.587048 
	C746.106384,46.543285 743.109680,44.129784 739.741638,42.457901 
	C734.923035,40.066002 729.738953,38.411610 724.915039,36.028938 
	C722.100037,34.638550 719.682861,32.442646 717.038940,30.255985 
	C728.030457,35.250900 739.479370,39.905205 750.006165,46.121197 
	C763.424561,54.044636 776.097412,63.230766 789.226074,72.151962 
z"/>
<path fill="#517DA9" opacity="1.000000" stroke="none" 
	d="
M709.979980,382.556183 
	C709.966919,383.026947 709.493774,382.960663 709.171509,382.782288 
	C708.674744,382.381989 708.460449,382.209656 708.206238,382.086945 
	C710.462341,357.870148 707.351868,334.400360 698.308411,311.783112 
	C696.585510,307.474152 694.569763,303.282257 692.633972,298.681580 
	C693.430054,298.980743 694.729370,299.459778 695.063477,300.315582 
	C698.468689,309.038605 701.631897,317.855988 705.026611,326.583252 
	C712.041931,344.618439 709.583801,363.474548 709.979980,382.556183 
z"/>
<path fill="#507CA9" opacity="1.000000" stroke="none" 
	d="
M589.170776,224.422089 
	C592.394958,224.339935 595.989990,224.074631 599.397339,224.752625 
	C612.000305,227.260254 623.825806,232.122070 635.062988,238.179550 
	C640.953125,241.354675 646.154602,245.807404 651.656372,250.049179 
	C643.043701,245.510986 634.843201,239.607056 625.739624,235.952362 
	C614.023560,231.248871 601.583557,228.348785 589.170776,224.422089 
z"/>
<path fill="#507CA9" opacity="1.000000" stroke="none" 
	d="
M651.799072,250.744171 
	C656.481506,251.354126 660.521240,252.832504 663.627258,257.483246 
	C666.228027,261.377228 670.889404,263.859009 674.468201,267.150970 
	C676.246338,268.786560 677.937378,270.666168 679.142273,272.740631 
	C680.954346,275.860443 682.305176,279.248169 683.725891,282.929565 
	C674.193726,271.445312 664.106689,260.220581 651.799072,250.744171 
z"/>
<path fill="#567BA8" opacity="1.000000" stroke="none" 
	d="
M912.672546,256.652008 
	C911.122253,253.353851 909.485962,249.705368 908.016602,245.990829 
	C905.345215,239.237518 902.767151,232.447220 900.160645,225.668320 
	C896.160339,215.264709 892.168945,204.857697 888.319580,194.065689 
	C892.535339,202.564285 897.086731,211.266083 900.555176,220.380035 
	C905.042847,232.171921 908.666260,244.292709 912.672546,256.652008 
z"/>
<path fill="#517AA8" opacity="1.000000" stroke="none" 
	d="
M898.424622,490.961578 
	C899.583191,485.512115 900.860352,479.816376 902.537415,474.240906 
	C904.851501,466.547913 907.539978,458.968323 909.931519,451.297607 
	C911.960754,444.789154 913.796143,438.220276 916.078064,431.338989 
	C916.438843,430.999847 916.853821,431.000916 916.853821,431.000916 
	C912.295410,447.070465 907.806824,463.160400 903.128906,479.195099 
	C901.976440,483.145447 900.207275,486.915833 898.424622,490.961578 
z"/>
<path fill="#21254E" opacity="1.000000" stroke="none" 
	d="
M558.531372,712.998901 
	C559.000000,713.000000 558.998718,713.469788 558.996216,713.704712 
	C529.272644,714.034912 499.551605,714.148438 469.830505,714.215576 
	C459.534546,714.238770 449.238281,714.146851 438.483887,714.012085 
	C439.932190,713.611145 441.838470,713.041565 443.745544,713.038879 
	C481.851196,712.986023 519.956970,712.998596 558.531372,712.998901 
z"/>
<path fill="#333660" opacity="1.000000" stroke="none" 
	d="
M428.999115,295.518127 
	C428.688965,297.371216 428.379150,298.757172 428.050598,300.518982 
	C427.987396,291.145660 427.722015,281.390686 427.975311,271.649231 
	C428.147034,265.045593 432.101654,261.332367 438.673889,260.990540 
	C442.797638,260.776093 446.942200,260.961517 451.537842,261.053833 
	C451.005768,261.756744 450.065552,262.766693 449.009735,262.907043 
	C446.894135,263.188232 444.715332,262.995117 442.562622,262.995819 
	C432.652252,262.998962 429.389221,266.062042 429.044464,276.174744 
	C428.830200,282.460052 429.001312,288.758484 428.999115,295.518127 
z"/>
<path fill="#2C335F" opacity="1.000000" stroke="none" 
	d="
M708.120056,382.506653 
	C708.460449,382.209656 708.674744,382.381989 708.932861,382.793762 
	C709.092102,396.665070 705.248108,409.525940 700.695618,422.220398 
	C700.347473,423.191162 699.173828,423.865967 698.014709,424.734253 
	C702.820374,411.260406 706.810242,397.436584 708.120056,382.506653 
z"/>
<path fill="#292F59" opacity="1.000000" stroke="none" 
	d="
M760.826660,656.363892 
	C760.643188,655.443542 760.382935,653.814453 760.954407,653.433777 
	C769.166138,647.962402 777.487610,642.655579 785.799316,637.335266 
	C786.026306,637.190002 786.439026,637.334961 787.106628,637.535889 
	C778.677612,643.896729 769.907166,650.066223 760.826660,656.363892 
z"/>
<path fill="#4A5173" opacity="1.000000" stroke="none" 
	d="
M184.971924,42.596817 
	C184.623276,42.891998 184.012451,43.075058 183.652206,42.852524 
	C175.142181,37.595497 167.570587,31.271366 161.631195,22.867119 
	C169.418228,29.114725 177.122345,35.705235 184.971924,42.596817 
z"/>
<path fill="#567BA8" opacity="1.000000" stroke="none" 
	d="
M884.346802,185.347137 
	C883.930054,185.573563 883.201111,185.593491 883.029175,185.293854 
	C877.713806,176.029266 872.452942,166.733444 867.284546,157.062286 
	C873.021667,166.118652 878.657959,175.555161 884.346802,185.347137 
z"/>
<path fill="#333660" opacity="1.000000" stroke="none" 
	d="
M647.548340,433.104980 
	C647.503906,431.893585 647.395508,430.309387 648.054199,429.167755 
	C651.287354,423.564087 654.691589,418.057495 658.130371,412.576172 
	C658.568665,411.877533 659.562988,411.527649 660.685059,411.006409 
	C656.659546,418.309814 652.248840,425.623016 647.548340,433.104980 
z"/>
<path fill="#567BA8" opacity="1.000000" stroke="none" 
	d="
M856.857544,566.225830 
	C857.850281,563.649292 858.798157,560.710999 860.458740,558.254578 
	C863.530823,553.710449 867.020325,549.448425 870.689880,545.044128 
	C866.407227,552.040100 861.770691,559.060791 856.857544,566.225830 
z"/>
<path fill="#2C335F" opacity="1.000000" stroke="none" 
	d="
M620.545959,499.289215 
	C617.577026,501.008972 614.370178,503.331177 610.787720,504.440033 
	C605.850403,505.968231 600.629456,506.580048 595.272583,507.309296 
	C603.390320,504.472992 611.765442,501.911835 620.545959,499.289215 
z"/>
<path fill="#567BA8" opacity="1.000000" stroke="none" 
	d="
M871.312134,544.868652 
	C873.354980,539.916748 875.611938,534.752563 878.056274,529.678711 
	C878.954590,527.814087 880.295776,526.162903 881.991211,524.206543 
	C882.734985,524.001343 882.922363,524.004089 883.109802,524.006897 
	C879.273438,530.901978 875.437073,537.797119 871.312134,544.868652 
z"/>
<path fill="#BBBED9" opacity="1.000000" stroke="none" 
	d="
M146.779694,713.895752 
	C160.085037,713.901672 173.112793,713.982422 186.600220,714.184082 
	C186.256210,714.550171 185.452560,714.795288 184.323502,715.082886 
	C171.543396,714.957642 159.088699,714.789917 146.293945,714.383057 
	C146.136627,714.086121 146.319366,714.028381 146.779694,713.895752 
z"/>
<path fill="#517DA9" opacity="1.000000" stroke="none" 
	d="
M685.001709,283.996338 
	C685.910828,284.573792 687.067566,284.962189 687.680847,285.765472 
	C689.275635,287.854370 690.862793,290.013885 691.998901,292.364685 
	C692.711914,293.839874 692.604553,295.711548 692.741638,297.836426 
	C689.762939,293.742096 686.907898,289.216614 684.247437,284.346008 
	C684.628601,283.999359 684.815125,283.997864 685.001709,283.996338 
z"/>
<path fill="#292F59" opacity="1.000000" stroke="none" 
	d="
M724.681580,676.362671 
	C726.817566,674.322815 729.058472,671.760620 731.852112,670.168091 
	C734.483154,668.668335 737.696899,668.190613 741.035339,667.404175 
	C735.953552,670.451294 730.490662,673.357544 724.681580,676.362671 
z"/>
<path fill="#2C335F" opacity="1.000000" stroke="none" 
	d="
M696.547119,427.012878 
	C695.805298,431.100464 694.925354,435.455566 693.660889,439.696045 
	C693.459351,440.371826 691.531372,440.532776 689.982849,440.891541 
	C691.803406,436.315033 694.042603,431.778748 696.547119,427.012878 
z"/>
<path fill="#292F59" opacity="1.000000" stroke="none" 
	d="
M741.810303,667.424622 
	C744.170227,662.037720 749.177979,660.232422 755.053589,659.373535 
	C750.985291,662.104492 746.562805,664.707825 741.810303,667.424622 
z"/>
<path fill="#BBBED9" opacity="1.000000" stroke="none" 
	d="
M344.284424,714.490845 
	C354.673645,714.173401 365.402313,714.096924 376.591980,714.132263 
	C371.345428,714.487488 365.639862,714.846558 359.929932,714.939758 
	C354.830383,715.023010 349.726074,714.812622 344.284424,714.490845 
z"/>
<path fill="#567BA8" opacity="1.000000" stroke="none" 
	d="
M839.693298,588.209717 
	C840.704712,583.567566 842.903442,579.448425 847.992310,577.301086 
	C845.579468,580.978516 842.784180,584.527771 839.693298,588.209717 
z"/>
<path fill="#567BA8" opacity="1.000000" stroke="none" 
	d="
M828.784546,600.273376 
	C829.099365,594.650513 834.157776,592.579773 838.033936,589.371460 
	C835.291931,593.058594 832.188416,596.610840 828.784546,600.273376 
z"/>
<path fill="#BBBED9" opacity="1.000000" stroke="none" 
	d="
M311.286133,714.541077 
	C320.007690,714.209473 329.071564,714.115295 338.596008,714.136414 
	C337.941833,714.512939 336.827057,714.774048 335.356750,715.075012 
	C327.210297,715.002747 319.419373,714.890625 311.286133,714.541077 
z"/>
<path fill="#517AA8" opacity="1.000000" stroke="none" 
	d="
M864.890747,152.688354 
	C859.441589,151.767609 858.757080,146.803909 857.067932,142.250488 
	C859.670837,145.361908 862.237915,148.859009 864.890747,152.688354 
z"/>
<path fill="#2C335F" opacity="1.000000" stroke="none" 
	d="
M645.174316,486.655334 
	C644.384155,490.484467 639.544250,493.636536 634.021667,493.565979 
	C637.374084,491.177063 641.115784,488.975403 645.174316,486.655334 
z"/>
<path fill="#2C335F" opacity="1.000000" stroke="none" 
	d="
M633.104248,493.573181 
	C631.853882,496.561554 624.991028,500.299561 621.794922,499.350830 
	C625.377625,497.224121 629.080750,495.461945 633.104248,493.573181 
z"/>
<path fill="#517AA8" opacity="1.000000" stroke="none" 
	d="
M888.617676,513.062866 
	C890.125183,508.964569 891.916077,504.679657 894.070435,500.352417 
	C892.589600,504.498749 890.745361,508.687469 888.617676,513.062866 
z"/>
<path fill="#567BA8" opacity="1.000000" stroke="none" 
	d="
M812.801758,616.278809 
	C812.699890,611.969238 815.673035,610.150940 819.771973,609.072266 
	C817.799988,611.462830 815.451172,613.815918 812.801758,616.278809 
z"/>
<path fill="#2C335F" opacity="1.000000" stroke="none" 
	d="
M687.544922,443.981964 
	C687.914551,448.207245 686.287964,451.611084 681.755127,453.339539 
	C683.367798,450.179504 685.316650,447.176941 687.544922,443.981964 
z"/>
<path fill="#2C335F" opacity="1.000000" stroke="none" 
	d="
M653.530396,480.903564 
	C654.963562,486.420380 650.908203,485.720917 647.179871,485.863281 
	C648.916077,484.204346 651.062256,482.604889 653.530396,480.903564 
z"/>
<path fill="#4F7AA8" opacity="1.000000" stroke="none" 
	d="
M918.379150,421.966431 
	C918.538391,418.609375 919.009705,415.040436 919.789246,411.243134 
	C919.628723,414.594696 919.159973,418.174652 918.379150,421.966431 
z"/>
<path fill="#333660" opacity="1.000000" stroke="none" 
	d="
M656.317749,311.722076 
	C652.652771,311.914795 650.168274,310.848480 652.242798,306.044495 
	C653.661072,307.598816 654.949402,309.511749 656.317749,311.722076 
z"/>
<path fill="#2C335F" opacity="1.000000" stroke="none" 
	d="
M676.669556,459.050049 
	C677.688538,462.608337 676.105591,464.562500 671.981689,464.882019 
	C673.172058,462.983765 674.772400,461.094269 676.669556,459.050049 
z"/>
<path fill="#4A5173" opacity="1.000000" stroke="none" 
	d="
M191.981689,48.637348 
	C189.800827,47.152912 187.470154,45.368950 185.117493,43.231598 
	C187.340942,44.698082 189.586426,46.517952 191.981689,48.637348 
z"/>
<path fill="#507CAC" opacity="1.000000" stroke="none" 
	d="
M799.993164,80.654724 
	C798.119324,79.521965 796.068665,78.104698 794.026489,76.313324 
	C795.962036,77.416229 797.889221,78.893227 799.993164,80.654724 
z"/>
<path fill="#567BA8" opacity="1.000000" stroke="none" 
	d="
M805.488403,623.080383 
	C804.761902,621.753845 804.334473,620.300842 803.895020,618.468933 
	C805.447021,618.448853 807.010986,618.807678 808.970093,619.308105 
	C808.172546,620.617798 806.979980,621.785828 805.488403,623.080383 
z"/>
<path fill="#4F7AA8" opacity="1.000000" stroke="none" 
	d="
M917.009338,430.668701 
	C916.853821,431.000916 916.438843,430.999847 916.231689,430.999939 
	C916.500122,428.485901 916.975769,425.971802 917.735718,423.220947 
	C917.734863,425.434967 917.449829,427.885712 917.009338,430.668701 
z"/>
<path fill="#2C335F" opacity="1.000000" stroke="none" 
	d="
M670.541321,465.755646 
	C673.026184,469.684082 671.707581,470.993195 667.036865,469.909149 
	C667.855530,468.549225 669.047668,467.227264 670.541321,465.755646 
z"/>
<path fill="#4D78A0" opacity="1.000000" stroke="none" 
	d="
M854.080933,137.551605 
	C852.495422,136.068787 850.820984,134.260651 849.219849,132.076294 
	C850.859436,133.542160 852.425781,135.384232 854.080933,137.551605 
z"/>
<path fill="#567BA8" opacity="1.000000" stroke="none" 
	d="
M849.554932,576.118652 
	C850.417847,574.300598 851.577087,572.339050 853.111328,570.440369 
	C852.274658,572.327209 851.062988,574.151184 849.554932,576.118652 
z"/>
<path fill="#4D78A0" opacity="1.000000" stroke="none" 
	d="
M847.403076,129.089203 
	C843.841736,129.807617 843.188416,127.435783 843.036865,124.220718 
	C844.480286,125.481895 845.903015,127.136337 847.403076,129.089203 
z"/>
<path fill="#4D78A0" opacity="1.000000" stroke="none" 
	d="
M842.136108,122.596893 
	C840.845337,121.502197 839.425842,120.102333 838.015381,118.325867 
	C839.351990,119.396744 840.679688,120.844231 842.136108,122.596893 
z"/>
<path fill="#567BA8" opacity="1.000000" stroke="none" 
	d="
M824.923950,604.348938 
	C825.646606,603.043030 826.658508,601.641052 828.036011,600.355225 
	C827.338867,601.731934 826.276001,602.992371 824.923950,604.348938 
z"/>
<path fill="#567BA8" opacity="1.000000" stroke="none" 
	d="
M820.411377,609.039795 
	C821.309937,607.525635 822.516663,605.902466 824.080994,604.459839 
	C823.198914,606.070557 821.959229,607.500671 820.411377,609.039795 
z"/>
<path fill="#272C59" opacity="1.000000" stroke="none" 
	d="
M439.661560,510.048828 
	C439.996094,510.533478 439.996887,510.947540 439.996704,511.671722 
	C437.896729,511.972015 435.797729,511.962189 433.246216,511.895416 
	C433.980286,511.292145 435.166901,510.745819 436.792480,510.365356 
	C437.231415,510.531158 437.681824,510.549500 437.681824,510.549500 
	C437.681824,510.549500 437.987946,510.180359 437.987946,510.180359 
	C438.434570,510.112976 438.881165,510.045624 439.661560,510.048828 
z"/>
<path fill="#567BA8" opacity="1.000000" stroke="none" 
	d="
M888.387085,193.202744 
	C884.531921,193.719986 885.829773,190.474380 885.284363,188.140900 
	C886.387939,189.459000 887.358093,191.170395 888.387085,193.202744 
z"/>
<path fill="#292F59" opacity="1.000000" stroke="none" 
	d="
M787.995483,637.393799 
	C786.704773,634.092957 789.436340,634.497864 791.702637,634.025635 
	C790.820312,635.104980 789.545593,636.182495 787.995483,637.393799 
z"/>
<path fill="#2C335F" opacity="1.000000" stroke="none" 
	d="
M661.156433,474.691284 
	C661.752869,475.474762 662.074280,476.391754 662.539917,477.720215 
	C661.009216,477.789124 659.765503,477.845093 658.124268,477.826965 
	C658.778259,476.776855 659.829834,475.800842 661.156433,474.691284 
z"/>
<path fill="#292F59" opacity="1.000000" stroke="none" 
	d="
M755.736938,659.397888 
	C756.845398,658.420837 758.264771,657.335876 760.051270,656.386353 
	C758.961609,657.444519 757.504700,658.367310 755.736938,659.397888 
z"/>
<path fill="#507CAC" opacity="1.000000" stroke="none" 
	d="
M793.895996,75.672256 
	C792.491638,75.073189 790.923035,74.184608 789.398499,72.919327 
	C790.872314,73.489342 792.302063,74.436050 793.895996,75.672256 
z"/>
<path fill="#2C335F" opacity="1.000000" stroke="none" 
	d="
M680.934998,453.697998 
	C682.283691,455.479401 682.128540,456.816620 679.064636,456.903717 
	C679.323120,455.875305 680.009949,454.876038 680.934998,453.697998 
z"/>
<path fill="#2C335F" opacity="1.000000" stroke="none" 
	d="
M657.459351,477.822815 
	C656.701050,478.787689 655.642456,479.861938 654.194092,480.890869 
	C654.922485,479.874420 656.040771,478.903290 657.459351,477.822815 
z"/>
<path fill="#4D78A0" opacity="1.000000" stroke="none" 
	d="
M836.368408,116.101410 
	C835.321350,115.407448 834.189026,114.422928 833.089478,113.029877 
	C834.175842,113.684525 835.229492,114.747696 836.368408,116.101410 
z"/>
<path fill="#517AA8" opacity="1.000000" stroke="none" 
	d="
M867.318604,156.325668 
	C866.578552,155.691818 865.778076,154.748642 864.978027,153.414108 
	C865.738403,154.020615 866.498291,155.018478 867.318604,156.325668 
z"/>
<path fill="#3B3D6A" opacity="1.000000" stroke="none" 
	d="
M428.073059,461.325378 
	C428.536377,460.998505 428.949615,461.010498 429.672546,461.028625 
	C429.943054,462.170929 429.903839,463.307098 429.772644,464.862885 
	C429.128113,464.076416 428.575562,462.870361 428.073059,461.325378 
z"/>
<path fill="#333660" opacity="1.000000" stroke="none" 
	d="
M644.803406,436.258881 
	C645.205566,435.334351 645.863525,434.249481 646.906006,433.206238 
	C646.546814,434.198120 645.803040,435.148346 644.803406,436.258881 
z"/>
<path fill="#517AA8" opacity="1.000000" stroke="none" 
	d="
M894.701172,500.061096 
	C894.693115,498.883514 894.960693,497.518066 895.596191,496.078735 
	C895.635010,497.294312 895.305969,498.583771 894.701172,500.061096 
z"/>
<path fill="#517AA8" opacity="1.000000" stroke="none" 
	d="
M896.430298,495.097900 
	C896.565491,493.930298 897.026733,492.620544 897.840637,491.192535 
	C897.714294,492.368073 897.235291,493.661896 896.430298,495.097900 
z"/>
<path fill="#4D78A0" opacity="1.000000" stroke="none" 
	d="
M433.960724,219.662201 
	C434.029022,220.020355 434.022583,220.451797 434.015503,220.667328 
	C433.002167,220.176270 431.995911,219.469681 430.895081,218.461670 
	C431.831116,218.541519 432.861786,218.922775 433.960724,219.662201 
z"/>
<path fill="#517AA8" opacity="1.000000" stroke="none" 
	d="
M884.625854,521.068481 
	C884.779785,519.944214 885.209229,518.643799 886.022827,517.314636 
	C885.905151,518.488037 885.403320,519.690125 884.625854,521.068481 
z"/>
<path fill="#4D78A0" opacity="1.000000" stroke="none" 
	d="
M432.625183,2.197184 
	C432.141632,3.074113 431.356171,4.007738 430.225891,4.934941 
	C430.695099,4.036973 431.509186,3.145427 432.625183,2.197184 
z"/>
<path fill="#507CA9" opacity="1.000000" stroke="none" 
	d="
M586.331909,223.087799 
	C586.998779,223.115936 587.939331,223.318237 588.878540,223.855331 
	C588.120056,223.880737 587.362732,223.571350 586.331909,223.087799 
z"/>
<path fill="#4D78A0" opacity="1.000000" stroke="none" 
	d="
M849.258545,131.424545 
	C848.643738,131.240036 847.959534,130.770966 847.436523,129.943710 
	C848.128235,130.103683 848.658691,130.621841 849.258545,131.424545 
z"/>
<path fill="#517AA8" opacity="1.000000" stroke="none" 
	d="
M857.079834,141.614075 
	C856.505188,141.390976 855.859680,140.876999 855.308105,140.007446 
	C855.937744,140.208984 856.473328,140.766098 857.079834,141.614075 
z"/>
<path fill="#567BA8" opacity="1.000000" stroke="none" 
	d="
M809.711792,619.285645 
	C809.833313,618.657227 810.230774,617.940186 811.002075,617.319702 
	C810.913208,618.009888 810.450439,618.603455 809.711792,619.285645 
z"/>
<path fill="#567BA8" opacity="1.000000" stroke="none" 
	d="
M854.646118,569.209045 
	C854.831299,568.359436 855.302307,567.378479 856.120300,566.412903 
	C855.955505,567.311401 855.443787,568.194580 854.646118,569.209045 
z"/>
<path fill="#4D78A0" opacity="1.000000" stroke="none" 
	d="
M837.944092,117.701935 
	C837.491150,117.720566 836.932861,117.463737 836.400269,116.874634 
	C836.896912,116.837059 837.367859,117.131767 837.944092,117.701935 
z"/>
<path fill="#517AA8" opacity="1.000000" stroke="none" 
	d="
M855.351013,139.420334 
	C854.970459,139.312820 854.535889,138.911621 854.118164,138.174805 
	C854.522339,138.268341 854.909668,138.697495 855.351013,139.420334 
z"/>
<path fill="#567BA8" opacity="1.000000" stroke="none" 
	d="
M885.406616,187.383957 
	C885.018005,187.254929 884.596741,186.836960 884.271240,186.080414 
	C884.702637,186.192902 885.038269,186.643951 885.406616,187.383957 
z"/>
<path fill="#2C335F" opacity="1.000000" stroke="none" 
	d="
M688.709106,442.049316 
	C688.757080,442.464233 688.555664,443.056976 688.053101,443.772461 
	C687.987793,443.339172 688.223694,442.783142 688.709106,442.049316 
z"/>
<path fill="#517AA8" opacity="1.000000" stroke="none" 
	d="
M883.554138,523.082764 
	C883.432129,522.614746 883.573425,521.993835 884.055176,521.306641 
	C884.202942,521.803467 884.010193,522.366638 883.554138,523.082764 
z"/>
<path fill="#2C335F" opacity="1.000000" stroke="none" 
	d="
M697.466919,424.913971 
	C697.591980,425.352234 697.474487,425.985077 697.045776,426.755310 
	C696.897827,426.298004 697.061096,425.703278 697.466919,424.913971 
z"/>
<path fill="#517AA8" opacity="1.000000" stroke="none" 
	d="
M887.436646,515.041992 
	C887.345886,514.574463 887.533569,513.968262 888.056885,513.298828 
	C888.166687,513.791443 887.940918,514.347412 887.436646,515.041992 
z"/>
<path fill="#517AA8" opacity="1.000000" stroke="none" 
	d="
M886.632080,517.077271 
	C886.454224,516.624390 886.532410,515.996460 886.917358,515.225159 
	C887.112122,515.688599 887.000122,516.295471 886.632080,517.077271 
z"/>
<path fill="#2C335F" opacity="1.000000" stroke="none" 
	d="
M646.591187,485.787811 
	C646.621094,486.034454 646.389771,486.325653 645.863892,486.573059 
	C645.822815,486.296967 646.076416,486.064667 646.591187,485.787811 
z"/>
<path fill="#517AA8" opacity="1.000000" stroke="none" 
	d="
M883.241699,523.845703 
	C882.922363,524.004089 882.734985,524.001343 882.266357,523.992432 
	C882.258789,523.740356 882.532471,523.494446 883.093506,523.258240 
	C883.380920,523.267944 883.373657,523.684509 883.241699,523.845703 
z"/>
<path fill="#567BA8" opacity="1.000000" stroke="none" 
	d="
M853.737610,570.305908 
	C853.599182,570.041992 853.691772,569.700378 854.083984,569.365234 
	C854.382507,569.723877 854.244202,570.009399 853.737610,570.305908 
z"/>
<path fill="#2C335F" opacity="1.000000" stroke="none" 
	d="
M665.584351,470.698700 
	C665.657593,470.927917 665.460571,471.281525 664.957275,471.712097 
	C664.871948,471.467072 665.092957,471.145081 665.584351,470.698700 
z"/>
<path fill="#567BA8" opacity="1.000000" stroke="none" 
	d="
M848.580200,577.230469 
	C848.456665,576.989319 848.583435,576.648254 848.994507,576.241943 
	C849.129395,576.494568 848.979980,576.812561 848.580200,577.230469 
z"/>
<path fill="#2C335F" opacity="1.000000" stroke="none" 
	d="
M664.492859,471.744598 
	C664.572632,471.993439 664.390625,472.315674 663.914978,472.658447 
	C663.824585,472.392029 664.027832,472.105011 664.492859,471.744598 
z"/>
<path fill="#BBBED9" opacity="1.000000" stroke="none" 
	d="
M379.062256,714.326782 
	C379.130646,714.122192 379.313141,714.057739 379.777924,714.061218 
	C379.765594,714.241699 379.470978,714.354309 379.062256,714.326782 
z"/>
<path fill="#2C335F" opacity="1.000000" stroke="none" 
	d="
M663.428589,472.702423 
	C663.499268,472.949127 663.328430,473.272461 662.860718,473.572266 
	C662.771667,473.292175 662.979370,473.035645 663.428589,472.702423 
z"/>
<path fill="#2C335F" opacity="1.000000" stroke="none" 
	d="
M662.315247,473.657104 
	C662.400757,473.901917 662.268433,474.234680 661.839661,474.525940 
	C661.636658,474.169525 661.821350,473.923096 662.315247,473.657104 
z"/>
<path fill="#333660" opacity="1.000000" stroke="none" 
	d="
M644.162842,436.932495 
	C643.841919,437.000275 643.670105,436.999725 643.240417,436.998169 
	C643.280884,436.793610 643.579346,436.590027 644.147278,436.470032 
	C644.416809,436.553558 644.311829,436.864166 644.162842,436.932495 
z"/>
<path fill="#567BA8" opacity="1.000000" stroke="none" 
	d="
M838.646057,589.279358 
	C838.522522,589.022217 838.641357,588.681641 839.056641,588.324524 
	C839.198181,588.604004 839.043274,588.900024 838.646057,589.279358 
z"/>
<path fill="#507CA9" opacity="1.000000" stroke="none" 
	d="
M684.833130,283.762939 
	C684.815125,283.997864 684.628601,283.999359 684.162048,284.003662 
	C683.882080,284.006500 683.610474,283.743622 683.587830,283.557800 
	C683.931641,283.424469 684.298035,283.476990 684.833130,283.762939 
z"/>
<path fill="#272C59" opacity="1.000000" stroke="none" 
	d="
M432.610779,511.845764 
	C432.672852,512.069153 432.467468,512.384460 431.973938,512.758179 
	C431.904968,512.523682 432.124115,512.230713 432.610779,511.845764 
z"/>
<path fill="#567BA8" opacity="1.000000" stroke="none" 
	d="
M811.588501,617.294250 
	C811.476501,617.019653 811.620544,616.682373 812.065125,616.355957 
	C812.192017,616.655151 812.018311,616.943359 811.588501,617.294250 
z"/>
<path fill="#2C335F" opacity="1.000000" stroke="none" 
	d="
M437.740967,510.124542 
	C437.987946,510.180359 437.681824,510.549500 437.681824,510.549500 
	C437.681824,510.549500 437.231415,510.531158 437.130615,510.401215 
	C437.184509,510.203735 437.339233,510.136230 437.740967,510.124542 
z"/>
<path fill="#567BA8" opacity="1.000000" stroke="none" 
	d="
M803.842224,617.849854 
	C803.560974,618.028992 803.309631,617.842224 803.101685,617.280273 
	C803.360229,617.141418 803.602600,617.334351 803.842224,617.849854 
z"/>
<path fill="#BBBED9" opacity="1.000000" stroke="none" 
	d="
M190.182861,714.523376 
	C193.089096,714.210144 196.237808,714.032837 199.386536,714.032288 
	C234.970306,714.026184 270.554077,714.047058 306.597107,714.182251 
	C299.348907,714.543701 291.641510,714.783630 283.466675,715.063599 
	C279.967926,715.073608 276.936584,715.043518 273.452484,715.055237 
	C267.308960,715.076111 261.618195,715.055176 255.129974,715.037109 
	C253.890579,715.066223 253.448624,715.092590 253.006668,715.119019 
	C252.253860,715.093018 251.501038,715.067017 250.373322,715.083252 
	C231.310959,715.097778 212.623489,715.069946 193.468918,715.083984 
	C192.142975,714.997681 191.284149,714.869507 190.182861,714.523376 
z"/>
<path fill="#FBFCFC" opacity="1.000000" stroke="none" 
	d="
M253.049088,715.401245 
	C253.448624,715.092590 253.890579,715.066223 254.663147,715.075928 
	C254.678009,715.599792 254.362274,716.087585 254.046539,716.575378 
	C253.728195,716.278076 253.409851,715.980835 253.049088,715.401245 
z"/>
<path fill="#292D5C" opacity="1.000000" stroke="none" 
	d="
M435.842682,467.767090 
	C435.357849,467.874542 434.700684,467.734863 434.011383,467.301270 
	C434.542938,467.178192 435.106659,467.349060 435.842682,467.767090 
z"/>
</svg>