<svg version="1.1" id="Layer_1" xmlns="http://www.w3.org/2000/svg" xmlns:xlink="http://www.w3.org/1999/xlink" x="0px" y="0px"
	 width="100%" viewBox="0 0 1024 1024" enable-background="new 0 0 1024 1024" xml:space="preserve">
<path fill="#FBFCFC" opacity="1.000000" stroke="none" 
	d="
M1.000000,821.000000 
	C1.000000,547.761719 1.000000,274.523499 1.000000,1.000000 
	C145.021301,1.000000 289.042816,1.000000 433.486694,1.207404 
	C433.909119,1.414809 433.832367,1.832473 433.537689,1.852404 
	C432.789429,2.220593 432.335846,2.568852 431.933167,2.937142 
	C431.984070,2.957174 431.914551,2.872694 431.600006,2.967125 
	C430.712189,3.925966 430.138947,4.790374 429.573822,5.687987 
	C429.581970,5.721192 429.633911,5.765666 429.303223,5.974370 
	C428.632446,7.786702 427.996338,9.390039 427.994781,10.994000 
	C427.929352,77.531052 427.888458,144.068222 428.029388,210.604996 
	C428.034729,213.132080 429.867126,215.655289 430.877045,218.108002 
	C430.905975,218.035690 430.799286,218.149185 430.898010,218.440369 
	C431.633728,219.222839 432.270721,219.714127 433.079407,220.463989 
	C433.828430,220.932877 434.405731,221.143219 435.094879,221.442444 
	C435.206757,221.531342 435.492279,221.519699 435.555115,221.526886 
	C435.617950,221.534088 435.744110,221.524582 435.896118,221.708740 
	C436.048157,221.892899 436.521149,222.012115 436.521149,222.012115 
	C436.521149,222.012115 437.002014,221.929321 437.422424,222.053131 
	C455.438904,222.160950 473.034912,222.144974 491.030029,222.309921 
	C498.069794,222.368576 504.710510,222.246323 511.786987,222.227737 
	C517.693970,222.262970 523.165161,222.194534 529.034302,222.306549 
	C535.069946,222.365280 540.707642,222.243576 546.751221,222.223373 
	C549.655884,222.260345 552.154602,222.195816 554.935181,222.294708 
	C556.260803,222.349319 557.304626,222.240479 558.717102,222.231354 
	C560.603394,222.262634 562.121033,222.194214 563.981262,222.298645 
	C565.808289,222.415085 567.292847,222.358643 569.177490,222.441498 
	C570.703796,222.593765 571.829956,222.606750 573.392700,222.752319 
	C609.460632,225.146973 640.560608,238.180206 665.958252,263.312866 
	C698.929199,295.939697 711.952209,336.041107 708.149536,382.362030 
	C703.439819,424.598236 684.703430,458.373688 650.366211,482.943237 
	C625.401428,500.806458 597.171753,509.561218 566.604675,509.855988 
	C524.977966,510.257416 483.344299,509.940735 441.713623,509.934784 
	C437.709595,509.934235 433.632843,509.733246 430.562866,513.753662 
	C429.441956,516.290405 427.944061,518.582764 427.930634,520.883789 
	C427.819733,539.912537 427.983673,558.942871 427.967743,578.434448 
	C427.931793,594.934265 427.992462,610.972351 427.965820,627.471069 
	C427.929993,645.616455 427.981476,663.301208 427.936096,681.423218 
	C427.907440,684.243103 427.975616,686.625610 427.956116,689.468018 
	C427.959381,695.273560 428.050293,700.619263 428.114319,706.323242 
	C429.728455,711.389404 432.653412,714.332642 438.483826,714.009583 
	C465.179260,714.137939 491.416748,714.211060 517.654175,714.183228 
	C533.424500,714.166565 549.194763,713.992310 565.425537,713.982910 
	C611.904785,713.125977 656.390381,704.296265 699.230835,687.545410 
	C738.286194,672.274658 773.806335,651.045105 805.535400,623.014648 
	C811.520081,617.500122 817.409973,612.319519 822.851990,606.704773 
	C886.300781,541.243103 919.769653,462.519226 924.733032,371.889923 
	C929.226929,289.833862 908.695374,214.189697 860.907898,147.009979 
	C801.308289,63.224751 719.680298,15.904067 617.599060,3.833858 
	C609.073547,2.825784 600.533386,1.941692 592.000000,0.999999 
	C736.283142,1.000000 880.566223,1.000000 1025.000000,1.000000 
	C1025.000000,274.021423 1025.000000,547.042908 1024.531494,820.540283 
	C972.857239,820.982788 921.651611,820.944336 870.445984,820.925476 
	C866.295105,820.923950 862.144165,821.057068 857.552612,821.214111 
	C857.073975,833.207764 857.036072,845.114990 857.179199,857.420959 
	C876.451721,857.888550 895.543518,857.926819 914.634399,858.071045 
	C916.680725,858.086548 918.722351,858.719360 920.647583,859.424927 
	C920.499573,900.559875 920.420227,941.335571 920.467957,982.111145 
	C920.484680,996.407654 920.813599,1010.703735 921.000000,1025.000000 
	C907.978577,1025.000000 894.957092,1025.000000 881.642456,1024.631836 
	C880.587646,1022.071777 879.941284,1019.831604 879.047546,1017.694885 
	C862.427673,977.962158 845.819763,938.224304 829.118591,898.525696 
	C819.906128,876.627563 810.526672,854.799683 801.196411,832.627991 
	C800.858032,831.805603 800.545776,831.295410 800.236267,830.839600 
	C800.239075,830.893982 800.321777,830.823120 800.287537,830.445679 
	C799.920471,829.133484 799.449341,828.223389 799.277771,827.259827 
	C798.307373,821.812622 794.998230,820.464355 789.746399,820.681213 
	C781.312988,821.029480 772.827881,820.899170 764.402100,820.372131 
	C759.262756,820.050598 757.086121,822.114990 756.726196,826.875122 
	C756.782532,826.893860 756.752686,826.778992 756.473083,826.974182 
	C755.456604,829.107483 754.719727,831.045532 753.991455,832.991821 
	C754.000000,833.000000 753.982910,832.984741 753.747925,833.242920 
	C752.589233,835.972534 751.665527,838.443970 750.494751,841.160278 
	C748.858093,844.791687 747.479797,848.183044 746.077087,851.564270 
	C722.934937,907.348877 699.782104,963.129150 676.676575,1018.929016 
	C675.879517,1020.854065 675.548340,1022.971985 675.000000,1025.000000 
	C639.978577,1025.000000 604.957092,1025.000000 569.293396,1024.771973 
	C568.494751,1024.199951 568.338318,1023.855896 568.301514,1023.260620 
	C568.352112,1022.652771 568.283020,1022.295959 568.346191,1021.633301 
	C568.388611,1020.901672 568.298889,1020.475952 568.318115,1019.667969 
	C568.360596,1018.500427 568.294189,1017.715088 568.372681,1016.588318 
	C568.429077,1015.523743 568.340759,1014.800659 568.371460,1013.656189 
	C568.424683,1011.784912 568.358948,1010.334900 568.439148,1008.472168 
	C568.490173,1005.742188 568.395264,1003.424988 568.420654,1000.713867 
	C568.458496,997.235413 568.376038,994.150818 568.445496,990.627075 
	C568.466370,985.476440 568.335327,980.764893 568.312744,975.636230 
	C568.348267,973.792053 568.275391,972.364929 568.338745,970.509705 
	C568.378540,967.401978 568.282104,964.722229 568.290894,961.685730 
	C568.415039,960.585449 568.433960,959.841919 568.890381,959.043579 
	C584.315125,958.928101 599.304504,958.996704 614.289368,958.769958 
	C628.735046,958.551453 642.319092,955.033630 654.326721,946.729065 
	C678.241028,930.189575 688.634949,900.141479 680.641479,871.155151 
	C672.697754,842.349548 648.520203,822.297546 617.899902,821.289246 
	C588.628906,820.325439 559.300415,821.107178 529.543457,821.185547 
	C528.914734,822.203796 528.586182,823.158325 528.587097,824.112610 
	C528.609497,847.433472 528.667480,870.754395 528.717957,894.075256 
	C528.812378,937.716858 528.906006,981.358398 529.000000,1025.000000 
	C522.311829,1025.000000 515.623718,1025.000000 508.360229,1024.541748 
	C507.784882,1012.143188 507.784882,1000.202759 507.784882,987.603760 
	C476.303833,987.603760 445.291962,987.603760 414.264038,987.603760 
	C414.115845,985.294800 414.009979,983.645203 413.985718,981.533325 
	C414.073669,941.336182 414.097168,901.601318 414.076477,861.866455 
	C414.069550,848.572510 413.949768,835.278503 413.916656,821.715454 
	C413.644257,821.352295 413.336792,821.258362 412.694794,821.087463 
	C411.911652,821.073669 411.463043,821.136780 410.553375,821.104980 
	C398.164429,821.010071 386.236511,821.010071 374.046814,821.010071 
	C374.046814,841.074219 374.051178,860.546265 374.045959,880.018372 
	C374.032959,928.345581 374.015594,976.672791 374.000000,1025.000000 
	C364.978577,1025.000000 355.957123,1025.000000 346.536835,1024.535645 
	C346.137970,1012.137146 346.137970,1000.202942 346.137970,988.096558 
	C324.571472,988.096558 303.304535,988.096558 281.602600,988.005371 
	C279.100433,987.977539 277.033203,988.040771 274.506470,988.023010 
	C267.710724,987.992432 261.374542,988.042908 254.697876,988.006104 
	C253.895721,987.975464 253.434036,988.032166 252.543808,988.004639 
	C250.082458,987.968811 248.049652,988.017151 245.642593,987.830811 
	C245.268341,971.509949 245.268341,955.423828 245.268341,938.827881 
	C274.272339,938.827881 303.165771,938.827881 332.341553,938.827881 
	C332.341553,926.566650 332.341553,914.816162 332.341553,902.464966 
	C303.167572,902.464966 274.250854,902.464966 245.312653,902.464966 
	C245.312653,887.330078 245.312653,872.799561 245.312653,857.899475 
	C278.173492,857.899475 310.601349,857.899475 343.100098,857.899475 
	C343.100098,845.455139 343.100098,833.389404 343.100098,821.232422 
	C296.890839,821.232422 251.002838,821.232422 205.000000,821.232422 
	C205.000000,889.388062 205.000000,957.194031 205.000000,1025.000000 
	C169.978577,1025.000000 134.957138,1025.000000 99.698761,1024.680054 
	C146.091599,1018.174622 181.946655,978.751221 184.239624,931.145081 
	C187.035446,873.099182 148.343842,826.765564 90.813873,822.117310 
	C61.040188,819.711670 30.948189,821.245789 1.000000,821.000000 
M644.983582,436.195007 
	C645.223694,436.008698 645.359070,435.764343 645.401611,435.380249 
	C645.401611,435.380249 645.484009,435.375977 646.015930,435.070404 
	C646.726135,434.085907 647.436401,433.101379 648.006836,432.024261 
	C648.006836,432.024261 648.127563,432.140717 648.626343,431.901154 
	C648.911011,431.432648 649.195679,430.964172 649.478333,430.402679 
	C649.478333,430.402679 649.571106,430.395905 650.083069,430.008759 
	C651.897522,427.205688 653.711975,424.402618 655.560181,421.479523 
	C655.560181,421.479523 655.650208,421.393311 656.072876,421.015808 
	C656.384949,420.342987 656.697021,419.670197 657.232056,418.844818 
	C657.232056,418.844818 657.222107,418.574829 657.803162,418.120514 
	C665.686401,404.067932 669.783508,388.873627 670.668152,372.894226 
	C671.842651,351.679718 668.104309,331.465393 656.857483,312.444550 
	C656.719971,312.312225 656.582520,312.179901 656.266724,311.451355 
	C654.977112,309.531067 653.687500,307.610779 651.987793,305.931671 
	C651.987793,305.931671 652.392883,305.678650 652.245728,305.117767 
	C651.864929,304.701691 651.484192,304.285645 651.017700,303.963867 
	C651.017700,303.963867 651.132080,303.907715 650.974915,303.241547 
	C648.830017,300.692535 646.685120,298.143524 644.449829,295.590515 
	C644.449829,295.590515 644.449280,295.500031 644.233704,295.001038 
	C643.825012,294.662903 643.416260,294.324768 643.000000,294.000000 
	C643.000000,294.000000 643.012878,293.992737 642.863708,293.485565 
	C642.459778,293.157867 642.055786,292.830139 641.529724,292.427765 
	C641.529724,292.427765 641.437317,292.318481 641.126709,291.767120 
	C633.277161,283.884674 624.610168,277.139374 614.275635,272.731201 
	C614.275635,272.731201 614.328979,272.521667 613.859436,272.033691 
	C606.894226,269.507812 599.929016,266.981934 592.351135,264.142487 
	C591.895752,264.109375 591.440308,264.076263 590.304138,263.706757 
	C583.863159,262.886261 577.422180,262.065765 570.198181,261.057770 
	C569.129150,261.087219 568.060059,261.116669 566.071594,260.956177 
	C537.721619,261.019928 509.371582,261.083649 480.092773,261.003113 
	C474.390411,261.050842 468.688080,261.098572 462.066040,260.964111 
	C455.234741,260.930237 448.403320,260.857758 441.572144,260.871735 
	C431.671722,260.892029 427.771423,264.542389 427.765686,274.316376 
	C427.729736,335.632324 427.756683,396.948425 427.877563,458.264252 
	C427.882172,460.599762 429.061890,462.932983 429.910797,465.005981 
	C429.910797,465.005981 429.684998,465.267548 429.715515,465.694550 
	C429.798737,465.988251 429.977753,466.201477 430.342529,466.574036 
	C430.342529,466.574036 430.538513,466.738922 430.748199,467.225739 
	C431.309814,467.631653 431.871460,468.037537 432.539001,468.493835 
	C432.539001,468.493835 432.609436,468.587677 433.087738,469.114990 
	C435.641205,469.703308 438.193512,470.798676 440.748291,470.804352 
	C483.568329,470.899841 526.391907,471.173035 569.207764,470.729156 
	C594.174683,470.470306 616.453003,462.066498 635.078064,445.093658 
	C635.078064,445.093658 635.366638,445.353638 635.822388,445.228149 
	C636.118103,445.069092 636.308716,444.827240 636.420105,444.416077 
	C636.420105,444.416077 636.509033,444.400635 637.087341,444.112549 
	C639.204651,441.955933 641.321960,439.799316 643.584045,437.517792 
	C643.584045,437.517792 643.691101,437.359344 644.030273,437.205994 
	C644.241394,437.048370 644.364685,436.839020 644.495056,436.474609 
	C644.495056,436.474609 644.595825,436.376984 644.983582,436.195007 
M184.835602,42.313915 
	C183.336960,41.108971 181.838333,39.904030 180.102844,39.010769 
	C180.102844,39.010769 180.319199,38.685120 180.032028,38.088234 
	C175.475052,34.286427 170.918076,30.484615 166.234772,26.769621 
	C166.234772,26.769621 166.304764,26.633253 166.031189,26.043100 
	C163.826202,24.249777 161.621231,22.456453 159.343353,20.647627 
	C159.343353,20.647627 159.330887,20.574156 159.052979,19.983995 
	C155.438004,16.783066 151.975418,13.382916 148.150131,10.456930 
	C145.903748,8.738653 143.080475,7.774599 140.516678,6.471293 
	C139.764221,9.207528 138.378418,11.939112 138.358276,14.680727 
	C138.175934,39.504921 138.221451,64.330872 138.220642,89.156303 
	C138.214935,266.433411 138.214157,443.710510 138.211411,620.987610 
	C138.210999,648.145874 138.209702,675.304077 138.205704,702.462341 
	C138.204941,707.600830 139.147385,712.153442 145.690109,713.936035 
	C146.140060,713.914246 146.589996,713.892456 147.951645,714.077026 
	C210.991226,714.104553 274.030792,714.150757 337.070374,714.145508 
	C351.367493,714.144287 365.664581,713.964417 380.680145,713.977051 
	C384.350861,712.945801 387.222748,711.093262 388.156158,706.068665 
	C388.240204,696.248291 388.398071,686.427917 388.397278,676.607544 
	C388.385132,529.063477 388.353760,381.519470 388.308899,233.975433 
	C388.308197,231.656494 388.080994,229.337616 388.094604,226.232330 
	C387.467926,217.588455 380.911438,212.980331 375.238007,208.019836 
	C341.666504,178.666870 307.960388,149.467880 274.288788,120.229469 
	C246.909973,96.455338 219.516068,72.698578 191.923309,48.434467 
	C191.477509,48.142033 191.031693,47.849594 190.477325,47.462067 
	C190.477325,47.462067 190.378723,47.356701 190.054901,46.827877 
	C188.400635,45.513454 186.746368,44.199036 185.009537,42.994637 
	C185.009537,42.994637 185.111115,42.901817 184.835602,42.313915 
z"/>
<path fill="#3F7CBD" opacity="1.000000" stroke="none" 
	d="
M708.245117,381.927155 
	C711.952209,336.041107 698.929199,295.939697 665.958252,263.312866 
	C640.560608,238.180206 609.460632,225.146973 573.263672,222.393433 
	C570.802979,221.600922 568.908203,221.039200 567.012817,221.037048 
	C523.679749,220.988281 480.346588,221.000580 436.676331,221.084259 
	C436.140839,221.286224 435.942474,221.405396 435.744110,221.524582 
	C435.744110,221.524582 435.617950,221.534088 435.658081,221.305420 
	C435.459839,221.169037 435.221436,221.261307 434.983002,221.353577 
	C434.405731,221.143219 433.828430,220.932877 433.071106,220.109802 
	C432.193817,219.047775 431.496552,218.598480 430.799286,218.149185 
	C430.799286,218.149185 430.905975,218.035690 430.923340,217.685165 
	C430.292999,210.756149 429.099243,204.179016 429.082886,197.598953 
	C428.936218,138.599380 428.981537,79.599289 429.023956,20.599379 
	C429.027527,15.654665 429.421387,10.710231 429.633911,5.765666 
	C429.633911,5.765666 429.581970,5.721192 429.937500,5.701329 
	C430.833557,4.745212 431.374054,3.808958 431.914551,2.872699 
	C431.914551,2.872694 431.984070,2.957174 432.248474,2.940270 
	C432.952698,2.559737 433.392517,2.196107 433.832367,1.832475 
	C433.832367,1.832473 433.909119,1.414809 433.954559,1.207404 
	C486.354218,1.000000 538.708435,1.000000 591.531372,0.999999 
	C600.533386,1.941692 609.073547,2.825784 617.599060,3.833858 
	C719.680298,15.904067 801.308289,63.224751 860.907898,147.009979 
	C908.695374,214.189697 929.226929,289.833862 924.733032,371.889923 
	C919.769653,462.519226 886.300781,541.243103 822.851990,606.704773 
	C817.409973,612.319519 811.520081,617.500122 805.476807,622.638184 
	C795.184814,597.743347 785.170898,573.125916 775.341492,548.435059 
	C755.804871,499.360535 736.402527,450.232605 716.853760,401.162964 
	C714.256165,394.642700 711.127747,388.333893 708.245117,381.927155 
z"/>
<path fill="#28306E" opacity="1.000000" stroke="none" 
	d="
M1.000000,821.468628 
	C30.948189,821.245789 61.040188,819.711670 90.813873,822.117310 
	C148.343842,826.765564 187.035446,873.099182 184.239624,931.145081 
	C181.946655,978.751221 146.091599,1018.174622 99.230904,1024.680054 
	C66.380714,1025.000000 33.761433,1025.000000 1.000000,1025.000000 
	C1.000000,957.312500 1.000000,889.624939 1.000000,821.468628 
M40.187206,987.783325 
	C40.523159,988.122681 40.858875,988.758484 41.195091,988.758728 
	C54.872635,988.769409 68.550240,988.726257 82.227684,988.657104 
	C82.476509,988.655884 82.723320,988.258301 83.791779,987.847839 
	C85.190933,987.854248 86.590096,987.860596 88.362976,988.430176 
	C89.570107,988.046875 90.777237,987.663574 92.757668,987.006592 
	C100.527870,984.204407 108.974693,982.538635 115.942978,978.389648 
	C137.940735,965.291992 147.989380,938.895142 142.945862,910.412354 
	C138.323990,884.310791 119.696457,863.809570 94.448425,860.528259 
	C76.919533,858.250122 58.953121,859.338440 40.517582,859.470459 
	C40.346493,861.099365 40.026989,862.728149 40.026016,864.357117 
	C40.001625,905.233765 40.010765,946.110352 40.187206,987.783325 
z"/>
<path fill="#28306E" opacity="1.000000" stroke="none" 
	d="
M252.972351,988.088867 
	C253.434036,988.032166 253.895721,987.975464 255.001984,988.284302 
	C262.086395,988.467834 268.526184,988.285950 274.966003,988.104065 
	C277.033203,988.040771 279.100433,987.977539 281.908325,988.281921 
	C284.456390,988.766296 286.263611,988.981262 288.071198,988.984314 
	C304.989624,989.013000 321.908752,989.082092 338.826263,988.956787 
	C343.292206,988.923706 345.115387,990.655396 345.042938,995.144653 
	C344.882385,1005.094055 344.997375,1015.047974 345.000000,1025.000000 
	C298.645782,1025.000000 252.291550,1025.000000 205.468658,1025.000000 
	C205.000000,957.194031 205.000000,889.388062 205.000000,821.232422 
	C251.002838,821.232422 296.890839,821.232422 343.100098,821.232422 
	C343.100098,833.389404 343.100098,845.455139 343.100098,857.899475 
	C310.601349,857.899475 278.173492,857.899475 245.312653,857.899475 
	C245.312653,872.799561 245.312653,887.330078 245.312653,902.464966 
	C274.250854,902.464966 303.167572,902.464966 332.341553,902.464966 
	C332.341553,914.816162 332.341553,926.566650 332.341553,938.827881 
	C303.165771,938.827881 274.272339,938.827881 245.268341,938.827881 
	C245.268341,955.423828 245.268341,971.509949 245.690353,988.139221 
	C248.399033,988.484497 250.685699,988.286682 252.972351,988.088867 
z"/>
<path fill="#407CBE" opacity="1.000000" stroke="none" 
	d="
M675.468628,1025.000000 
	C675.548340,1022.971985 675.879517,1020.854065 676.676575,1018.929016 
	C699.782104,963.129150 722.934937,907.348877 746.077087,851.564270 
	C747.479797,848.183044 748.858093,844.791687 750.849731,841.051270 
	C752.295410,838.126526 753.139160,835.555603 753.982910,832.984741 
	C753.982910,832.984741 754.000000,833.000000 754.355652,832.939575 
	C755.391785,830.845764 756.072205,828.812378 756.752686,826.778992 
	C756.752686,826.778992 756.782532,826.893860 757.078003,826.756104 
	C758.974182,822.665466 761.904419,821.730591 766.039001,821.902039 
	C774.307373,822.244934 782.603394,822.135559 790.880981,821.930664 
	C794.026550,821.852844 795.755920,823.004333 796.983521,825.791626 
	C797.783020,827.606750 799.188049,829.155212 800.321777,830.823120 
	C800.321777,830.823120 800.239075,830.893982 800.187378,831.173950 
	C800.497925,831.949341 800.860229,832.444702 801.222534,832.940125 
	C810.526672,854.799683 819.906128,876.627563 829.118591,898.525696 
	C845.819763,938.224304 862.427673,977.962158 879.047546,1017.694885 
	C879.941284,1019.831604 880.587646,1022.071777 881.174622,1024.631836 
	C867.312439,1025.000000 853.624878,1025.000000 839.417358,1024.636475 
	C833.348450,1010.743652 827.689819,997.257568 822.327332,983.654724 
	C820.971497,980.215454 819.252441,978.905762 815.435242,978.937927 
	C793.977417,979.118896 772.517029,978.966553 751.057678,979.004150 
	C745.928833,979.013184 739.704773,977.599304 735.990356,979.975464 
	C732.505127,982.205078 731.564697,988.539246 729.697266,993.145386 
	C725.402588,1003.738342 721.225037,1014.378784 717.000000,1025.000000 
	C703.312439,1025.000000 689.624878,1025.000000 675.468628,1025.000000 
M789.646362,901.834656 
	C785.920410,892.921936 782.194458,884.009216 777.932800,873.815186 
	C768.100342,897.623657 758.855896,920.008301 749.479553,942.712341 
	C768.540649,942.712341 787.162231,942.712341 806.415283,942.712341 
	C800.757080,928.943726 795.334412,915.748230 789.646362,901.834656 
z"/>
<path fill="#29316F" opacity="1.000000" stroke="none" 
	d="
M568.252441,1014.077515 
	C568.340759,1014.800659 568.429077,1015.523743 568.083740,1016.766296 
	C567.836426,1018.207214 568.022827,1019.128723 568.209229,1020.050232 
	C568.298889,1020.475952 568.388611,1020.901672 568.048218,1021.820679 
	C567.412048,1023.209351 567.205994,1024.104614 567.000000,1025.000000 
	C554.979126,1025.000000 542.958191,1025.000000 530.466431,1024.531372 
	C529.996094,956.415710 529.996643,888.768677 529.997192,821.121643 
	C559.300415,821.107178 588.628906,820.325439 617.899902,821.289246 
	C648.520203,822.297546 672.697754,842.349548 680.641479,871.155151 
	C688.634949,900.141479 678.241028,930.189575 654.326721,946.729065 
	C642.319092,955.033630 628.735046,958.551453 614.289368,958.769958 
	C599.304504,958.996704 584.315125,958.928101 568.570312,959.160400 
	C567.937073,960.235596 568.061340,961.139099 568.185669,962.042542 
	C568.282104,964.722229 568.378540,967.401978 568.032349,970.726318 
	C567.794556,972.931702 567.999390,974.492493 568.204285,976.053284 
	C568.335327,980.764893 568.466370,985.476440 568.128296,990.788879 
	C567.872864,994.629028 568.086609,997.868408 568.300415,1001.107727 
	C568.395264,1003.424988 568.490173,1005.742188 568.120605,1008.690186 
	C567.854919,1010.906433 568.053650,1012.491943 568.252441,1014.077515 
M569.349976,921.021179 
	C583.976990,921.046875 598.608459,921.312622 613.229797,921.036011 
	C630.554932,920.708252 643.158142,907.498413 643.132568,890.247620 
	C643.109253,874.534973 634.946472,864.105530 617.668213,857.675720 
	C617.056335,857.458496 616.444946,857.053284 615.832458,857.051392 
	C601.226990,857.006409 586.621338,856.980835 572.016174,857.045776 
	C570.988098,857.050354 569.963379,857.780457 568.847961,858.513794 
	C568.732849,858.746582 568.546143,858.876099 567.677124,859.267212 
	C567.097412,861.250671 564.638489,863.391418 568.424866,865.933411 
	C568.332642,881.277649 568.240417,896.621826 567.512146,912.483276 
	C567.834778,915.287964 568.157410,918.092590 569.349976,921.021179 
z"/>
<path fill="#29316F" opacity="1.000000" stroke="none" 
	d="
M920.766235,859.065735 
	C918.722351,858.719360 916.680725,858.086548 914.634399,858.071045 
	C895.543518,857.926819 876.451721,857.888550 857.483887,857.130371 
	C857.736084,844.669983 857.864685,832.898804 857.993286,821.127686 
	C862.144165,821.057068 866.295105,820.923950 870.445984,820.925476 
	C921.651611,820.944336 972.857239,820.982788 1024.531494,821.008057 
	C1025.000000,832.354248 1025.000000,843.708435 1024.531372,855.531860 
	C1004.757568,856.001526 985.452454,855.994751 966.147278,856.006226 
	C959.214417,856.010376 957.461853,858.063354 957.924683,864.864746 
	C958.430603,872.300232 958.940857,879.754395 958.955811,887.201355 
	C959.047974,933.134033 959.000854,979.067078 959.000000,1025.000000 
	C946.979126,1025.000000 934.958191,1025.000000 922.469849,1024.531372 
	C922.001526,970.878967 922.013000,917.695129 921.948120,864.511414 
	C921.945862,862.695679 921.177429,860.880920 920.766235,859.065735 
z"/>
<path fill="#29306F" opacity="1.000000" stroke="none" 
	d="
M374.468658,1025.000000 
	C374.015594,976.672791 374.032959,928.345581 374.045959,880.018372 
	C374.051178,860.546265 374.046814,841.074219 374.046814,821.010071 
	C386.236511,821.010071 398.164429,821.010071 410.606384,821.468506 
	C411.747345,826.947510 412.901825,831.966248 412.918427,836.988770 
	C413.061829,880.376526 413.031952,923.765015 412.956604,967.153076 
	C412.947998,972.096863 412.342255,977.039673 412.009644,982.414673 
	C412.666473,985.187439 410.167725,989.403015 414.703613,989.464050 
	C426.566376,989.623779 438.436432,989.094727 450.304688,989.025024 
	C466.774139,988.928345 483.245575,989.099609 499.714020,988.938965 
	C504.555267,988.891663 506.151276,990.938354 506.060760,995.554749 
	C505.868439,1005.366455 506.000763,1015.184509 506.000000,1025.000000 
	C462.312439,1025.000000 418.624878,1025.000000 374.468658,1025.000000 
z"/>
<path fill="#FBFBFC" opacity="1.000000" stroke="none" 
	d="
M1025.000000,858.000000 
	C1025.000000,913.561035 1025.000000,969.122070 1025.000000,1025.000000 
	C1003.980164,1025.000000 982.958740,1025.000000 961.269531,1024.567383 
	C960.601807,968.907227 960.601807,913.679504 960.601807,858.000000 
	C982.411133,858.000000 1003.705566,858.000000 1025.000000,858.000000 
z"/>
<path fill="#FBFCFC" opacity="1.000000" stroke="none" 
	d="
M717.468628,1025.000000 
	C721.225037,1014.378784 725.402588,1003.738342 729.697266,993.145386 
	C731.564697,988.539246 732.505127,982.205078 735.990356,979.975464 
	C739.704773,977.599304 745.928833,979.013184 751.057678,979.004150 
	C772.517029,978.966553 793.977417,979.118896 815.435242,978.937927 
	C819.252441,978.905762 820.971497,980.215454 822.327332,983.654724 
	C827.689819,997.257568 833.348450,1010.743652 838.948669,1024.636475 
	C798.645752,1025.000000 758.291565,1025.000000 717.468628,1025.000000 
z"/>
<path fill="#2F346A" opacity="1.000000" stroke="none" 
	d="
M1025.000000,857.666687 
	C1003.705566,858.000000 982.411133,858.000000 960.601807,858.000000 
	C960.601807,913.679504 960.601807,968.907227 960.800903,1024.567383 
	C960.555542,1025.000000 960.111084,1025.000000 959.333313,1025.000000 
	C959.000854,979.067078 959.047974,933.134033 958.955811,887.201355 
	C958.940857,879.754395 958.430603,872.300232 957.924683,864.864746 
	C957.461853,858.063354 959.214417,856.010376 966.147278,856.006226 
	C985.452454,855.994751 1004.757568,856.001526 1024.531372,856.000488 
	C1025.000000,856.444458 1025.000000,856.888916 1025.000000,857.666687 
z"/>
<path fill="#1A1D52" opacity="1.000000" stroke="none" 
	d="
M920.647583,859.424927 
	C921.177429,860.880920 921.945862,862.695679 921.948120,864.511414 
	C922.013000,917.695129 922.001526,970.878967 922.001221,1024.531372 
	C922.000000,1025.000000 921.500000,1025.000000 921.250000,1025.000000 
	C920.813599,1010.703735 920.484680,996.407654 920.467957,982.111145 
	C920.420227,941.335571 920.499573,900.559875 920.647583,859.424927 
z"/>
<path fill="#2F346A" opacity="1.000000" stroke="none" 
	d="
M506.333313,1025.000000 
	C506.000763,1015.184509 505.868439,1005.366455 506.060760,995.554749 
	C506.151276,990.938354 504.555267,988.891663 499.714020,988.938965 
	C483.245575,989.099609 466.774139,988.928345 450.304688,989.025024 
	C438.436432,989.094727 426.566376,989.623779 414.703613,989.464050 
	C410.167725,989.403015 412.666473,985.187439 412.324554,982.420410 
	C413.063507,981.994812 413.483826,981.995178 413.904114,981.995605 
	C414.009979,983.645203 414.115845,985.294800 414.264038,987.603760 
	C445.291962,987.603760 476.303833,987.603760 507.784882,987.603760 
	C507.784882,1000.202759 507.784882,1012.143188 507.892456,1024.541748 
	C507.555542,1025.000000 507.111115,1025.000000 506.333313,1025.000000 
z"/>
<path fill="#1C2254" opacity="1.000000" stroke="none" 
	d="
M529.543457,821.185547 
	C529.996643,888.768677 529.996094,956.415710 529.997803,1024.531372 
	C530.000000,1025.000000 529.500000,1025.000000 529.250000,1025.000000 
	C528.906006,981.358398 528.812378,937.716858 528.717957,894.075256 
	C528.667480,870.754395 528.609497,847.433472 528.587097,824.112610 
	C528.586182,823.158325 528.914734,822.203796 529.543457,821.185547 
z"/>
<path fill="#272B5B" opacity="1.000000" stroke="none" 
	d="
M345.250000,1025.000000 
	C344.997375,1015.047974 344.882385,1005.094055 345.042938,995.144653 
	C345.115387,990.655396 343.292206,988.923706 338.826263,988.956787 
	C321.908752,989.082092 304.989624,989.013000 288.071198,988.984314 
	C286.263611,988.981262 284.456390,988.766296 282.343292,988.373047 
	C303.304535,988.096558 324.571472,988.096558 346.137970,988.096558 
	C346.137970,1000.202942 346.137970,1012.137146 346.068970,1024.535645 
	C346.000000,1025.000000 345.500000,1025.000000 345.250000,1025.000000 
z"/>
<path fill="#1C2254" opacity="1.000000" stroke="none" 
	d="
M567.250000,1025.000000 
	C567.205994,1024.104614 567.412048,1023.209351 567.916016,1022.126587 
	C568.283020,1022.295959 568.352112,1022.652771 568.220032,1023.629211 
	C568.012634,1024.499146 568.006348,1024.749512 568.000000,1025.000000 
	C568.000000,1025.000000 567.500000,1025.000000 567.250000,1025.000000 
z"/>
<path fill="#29316F" opacity="1.000000" stroke="none" 
	d="
M568.250000,1025.000000 
	C568.006348,1024.749512 568.012634,1024.499146 568.100342,1023.880371 
	C568.338318,1023.855896 568.494751,1024.199951 568.825562,1024.771973 
	C569.000000,1025.000000 568.500000,1025.000000 568.250000,1025.000000 
z"/>
<path fill="#28306E" opacity="1.000000" stroke="none" 
	d="
M192.128860,48.934105 
	C219.516068,72.698578 246.909973,96.455338 274.288788,120.229469 
	C307.960388,149.467880 341.666504,178.666870 375.238007,208.019836 
	C380.911438,212.980331 387.467926,217.588455 387.734589,226.921051 
	C387.248047,229.089310 387.010895,230.568817 387.010773,232.048355 
	C386.995941,388.608704 386.996033,545.169067 387.037506,701.729431 
	C387.037964,703.476135 387.590790,705.222717 387.885773,706.969360 
	C387.222748,711.093262 384.350861,712.945801 380.008545,713.653809 
	C378.353699,713.222900 377.370483,713.021057 376.387177,713.020874 
	C301.354004,713.005371 226.320847,713.000977 151.287689,713.041016 
	C149.871628,713.041748 148.455856,713.582092 147.039948,713.870728 
	C146.589996,713.892456 146.140060,713.914246 145.301147,713.470215 
	C140.694229,708.456543 139.817032,703.033447 139.821060,696.971924 
	C139.920792,547.041870 139.896988,397.111694 139.897293,247.181564 
	C139.897446,169.717667 139.890060,92.253754 139.972137,14.789941 
	C139.974152,12.885188 140.989334,10.981509 141.531967,9.077329 
	C143.499847,10.061193 145.502914,10.983237 147.412109,12.070177 
	C147.922089,12.360518 148.014542,13.353730 148.520721,13.686191 
	C152.091644,16.031614 155.720520,18.288803 159.330887,20.574156 
	C159.330887,20.574156 159.343353,20.647627 159.327728,21.016186 
	C161.642990,23.134249 163.973877,24.883751 166.304764,26.633255 
	C166.304764,26.633253 166.234772,26.769621 166.258347,27.084396 
	C169.573288,32.887192 173.740829,37.285435 180.319199,38.685120 
	C180.319199,38.685120 180.102844,39.010769 180.175018,39.242607 
	C181.868515,40.616901 183.489807,41.759357 185.111115,42.901817 
	C185.111115,42.901817 185.009537,42.994637 185.079010,43.294830 
	C186.891907,44.848915 188.635315,46.102806 190.378723,47.356697 
	C190.378723,47.356701 190.477325,47.462067 190.519958,47.817757 
	C191.084686,48.427002 191.606766,48.680553 192.128860,48.934105 
z"/>
<path fill="#28306E" opacity="1.000000" stroke="none" 
	d="
M708.149536,382.362030 
	C711.127747,388.333893 714.256165,394.642700 716.853760,401.162964 
	C736.402527,450.232605 755.804871,499.360535 775.341492,548.435059 
	C785.170898,573.125916 795.184814,597.743347 805.173889,622.770508 
	C773.806335,651.045105 738.286194,672.274658 699.230835,687.545410 
	C656.390381,704.296265 611.904785,713.125977 565.115479,713.711182 
	C563.364197,713.231506 562.383667,713.018311 561.402954,713.017883 
	C521.684937,713.001892 481.966919,712.995667 442.248962,713.043823 
	C440.840912,713.045532 439.433533,713.609802 438.025848,713.911804 
	C432.653412,714.332642 429.728455,711.389404 428.379761,706.016113 
	C429.103943,701.167786 429.707428,696.990967 429.861664,692.797729 
	C429.907257,691.558533 428.685028,690.272644 428.043762,689.008179 
	C427.975616,686.625610 427.907440,684.243103 428.220123,681.144409 
	C429.015106,674.002930 429.614868,667.582825 429.794525,661.150940 
	C430.001495,653.741638 430.066193,646.311951 429.742157,638.910828 
	C429.568207,634.937439 432.080597,630.461792 428.053162,627.010437 
	C427.992462,610.972351 427.931793,594.934265 428.251465,578.133179 
	C429.379211,556.084534 430.126526,534.798889 430.873871,513.513306 
	C433.632843,509.733246 437.709595,509.934235 441.713623,509.934784 
	C483.344299,509.940735 524.977966,510.257416 566.604675,509.855988 
	C597.171753,509.561218 625.401428,500.806458 650.366211,482.943237 
	C684.703430,458.373688 703.439819,424.598236 708.149536,382.362030 
z"/>
<path fill="#28306E" opacity="1.000000" stroke="none" 
	d="
M566.991028,261.146057 
	C568.060059,261.116669 569.129150,261.087219 570.708618,261.518616 
	C577.405762,262.937836 583.590027,263.912262 589.785034,264.812805 
	C590.140198,264.864441 590.582947,264.313568 590.984924,264.043152 
	C591.440308,264.076263 591.895752,264.109375 592.766724,264.615265 
	C599.102966,267.656586 604.997498,270.288757 610.971069,272.727570 
	C611.906433,273.109436 613.200684,272.612335 614.328979,272.521667 
	C614.328979,272.521667 614.275635,272.731201 614.333557,272.997559 
	C615.016418,275.003418 615.641296,276.742920 616.094360,278.003937 
	C618.007080,278.446930 620.103760,278.403015 621.531921,279.358429 
	C626.665100,282.792633 631.524780,286.632812 636.595825,290.164490 
	C638.019226,291.155853 639.813293,291.615143 641.437317,292.318481 
	C641.437317,292.318481 641.529724,292.427765 641.519226,292.770142 
	C642.010132,293.405914 642.511475,293.699310 643.012878,293.992737 
	C643.012878,293.992737 643.000000,294.000000 643.036743,294.305664 
	C643.532104,294.907562 643.990662,295.203796 644.449280,295.500031 
	C644.449280,295.500031 644.449829,295.590515 644.363770,295.963593 
	C646.562439,298.860352 648.847229,301.384033 651.132080,303.907715 
	C651.132080,303.907715 651.017700,303.963867 651.060059,304.241455 
	C651.532593,304.905609 651.962708,305.292145 652.392883,305.678650 
	C652.392883,305.678650 651.987793,305.931671 652.086548,306.171051 
	C650.833984,310.383575 652.379761,312.167450 656.445007,312.047546 
	C656.582520,312.179901 656.719971,312.312225 656.679260,312.948975 
	C657.095947,315.463989 657.558655,317.525543 658.309875,319.475891 
	C660.829468,326.017334 663.964539,332.369507 665.920166,339.069611 
	C669.188477,350.266754 669.670105,361.893372 668.965759,373.475067 
	C668.166626,386.616760 665.317017,399.293488 659.084045,411.089905 
	C657.917969,413.296722 657.815430,416.065430 657.222168,418.574829 
	C657.222107,418.574829 657.232056,418.844818 656.775452,418.989319 
	C656.095947,419.886993 655.873108,420.640137 655.650208,421.393311 
	C655.650208,421.393311 655.560181,421.479523 655.189209,421.472168 
	C653.069153,424.441864 651.320129,427.418884 649.571106,430.395905 
	C649.571106,430.395905 649.478333,430.402679 649.155640,430.441040 
	C648.597839,431.033142 648.362671,431.586945 648.127563,432.140717 
	C648.127563,432.140717 648.006836,432.024261 647.706482,432.081329 
	C646.765442,433.217590 646.124756,434.296783 645.484009,435.375977 
	C645.484009,435.375977 645.401611,435.380249 645.126648,435.414612 
	C644.766418,435.758331 644.681091,436.067657 644.595825,436.376984 
	C644.595825,436.376984 644.495056,436.474609 644.192139,436.481201 
	C643.823181,436.778290 643.757141,437.068817 643.691101,437.359344 
	C643.691101,437.359344 643.584045,437.517792 643.134766,437.421021 
	C638.585938,437.901764 636.031433,439.827942 636.509033,444.400635 
	C636.509033,444.400635 636.420105,444.416077 636.130798,444.431824 
	C635.683228,444.749603 635.524902,445.051605 635.366577,445.353638 
	C635.366638,445.353638 635.078064,445.093658 634.829590,445.164185 
	C632.888733,445.840881 630.911560,446.074585 629.551147,447.114868 
	C621.931335,452.941498 614.061462,457.880432 605.023438,461.714935 
	C594.552551,466.157288 583.800537,468.666321 572.991699,468.772125 
	C526.202759,469.230164 479.404388,468.735718 432.609436,468.587677 
	C432.609436,468.587677 432.539001,468.493835 432.590088,468.097748 
	C431.940277,467.380737 431.239380,467.059845 430.538513,466.738953 
	C430.538513,466.738922 430.342529,466.574036 430.399323,466.210876 
	C430.199097,465.654327 429.942047,465.460938 429.684998,465.267548 
	C429.684998,465.267548 429.910797,465.005981 429.882629,464.701477 
	C429.620087,459.275208 429.207733,454.153473 429.206177,449.031616 
	C429.204865,444.738861 429.934967,440.443085 429.885742,436.153870 
	C429.823120,430.694733 428.981506,425.237549 429.037231,419.785278 
	C429.208832,402.997498 429.835236,386.213318 429.912842,369.426025 
	C429.959625,359.306458 429.255981,349.185120 429.004150,339.061737 
	C428.869568,333.651123 428.977112,328.234497 428.976959,322.820587 
	C428.976532,307.491455 429.055145,292.161743 428.948273,276.833374 
	C428.882141,267.348145 434.112823,261.084808 443.732147,261.836060 
	C450.093262,262.332825 456.564026,261.425171 462.985718,261.146301 
	C468.688080,261.098572 474.390411,261.050842 480.875732,261.336517 
	C482.307800,261.775452 482.956787,261.972870 483.605927,261.973297 
	C510.150604,261.990601 536.695312,262.001648 563.239929,261.956055 
	C564.490784,261.953918 565.740662,261.428040 566.991028,261.146057 
z"/>
<path fill="#4A507A" opacity="1.000000" stroke="none" 
	d="
M159.191925,20.279076 
	C155.720520,18.288803 152.091644,16.031614 148.520721,13.686191 
	C148.014542,13.353730 147.922089,12.360518 147.412109,12.070177 
	C145.502914,10.983237 143.499847,10.061193 141.531967,9.077329 
	C140.989334,10.981509 139.974152,12.885188 139.972137,14.789941 
	C139.890060,92.253754 139.897446,169.717667 139.897293,247.181564 
	C139.896988,397.111694 139.920792,547.041870 139.821060,696.971924 
	C139.817032,703.033447 140.694229,708.456543 144.986694,713.337036 
	C139.147385,712.153442 138.204941,707.600830 138.205704,702.462341 
	C138.209702,675.304077 138.210999,648.145874 138.211411,620.987610 
	C138.214157,443.710510 138.214935,266.433411 138.220642,89.156303 
	C138.221451,64.330872 138.175934,39.504921 138.358276,14.680727 
	C138.378418,11.939112 139.764221,9.207528 140.516678,6.471294 
	C143.080475,7.774599 145.903748,8.738653 148.150131,10.456930 
	C151.975418,13.382916 155.438004,16.783066 159.191925,20.279076 
z"/>
<path fill="#1A1D52" opacity="1.000000" stroke="none" 
	d="
M388.020966,706.519043 
	C387.590790,705.222717 387.037964,703.476135 387.037506,701.729431 
	C386.996033,545.169067 386.995941,388.608704 387.010773,232.048355 
	C387.010895,230.568817 387.248047,229.089310 387.667023,227.314240 
	C388.080994,229.337616 388.308197,231.656494 388.308899,233.975433 
	C388.353760,381.519470 388.385132,529.063477 388.397278,676.607544 
	C388.398071,686.427917 388.240204,696.248291 388.020966,706.519043 
z"/>
<path fill="#3C3E72" opacity="1.000000" stroke="none" 
	d="
M462.525879,261.055176 
	C456.564026,261.425171 450.093262,262.332825 443.732147,261.836060 
	C434.112823,261.084808 428.882141,267.348145 428.948273,276.833374 
	C429.055145,292.161743 428.976532,307.491455 428.976959,322.820587 
	C428.977112,328.234497 428.869568,333.651123 429.004150,339.061737 
	C429.255981,349.185120 429.959625,359.306458 429.912842,369.426025 
	C429.835236,386.213318 429.208832,402.997498 429.037231,419.785278 
	C428.981506,425.237549 429.823120,430.694733 429.885742,436.153870 
	C429.934967,440.443085 429.204865,444.738861 429.206177,449.031616 
	C429.207733,454.153473 429.620087,459.275208 429.774231,464.832092 
	C429.061890,462.932983 427.882172,460.599762 427.877563,458.264252 
	C427.756683,396.948425 427.729736,335.632324 427.765686,274.316376 
	C427.771423,264.542389 431.671722,260.892029 441.572144,260.871735 
	C448.403320,260.857758 455.234741,260.930237 462.525879,261.055176 
z"/>
<path fill="#3C3E72" opacity="1.000000" stroke="none" 
	d="
M432.848572,468.851318 
	C479.404388,468.735718 526.202759,469.230164 572.991699,468.772125 
	C583.800537,468.666321 594.552551,466.157288 605.023438,461.714935 
	C614.061462,457.880432 621.931335,452.941498 629.551147,447.114868 
	C630.911560,446.074585 632.888733,445.840881 634.960571,445.307556 
	C616.453003,462.066498 594.174683,470.470306 569.207764,470.729156 
	C526.391907,471.173035 483.568329,470.899841 440.748291,470.804352 
	C438.193512,470.798676 435.641205,469.703308 432.848572,468.851318 
z"/>
<path fill="#1C2254" opacity="1.000000" stroke="none" 
	d="
M147.495789,713.973877 
	C148.455856,713.582092 149.871628,713.041748 151.287689,713.041016 
	C226.320847,713.000977 301.354004,713.005371 376.387177,713.020874 
	C377.370483,713.021057 378.353699,713.222900 379.649353,713.598694 
	C365.664581,713.964417 351.367493,714.144287 337.070374,714.145508 
	C274.030792,714.150757 210.991226,714.104553 147.495789,713.973877 
z"/>
<path fill="#4A78A6" opacity="1.000000" stroke="none" 
	d="
M429.303223,5.974370 
	C429.421387,10.710231 429.027527,15.654665 429.023956,20.599379 
	C428.981537,79.599289 428.936218,138.599380 429.082886,197.598953 
	C429.099243,204.179016 430.292999,210.756149 430.894409,217.757477 
	C429.867126,215.655289 428.034729,213.132080 428.029388,210.604996 
	C427.888458,144.068222 427.929352,77.531052 427.994781,10.994000 
	C427.996338,9.390039 428.632446,7.786702 429.303223,5.974370 
z"/>
<path fill="#3C3E72" opacity="1.000000" stroke="none" 
	d="
M657.512695,418.347656 
	C657.815430,416.065430 657.917969,413.296722 659.084045,411.089905 
	C665.317017,399.293488 668.166626,386.616760 668.965759,373.475067 
	C669.670105,361.893372 669.188477,350.266754 665.920166,339.069611 
	C663.964539,332.369507 660.829468,326.017334 658.309875,319.475891 
	C657.558655,317.525543 657.095947,315.463989 656.735229,313.229706 
	C668.104309,331.465393 671.842651,351.679718 670.668152,372.894226 
	C669.783508,388.873627 665.686401,404.067932 657.512695,418.347656 
z"/>
<path fill="#386DA5" opacity="1.000000" stroke="none" 
	d="
M437.013428,221.001495 
	C480.346588,221.000580 523.679749,220.988281 567.012817,221.037048 
	C568.908203,221.039200 570.802979,221.600922 572.827026,222.260864 
	C571.829956,222.606750 570.703796,222.593765 568.846558,222.311935 
	C566.623230,222.070648 565.130981,222.098221 563.638733,222.125793 
	C562.121033,222.194214 560.603394,222.262634 558.255432,222.170074 
	C556.501221,222.049820 555.577332,222.090546 554.653381,222.131271 
	C552.154602,222.195816 549.655884,222.260345 546.253540,222.164566 
	C539.778748,222.044876 534.207520,222.085480 528.636353,222.126099 
	C523.165161,222.194534 517.693970,222.262970 511.288177,222.168289 
	C503.779358,222.046448 497.205170,222.087738 490.630951,222.129013 
	C473.034912,222.144974 455.438904,222.160950 437.424927,221.821167 
	C437.007019,221.465408 437.013428,221.001495 437.013428,221.001495 
z"/>
<path fill="#272B5B" opacity="1.000000" stroke="none" 
	d="
M413.985748,981.533325 
	C413.483826,981.995178 413.063507,981.994812 412.328308,981.988647 
	C412.342255,977.039673 412.947998,972.096863 412.956604,967.153076 
	C413.031952,923.765015 413.061829,880.376526 412.918427,836.988770 
	C412.901825,831.966248 411.747345,826.947510 411.067413,821.563477 
	C411.463043,821.136780 411.911652,821.073669 412.790222,821.267334 
	C413.394653,821.743652 413.615112,821.897156 413.881592,821.984558 
	C413.949768,835.278503 414.069550,848.572510 414.076477,861.866455 
	C414.097168,901.601318 414.073669,941.336182 413.985748,981.533325 
z"/>
<path fill="#1C2254" opacity="1.000000" stroke="none" 
	d="
M438.483826,714.009583 
	C439.433533,713.609802 440.840912,713.045532 442.248962,713.043823 
	C481.966919,712.995667 521.684937,713.001892 561.402954,713.017883 
	C562.383667,713.018311 563.364197,713.231506 564.654907,713.617188 
	C549.194763,713.992310 533.424500,714.166565 517.654175,714.183228 
	C491.416748,714.211060 465.179260,714.137939 438.483826,714.009583 
z"/>
<path fill="#3C3E72" opacity="1.000000" stroke="none" 
	d="
M566.531311,261.051117 
	C565.740662,261.428040 564.490784,261.953918 563.239929,261.956055 
	C536.695312,262.001648 510.150604,261.990601 483.605927,261.973297 
	C482.956787,261.972870 482.307800,261.775452 481.340149,261.408630 
	C509.371582,261.083649 537.721619,261.019928 566.531311,261.051117 
z"/>
<path fill="#3C3E72" opacity="1.000000" stroke="none" 
	d="
M641.281982,292.042816 
	C639.813293,291.615143 638.019226,291.155853 636.595825,290.164490 
	C631.524780,286.632812 626.665100,282.792633 621.531921,279.358429 
	C620.103760,278.403015 618.007080,278.446930 616.094360,278.003937 
	C615.641296,276.742920 615.016418,275.003418 614.392456,272.906921 
	C624.610168,277.139374 633.277161,283.884674 641.281982,292.042816 
z"/>
<path fill="#272B5B" opacity="1.000000" stroke="none" 
	d="
M427.965820,627.471069 
	C432.080597,630.461792 429.568207,634.937439 429.742157,638.910828 
	C430.066193,646.311951 430.001495,653.741638 429.794525,661.150940 
	C429.614868,667.582825 429.015106,674.002930 428.316956,680.707092 
	C427.981476,663.301208 427.929993,645.616455 427.965820,627.471069 
z"/>
<path fill="#4A78A6" opacity="1.000000" stroke="none" 
	d="
M800.287537,830.445679 
	C799.188049,829.155212 797.783020,827.606750 796.983521,825.791626 
	C795.755920,823.004333 794.026550,821.852844 790.880981,821.930664 
	C782.603394,822.135559 774.307373,822.244934 766.039001,821.902039 
	C761.904419,821.730591 758.974182,822.665466 757.021729,826.737305 
	C757.086121,822.114990 759.262756,820.050598 764.402100,820.372131 
	C772.827881,820.899170 781.312988,821.029480 789.746399,820.681213 
	C794.998230,820.464355 798.307373,821.812622 799.277771,827.259827 
	C799.449341,828.223389 799.920471,829.133484 800.287537,830.445679 
z"/>
<path fill="#272B5B" opacity="1.000000" stroke="none" 
	d="
M430.562866,513.753662 
	C430.126526,534.798889 429.379211,556.084534 428.348145,577.671387 
	C427.983673,558.942871 427.819733,539.912537 427.930634,520.883789 
	C427.944061,518.582764 429.441956,516.290405 430.562866,513.753662 
z"/>
<path fill="#4A507A" opacity="1.000000" stroke="none" 
	d="
M180.175613,38.386677 
	C173.740829,37.285435 169.573288,32.887192 166.321503,27.040989 
	C170.918076,30.484615 175.475052,34.286427 180.175613,38.386677 
z"/>
<path fill="#3C3E72" opacity="1.000000" stroke="none" 
	d="
M614.094238,272.277679 
	C613.200684,272.612335 611.906433,273.109436 610.971069,272.727570 
	C604.997498,270.288757 599.102966,267.656586 593.073120,264.772064 
	C599.929016,266.981934 606.894226,269.507812 614.094238,272.277679 
z"/>
<path fill="#3C3E72" opacity="1.000000" stroke="none" 
	d="
M590.644531,263.874939 
	C590.582947,264.313568 590.140198,264.864441 589.785034,264.812805 
	C583.590027,263.912262 577.405762,262.937836 571.100159,261.612366 
	C577.422180,262.065765 583.863159,262.886261 590.644531,263.874939 
z"/>
<path fill="#1C2254" opacity="1.000000" stroke="none" 
	d="
M857.552612,821.214111 
	C857.864685,832.898804 857.736084,844.669983 857.302856,856.731689 
	C857.036072,845.114990 857.073975,833.207764 857.552612,821.214111 
z"/>
<path fill="#3C3E72" opacity="1.000000" stroke="none" 
	d="
M636.798218,444.256592 
	C636.031433,439.827942 638.585938,437.901764 643.062378,437.483459 
	C641.321960,439.799316 639.204651,441.955933 636.798218,444.256592 
z"/>
<path fill="#272B5B" opacity="1.000000" stroke="none" 
	d="
M427.956116,689.468018 
	C428.685028,690.272644 429.907257,691.558533 429.861664,692.797729 
	C429.707428,696.990967 429.103943,701.167786 428.406677,705.657959 
	C428.050293,700.619263 427.959381,695.273560 427.956116,689.468018 
z"/>
<path fill="#3C3E72" opacity="1.000000" stroke="none" 
	d="
M651.053467,303.574646 
	C648.847229,301.384033 646.562439,298.860352 644.408936,295.965576 
	C646.685120,298.143524 648.830017,300.692535 651.053467,303.574646 
z"/>
<path fill="#3C3E72" opacity="1.000000" stroke="none" 
	d="
M649.827087,430.202332 
	C651.320129,427.418884 653.069153,424.441864 655.172363,421.532196 
	C653.711975,424.402618 651.897522,427.205688 649.827087,430.202332 
z"/>
<path fill="#272B5B" opacity="1.000000" stroke="none" 
	d="
M274.506470,988.023010 
	C268.526184,988.285950 262.086395,988.467834 255.342468,988.371582 
	C261.374542,988.042908 267.710724,987.992432 274.506470,988.023010 
z"/>
<path fill="#3F7CBD" opacity="1.000000" stroke="none" 
	d="
M491.030029,222.309921 
	C497.205170,222.087738 503.779358,222.046448 510.852386,222.064621 
	C504.710510,222.246323 498.069794,222.368576 491.030029,222.309921 
z"/>
<path fill="#1C2254" opacity="1.000000" stroke="none" 
	d="
M568.420654,1000.713867 
	C568.086609,997.868408 567.872864,994.629028 567.976318,991.227905 
	C568.376038,994.150818 568.458496,997.235413 568.420654,1000.713867 
z"/>
<path fill="#3C3E72" opacity="1.000000" stroke="none" 
	d="
M656.355835,311.749451 
	C652.379761,312.167450 650.833984,310.383575 652.291626,306.050476 
	C653.687500,307.610779 654.977112,309.531067 656.355835,311.749451 
z"/>
<path fill="#4A507A" opacity="1.000000" stroke="none" 
	d="
M166.167969,26.338177 
	C163.973877,24.883751 161.642990,23.134249 159.364166,21.023937 
	C161.621231,22.456453 163.826202,24.249777 166.167969,26.338177 
z"/>
<path fill="#3F7CBD" opacity="1.000000" stroke="none" 
	d="
M529.034302,222.306534 
	C534.207520,222.085480 539.778748,222.044876 545.847656,222.063065 
	C540.707642,222.243576 535.069946,222.365280 529.034302,222.306534 
z"/>
<path fill="#4A507A" opacity="1.000000" stroke="none" 
	d="
M190.216812,47.092285 
	C188.635315,46.102806 186.891907,44.848915 185.120300,43.239819 
	C186.746368,44.199036 188.400635,45.513454 190.216812,47.092285 
z"/>
<path fill="#4A507A" opacity="1.000000" stroke="none" 
	d="
M184.973358,42.607864 
	C183.489807,41.759357 181.868515,40.616901 180.293457,39.086765 
	C181.838333,39.904030 183.336960,41.108971 184.973358,42.607864 
z"/>
<path fill="#4A78A6" opacity="1.000000" stroke="none" 
	d="
M753.747925,833.242920 
	C753.139160,835.555603 752.295410,838.126526 751.096741,840.806396 
	C751.665527,838.443970 752.589233,835.972534 753.747925,833.242920 
z"/>
<path fill="#4A78A6" opacity="1.000000" stroke="none" 
	d="
M756.473022,826.974182 
	C756.072205,828.812378 755.391785,830.845764 754.347046,832.931396 
	C754.719727,831.045532 755.456604,829.107483 756.473022,826.974182 
z"/>
<path fill="#272B5B" opacity="1.000000" stroke="none" 
	d="
M252.543808,988.004639 
	C250.685699,988.286682 248.399033,988.484497 246.064606,988.373901 
	C248.049652,988.017151 250.082458,987.968811 252.543808,988.004639 
z"/>
<path fill="#3C3E72" opacity="1.000000" stroke="none" 
	d="
M645.750000,435.223206 
	C646.124756,434.296783 646.765442,433.217590 647.776367,432.127625 
	C647.436401,433.101379 646.726135,434.085907 645.750000,435.223206 
z"/>
<path fill="#1C2254" opacity="1.000000" stroke="none" 
	d="
M568.312744,975.636230 
	C567.999390,974.492493 567.794556,972.931702 567.896118,971.154297 
	C568.275391,972.364929 568.348267,973.792053 568.312744,975.636230 
z"/>
<path fill="#1C2254" opacity="1.000000" stroke="none" 
	d="
M568.371399,1013.656189 
	C568.053650,1012.491943 567.854919,1010.906433 567.974731,1009.102905 
	C568.358948,1010.334900 568.424683,1011.784912 568.371399,1013.656189 
z"/>
<path fill="#3F7CBD" opacity="1.000000" stroke="none" 
	d="
M563.981262,222.298645 
	C565.130981,222.098221 566.623230,222.070648 568.446411,222.172653 
	C567.292847,222.358643 565.808289,222.415085 563.981262,222.298645 
z"/>
<path fill="#3C3E72" opacity="1.000000" stroke="none" 
	d="
M430.643372,466.982361 
	C431.239380,467.059845 431.940277,467.380737 432.537109,468.072571 
	C431.871460,468.037537 431.309814,467.631653 430.643372,466.982361 
z"/>
<path fill="#3C3E72" opacity="1.000000" stroke="none" 
	d="
M655.861572,421.204559 
	C655.873108,420.640137 656.095947,419.886993 656.663940,419.065613 
	C656.697021,419.670197 656.384949,420.342987 655.861572,421.204559 
z"/>
<path fill="#4A78A6" opacity="1.000000" stroke="none" 
	d="
M431.600037,2.967130 
	C431.374054,3.808958 430.833557,4.745212 429.929382,5.668124 
	C430.138947,4.790374 430.712189,3.925966 431.600037,2.967130 
z"/>
<path fill="#1C2254" opacity="1.000000" stroke="none" 
	d="
M568.318115,1019.667969 
	C568.022827,1019.128723 567.836426,1018.207214 567.938965,1017.107727 
	C568.294189,1017.715088 568.360596,1018.500427 568.318115,1019.667969 
z"/>
<path fill="#1C2254" opacity="1.000000" stroke="none" 
	d="
M568.290894,961.685730 
	C568.061340,961.139099 567.937073,960.235596 568.132874,959.215332 
	C568.433960,959.841919 568.415039,960.585449 568.290894,961.685730 
z"/>
<path fill="#3F7CBD" opacity="1.000000" stroke="none" 
	d="
M554.935181,222.294708 
	C555.577332,222.090546 556.501221,222.049820 557.886841,222.070374 
	C557.304626,222.240479 556.260803,222.349319 554.935181,222.294708 
z"/>
<path fill="#4A78A6" opacity="1.000000" stroke="none" 
	d="
M430.898010,218.440369 
	C431.496552,218.598480 432.193817,219.047775 432.899384,219.851242 
	C432.270721,219.714127 431.633728,219.222839 430.898010,218.440369 
z"/>
<path fill="#4A78A6" opacity="1.000000" stroke="none" 
	d="
M801.196411,832.627991 
	C800.860229,832.444702 800.497925,831.949341 800.184570,831.119629 
	C800.545776,831.295410 800.858032,831.805603 801.196411,832.627991 
z"/>
<path fill="#3C3E72" opacity="1.000000" stroke="none" 
	d="
M648.376953,432.020935 
	C648.362671,431.586945 648.597839,431.033142 649.156616,430.487518 
	C649.195679,430.964172 648.911011,431.432648 648.376953,432.020935 
z"/>
<path fill="#3C3E72" opacity="1.000000" stroke="none" 
	d="
M652.319336,305.398193 
	C651.962708,305.292145 651.532593,304.905609 651.102905,304.194336 
	C651.484192,304.285645 651.864929,304.701691 652.319336,305.398193 
z"/>
<path fill="#3C3E72" opacity="1.000000" stroke="none" 
	d="
M644.341492,295.250549 
	C643.990662,295.203796 643.532104,294.907562 643.040527,294.298981 
	C643.416260,294.324768 643.825012,294.662903 644.341492,295.250549 
z"/>
<path fill="#3C3E72" opacity="1.000000" stroke="none" 
	d="
M642.938293,293.739136 
	C642.511475,293.699310 642.010132,293.405914 641.580322,292.807434 
	C642.055786,292.830139 642.459778,293.157867 642.938293,293.739136 
z"/>
<path fill="#4A78A6" opacity="1.000000" stroke="none" 
	d="
M433.537689,1.852406 
	C433.392517,2.196107 432.952698,2.559737 432.197571,2.920238 
	C432.335846,2.568852 432.789429,2.220593 433.537689,1.852406 
z"/>
<path fill="#4A507A" opacity="1.000000" stroke="none" 
	d="
M192.026093,48.684288 
	C191.606766,48.680553 191.084686,48.427002 190.574249,47.865303 
	C191.031693,47.849594 191.477509,48.142033 192.026093,48.684288 
z"/>
<path fill="#29306F" opacity="1.000000" stroke="none" 
	d="
M413.916687,821.715454 
	C413.615112,821.897156 413.394653,821.743652 413.124756,821.344238 
	C413.336792,821.258362 413.644257,821.352295 413.916687,821.715454 
z"/>
<path fill="#3C3E72" opacity="1.000000" stroke="none" 
	d="
M429.700256,465.481049 
	C429.942047,465.460938 430.199097,465.654327 430.354370,466.090942 
	C429.977753,466.201477 429.798737,465.988251 429.700256,465.481049 
z"/>
<path fill="#3C3E72" opacity="1.000000" stroke="none" 
	d="
M635.594482,445.290894 
	C635.524902,445.051605 635.683228,444.749603 636.117859,444.475037 
	C636.308716,444.827240 636.118103,445.069092 635.594482,445.290894 
z"/>
<path fill="#3C3E72" opacity="1.000000" stroke="none" 
	d="
M643.860718,437.282654 
	C643.757141,437.068817 643.823181,436.778290 644.144653,436.532837 
	C644.364685,436.839020 644.241394,437.048370 643.860718,437.282654 
z"/>
<path fill="#3C3E72" opacity="1.000000" stroke="none" 
	d="
M644.789673,436.286011 
	C644.681091,436.067657 644.766418,435.758331 645.120728,435.455475 
	C645.359070,435.764343 645.223694,436.008698 644.789673,436.286011 
z"/>
<path fill="#4A78A6" opacity="1.000000" stroke="none" 
	d="
M436.676331,221.084259 
	C437.013428,221.001495 437.007019,221.465408 437.004517,221.697357 
	C437.002014,221.929321 436.521149,222.012115 436.521149,222.012115 
	C436.521149,222.012115 436.048157,221.892899 435.896118,221.708740 
	C435.942474,221.405396 436.140839,221.286224 436.676331,221.084259 
z"/>
<path fill="#4A78A6" opacity="1.000000" stroke="none" 
	d="
M435.094879,221.442459 
	C435.221436,221.261307 435.459839,221.169037 435.595276,221.298218 
	C435.492279,221.519699 435.206757,221.531342 435.094879,221.442459 
z"/>
<path fill="#FAFAFB" opacity="1.000000" stroke="none" 
	d="
M87.989250,987.867004 
	C86.590096,987.860596 85.190933,987.854248 82.921707,987.865845 
	C70.148590,987.873535 58.245274,987.899048 46.342758,987.813416 
	C44.607132,987.800964 42.875324,987.257568 41.260155,986.506165 
	C41.313103,943.675903 41.247643,901.299316 41.182182,858.922668 
	C58.953121,859.338440 76.919533,858.250122 94.448425,860.528259 
	C119.696457,863.809570 138.323990,884.310791 142.945862,910.412354 
	C147.989380,938.895142 137.940735,965.291992 115.942978,978.389648 
	C108.974693,982.538635 100.527870,984.204407 92.032410,987.103027 
	C90.201180,987.421936 89.095215,987.644470 87.989250,987.867004 
z"/>
<path fill="#1A1D52" opacity="1.000000" stroke="none" 
	d="
M40.849884,859.196533 
	C41.247643,901.299316 41.313103,943.675903 40.978222,986.513062 
	C40.389912,986.978027 40.201950,986.982544 40.013992,986.987000 
	C40.010765,946.110352 40.001625,905.233765 40.026016,864.357117 
	C40.026989,862.728149 40.346493,861.099365 40.849884,859.196533 
z"/>
<path fill="#272B5B" opacity="1.000000" stroke="none" 
	d="
M40.100601,987.385132 
	C40.201950,986.982544 40.389912,986.978027 40.859810,986.966675 
	C42.875324,987.257568 44.607132,987.800964 46.342758,987.813416 
	C58.245274,987.899048 70.148590,987.873535 82.511353,987.964722 
	C82.723320,988.258301 82.476509,988.655884 82.227684,988.657104 
	C68.550240,988.726257 54.872635,988.769409 41.195091,988.758728 
	C40.858875,988.758484 40.523159,988.122681 40.100601,987.385132 
z"/>
<path fill="#272B5B" opacity="1.000000" stroke="none" 
	d="
M88.176117,988.148560 
	C89.095215,987.644470 90.201180,987.421936 91.645760,987.239868 
	C90.777237,987.663574 89.570107,988.046875 88.176117,988.148560 
z"/>
<path fill="#F8FBFC" opacity="1.000000" stroke="none" 
	d="
M789.779053,902.193665 
	C795.334412,915.748230 800.757080,928.943726 806.415283,942.712341 
	C787.162231,942.712341 768.540649,942.712341 749.479553,942.712341 
	C758.855896,920.008301 768.100342,897.623657 777.932800,873.815186 
	C782.194458,884.009216 785.920410,892.921936 789.779053,902.193665 
z"/>
<path fill="#F9F9FB" opacity="1.000000" stroke="none" 
	d="
M568.287781,858.902344 
	C568.546143,858.876099 568.732849,858.746582 569.365723,858.362549 
	C585.991333,858.274414 602.099121,858.337463 618.206970,858.400513 
	C634.946472,864.105530 643.109253,874.534973 643.132568,890.247620 
	C643.158142,907.498413 630.554932,920.708252 613.229797,921.036011 
	C598.608459,921.312622 583.976990,921.046875 568.878723,920.516113 
	C568.321045,917.329407 568.234619,914.647766 568.148193,911.966064 
	C568.240417,896.621826 568.332642,881.277649 568.396484,865.055786 
	C568.341370,862.419495 568.314575,860.660950 568.287781,858.902344 
z"/>
<path fill="#1C2254" opacity="1.000000" stroke="none" 
	d="
M617.937622,858.038147 
	C602.099121,858.337463 585.991333,858.274414 569.410278,858.192261 
	C569.963379,857.780457 570.988098,857.050354 572.016174,857.045776 
	C586.621338,856.980835 601.226990,857.006409 615.832458,857.051392 
	C616.444946,857.053284 617.056335,857.458496 617.937622,858.038147 
z"/>
<path fill="#1C2254" opacity="1.000000" stroke="none" 
	d="
M567.830200,912.224670 
	C568.234619,914.647766 568.321045,917.329407 568.443787,920.454224 
	C568.157410,918.092590 567.834778,915.287964 567.830200,912.224670 
z"/>
<path fill="#1C2254" opacity="1.000000" stroke="none" 
	d="
M567.982422,859.084778 
	C568.314575,860.660950 568.341370,862.419495 568.264038,864.604736 
	C564.638489,863.391418 567.097412,861.250671 567.982422,859.084778 
z"/>
</svg>